<svg class="animated" id="freepik_stories-accept-request" xmlns="http://www.w3.org/2000/svg" xmlns:xlink="http://www.w3.org/1999/xlink" viewBox="0 0 500 500" version="1.1" xmlns:svgjs="http://svgjs.com/svgjs"><style>svg#freepik_stories-accept-request:not(.animated) .animable {opacity: 0;}svg#freepik_stories-accept-request.animated #freepik--background-simple--inject-4 {animation: 1s 1 forwards cubic-bezier(.36,-0.01,.5,1.38) fadeIn;animation-delay: 0s;}            @keyframes fadeIn {                0% {                    opacity: 0;                }                100% {                    opacity: 1;                }            }        </style><g id="freepik--background-simple--inject-4" class="animable animator-active" style="transform-origin: 239.666px 250.609px;"><g id="elcijik63sd5d"><path d="M67.93,167.09s-27.88,72,11.3,144.5S199.11,422.39,263.7,455.14s131.66,16.8,163.53-36.84-11.84-91.93-11.9-168.42,11.45-96.74-30-161.36-143.06-78.93-219.9-31S67.93,167.09,67.93,167.09Z" style="fill: rgb(255, 255, 255); opacity: 0.7; transform-origin: 248.588px 250.609px;" class="animable" id="elx7ofmn1j6cs"></path></g><path d="M35.11,283.36a108.58,108.58,0,0,1,5.79-64.51C52.45,190.3,77.26,170,105.07,158.17,145.47,141,185.14,140.63,218,106.92c10.13-10.4,18.64-22.31,29-32.5,30.52-30,75.2-26.39,108.55-2.57,69.59,49.69,94.62,148.1,90.75,229.46-1.74,36.51-19.17,70.5-46.76,94.45-62.4,54.18-168.36,45.07-240,16.79C106,391.46,47.66,342.26,35.11,283.36Z" style="fill: #FFCF59; transform-origin: 239.666px 244.048px;" id="elejkp9z04gt9" class="animable"></path><g id="elrg2t3khlesp"><path d="M35.11,283.36a108.58,108.58,0,0,1,5.79-64.51C52.45,190.3,77.26,170,105.07,158.17,145.47,141,185.14,140.63,218,106.92c10.13-10.4,18.64-22.31,29-32.5,30.52-30,75.2-26.39,108.55-2.57,69.59,49.69,94.62,148.1,90.75,229.46-1.74,36.51-19.17,70.5-46.76,94.45-62.4,54.18-168.36,45.07-240,16.79C106,391.46,47.66,342.26,35.11,283.36Z" style="fill: rgb(255, 255, 255); opacity: 0.7; transform-origin: 239.666px 244.048px;" class="animable" id="el6nfekj8ph5d"></path></g></g><g id="freepik--Icons--inject-4" class="animable" style="transform-origin: 251.425px 291.538px;"><path d="M297.51,397.8a25,25,0,0,1-2.88,11.7H289.2a2.61,2.61,0,0,0-.48.05,2.14,2.14,0,0,0-1.66,2.09v6.58a25.19,25.19,0,1,1,10.45-20.42Z" style="fill: none; stroke: rgb(38, 50, 56); stroke-linecap: round; stroke-linejoin: round; transform-origin: 272.32px 397.793px;" id="el3c0bczm6ly8" class="animable"></path><path d="M278.47,407.08a45.87,45.87,0,0,1,10.25,2.47,2.14,2.14,0,0,0-1.66,2.09v6.58A25.17,25.17,0,0,1,252,412.65q.21-.37.45-.75c.94-1.53,6.61-4,14.65-4.84a7.62,7.62,0,0,0,.46-4c0-.23-.06-.44-.09-.65a4.86,4.86,0,0,1-1.11-1.39,22.35,22.35,0,0,1-1-3.17,1.13,1.13,0,0,1-.16.68c-.59.55-1.13-.4-1.21-1.23s-1.11-2.28-1.35-3.1a2.11,2.11,0,0,1,.71-2.05.6.6,0,0,1,.61.06,13.37,13.37,0,0,1-.34-4.42,6.35,6.35,0,0,1,2.52-4.65s1-2.89,6.61-2.87c6.09,0,6.7,3.32,6.7,3.32s3.15,2.1,1.91,8.61a.54.54,0,0,1,.57-.05,2.08,2.08,0,0,1,.71,2.05c-.23.82-1.27,2.26-1.35,3.1s-.62,1.78-1.21,1.23a.65.65,0,0,1-.12-.31,20.57,20.57,0,0,1-1,3.13,4.44,4.44,0,0,1-1.25,1.5,7.65,7.65,0,0,0,.1,2.65A4.39,4.39,0,0,0,278.47,407.08Z" style="fill: none; stroke: rgb(38, 50, 56); stroke-linecap: round; stroke-linejoin: round; transform-origin: 270.36px 401.625px;" id="ellkzlenxij4i" class="animable"></path><rect x="287.06" y="409.5" width="12.29" height="12.29" rx="2.14" style="fill: none; stroke: rgb(38, 50, 56); stroke-linecap: round; stroke-linejoin: round; transform-origin: 293.205px 415.645px;" id="eltsm2531u8e" class="animable"></rect><polygon points="296.26 414.94 293.9 414.94 293.9 412.58 292.5 412.58 292.5 414.94 290.14 414.94 290.14 416.34 292.5 416.34 292.5 418.7 293.9 418.7 293.9 416.34 296.26 416.34 296.26 414.94" style="fill: rgb(38, 50, 56); transform-origin: 293.2px 415.64px;" id="elba5vx6bsnj4" class="animable"></polygon><path d="M140.49,195.09a34.89,34.89,0,0,1-4,16.26h-8.4a2.14,2.14,0,0,0-2.14,2.14v10a35,35,0,1,1,14.54-28.4Z" style="fill: none; stroke: rgb(38, 50, 56); stroke-linecap: round; stroke-linejoin: round; transform-origin: 105.49px 195.093px;" id="elumpcxakuut7" class="animable"></path><g id="eljz2f34vozt"><rect x="81.22" y="178.15" width="48.49" height="33.89" rx="2.77" style="fill: none; stroke: rgb(38, 50, 56); stroke-linecap: round; stroke-linejoin: round; transform-origin: 105.465px 195.095px; transform: rotate(-11.01deg);" class="animable" id="elafmila4lyjq"></rect></g><path d="M79.16,186.87,102,199.29a6.67,6.67,0,0,0,8.32-1.62l16.48-20.06" style="fill: none; stroke: rgb(38, 50, 56); stroke-linecap: round; stroke-linejoin: round; transform-origin: 102.98px 188.852px;" id="el6kasp8r59gj" class="animable"></path><line x1="87.86" y1="213.11" x2="101.96" y2="199.29" style="fill: none; stroke: rgb(38, 50, 56); stroke-linecap: round; stroke-linejoin: round; transform-origin: 94.91px 206.2px;" id="eliq8m6mm2vtk" class="animable"></line><line x1="128.31" y1="205.24" x2="110.28" y2="197.67" style="fill: none; stroke: rgb(38, 50, 56); stroke-linecap: round; stroke-linejoin: round; transform-origin: 119.295px 201.455px;" id="elh610cpcn3ma" class="animable"></line><rect x="125.95" y="211.35" width="17.09" height="17.09" rx="2.14" style="fill: none; stroke: rgb(38, 50, 56); stroke-linecap: round; stroke-linejoin: round; transform-origin: 134.495px 219.895px;" id="elmrnz7bdh7n" class="animable"></rect><polygon points="138.75 218.93 135.47 218.93 135.47 215.65 133.53 215.65 133.53 218.93 130.25 218.93 130.25 220.87 133.53 220.87 133.53 224.15 135.47 224.15 135.47 220.87 138.75 220.87 138.75 218.93" style="fill: rgb(38, 50, 56); transform-origin: 134.5px 219.9px;" id="el29xt4r3adoi" class="animable"></polygon><path d="M415.64,335.3h-31.8l.62-1a27.25,27.25,0,0,0,3.94-14.75v-.06a11.34,11.34,0,1,1,22.68.17A25.69,25.69,0,0,0,414.79,334Z" style="fill: none; stroke: rgb(38, 50, 56); stroke-linecap: round; stroke-linejoin: round; transform-origin: 399.74px 321.761px;" id="elyglra3dzyp" class="animable"></path><path d="M397.17,307.93a3.64,3.64,0,1,1,5.15,0" style="fill: none; stroke: rgb(38, 50, 56); stroke-linecap: round; stroke-linejoin: round; transform-origin: 399.745px 304.824px;" id="elf5vt1mhq96" class="animable"></path><rect x="381.68" y="335.31" width="36.13" height="3.26" rx="1.35" style="fill: none; stroke: rgb(38, 50, 56); stroke-linecap: round; stroke-linejoin: round; transform-origin: 399.745px 336.94px;" id="elkau93nhcye" class="animable"></rect><circle cx="399.74" cy="344.05" r="2.78" style="fill: none; stroke: rgb(38, 50, 56); stroke-linecap: round; stroke-linejoin: round; transform-origin: 399.74px 344.05px;" id="elnoukarsboj" class="animable"></circle><path d="M430.14,326.68a30.37,30.37,0,0,1-3.46,14.12h-7a2.14,2.14,0,0,0-2.14,2.14v8.4a30.41,30.41,0,1,1,12.61-24.66Z" style="fill: none; stroke: rgb(38, 50, 56); stroke-linecap: round; stroke-linejoin: round; transform-origin: 399.74px 326.684px;" id="el1wwhyiy81zn" class="animable"></path><rect x="417.53" y="340.8" width="14.83" height="14.83" rx="2.14" style="fill: none; stroke: rgb(38, 50, 56); stroke-linecap: round; stroke-linejoin: round; transform-origin: 424.945px 348.215px;" id="elz5f2rqnne9f" class="animable"></rect><polygon points="428.63 347.38 425.79 347.38 425.79 344.53 424.11 344.53 424.11 347.38 421.26 347.38 421.26 349.06 424.11 349.06 424.11 351.9 425.79 351.9 425.79 349.06 428.63 349.06 428.63 347.38" style="fill: rgb(38, 50, 56); transform-origin: 424.945px 348.215px;" id="elq6dnkamefp" class="animable"></polygon></g><g id="freepik--Window--inject-4" class="animable" style="transform-origin: 306.825px 187.275px;"><rect x="187.76" y="71.16" width="238.13" height="232.2" rx="6.95" style="fill: rgb(255, 255, 255); transform-origin: 306.825px 187.26px;" id="elw4jpotiv6xg" class="animable"></rect><g style="clip-path: url(&quot;#freepik--clip-path--inject-4&quot;); transform-origin: 315.425px 190.385px;" id="elrlrjxodw8fr" class="animable"><path d="M389,285h-55.2a13,13,0,0,1-13-13h0a13,13,0,0,1,13-13H389a13,13,0,0,1,13,13h0A13,13,0,0,1,389,285Z" style="fill: #FFCF59; stroke: rgb(38, 50, 56); stroke-linecap: round; stroke-linejoin: round; transform-origin: 361.4px 272px;" id="elfr2xzcyguj" class="animable"></path><path d="M347.29,278.38h-2.11l-.36-2.42h-2.57l-.36,2.42H340l2.13-13.3h3.06Zm-4.77-4.22h2l-1-6.73h0Z" style="fill: rgb(38, 50, 56); transform-origin: 343.645px 271.73px;" id="elaxdsm4mjodg" class="animable"></path><path d="M354.3,273.42v1.76c0,2.13-1.06,3.35-3.11,3.35s-3.12-1.22-3.12-3.35v-6.91c0-2.13,1.06-3.34,3.12-3.34s3.11,1.21,3.11,3.34v1.29h-2v-1.42c0-.95-.42-1.31-1.09-1.31s-1.08.36-1.08,1.31v7.18c0,.95.42,1.29,1.08,1.29s1.09-.34,1.09-1.29v-1.9Z" style="fill: rgb(38, 50, 56); transform-origin: 351.185px 271.73px;" id="elas9o8c8kgp" class="animable"></path><path d="M361.64,273.42v1.76c0,2.13-1.07,3.35-3.12,3.35s-3.11-1.22-3.11-3.35v-6.91c0-2.13,1.06-3.34,3.11-3.34s3.12,1.21,3.12,3.34v1.29h-2v-1.42c0-.95-.42-1.31-1.08-1.31s-1.08.36-1.08,1.31v7.18c0,.95.41,1.29,1.08,1.29s1.08-.34,1.08-1.29v-1.9Z" style="fill: rgb(38, 50, 56); transform-origin: 358.525px 271.73px;" id="eloyao7bgrupf" class="animable"></path><path d="M365,270.68h2.87v1.9H365v3.9h3.61v1.9h-5.7v-13.3h5.7V267H365Z" style="fill: rgb(38, 50, 56); transform-origin: 365.76px 271.73px;" id="el4ndwugh6z9m" class="animable"></path><path d="M376.1,268.36v1.73c0,2.13-1,3.29-3.12,3.29h-1v5h-2.09v-13.3H373C375.07,265.08,376.1,266.24,376.1,268.36ZM372,267v4.5h1c.67,0,1-.3,1-1.25v-2c0-1-.36-1.25-1-1.25Z" style="fill: rgb(38, 50, 56); transform-origin: 372.995px 271.73px;" id="elv0py7aodh9" class="animable"></path><path d="M376.46,265.08h6.46V267h-2.18v11.4h-2.09V267h-2.19Z" style="fill: rgb(38, 50, 56); transform-origin: 379.69px 271.74px;" id="elgonahox9fg" class="animable"></path><path d="M279.83,285H224.64a13,13,0,0,1-13-13h0a13,13,0,0,1,13-13h55.19a13,13,0,0,1,13,13h0A13,13,0,0,1,279.83,285Z" style="fill: #FFCF59; transform-origin: 252.235px 272px;" id="elkjvncgljpm" class="animable"></path><g style="clip-path: url(&quot;#freepik--clip-path-2--inject-4&quot;); transform-origin: 252.235px 272px;" id="el6r93qhh9uqf" class="animable"><g id="elhl9tnayvw5"><path d="M279.83,285H224.64a13,13,0,0,1-13-13h0a13,13,0,0,1,13-13h55.19a13,13,0,0,1,13,13h0A13,13,0,0,1,279.83,285Z" style="fill: rgb(255, 255, 255); opacity: 0.6; transform-origin: 252.235px 272px;" class="animable" id="elwj526ae5ezk"></path></g></g><path d="M279.83,285H224.64a13,13,0,0,1-13-13h0a13,13,0,0,1,13-13h55.19a13,13,0,0,1,13,13h0A13,13,0,0,1,279.83,285Z" style="fill: none; stroke: rgb(38, 50, 56); stroke-linecap: round; stroke-linejoin: round; transform-origin: 252.235px 272px;" id="el4ksc5qygvl6" class="animable"></path><path d="M229.37,265.08h3.31c2.09,0,3.11,1.16,3.11,3.28v6.73c0,2.13-1,3.29-3.11,3.29h-3.31Zm2.09,1.9v9.5h1.18c.66,0,1.06-.35,1.06-1.3v-6.91c0-.95-.4-1.29-1.06-1.29Z" style="fill: rgb(38, 50, 56); transform-origin: 232.58px 271.73px;" id="el10t2vgngktu" class="animable"></path><path d="M239.21,270.68h2.87v1.9h-2.87v3.9h3.61v1.9h-5.7v-13.3h5.7V267h-3.61Z" style="fill: rgb(38, 50, 56); transform-origin: 239.97px 271.73px;" id="elm9wxxdi7qs" class="animable"></path><path d="M250.18,273.42v1.76c0,2.13-1.06,3.35-3.12,3.35s-3.11-1.22-3.11-3.35v-6.91c0-2.13,1.06-3.34,3.11-3.34s3.12,1.21,3.12,3.34v1.29h-2v-1.42c0-.95-.41-1.31-1.08-1.31s-1.08.36-1.08,1.31v7.18c0,.95.42,1.29,1.08,1.29s1.08-.34,1.08-1.29v-1.9Z" style="fill: rgb(38, 50, 56); transform-origin: 247.065px 271.73px;" id="elauddkzn22uc" class="animable"></path><path d="M251.45,265.08h2.09v11.4H257v1.9h-5.53Z" style="fill: rgb(38, 50, 56); transform-origin: 254.225px 271.73px;" id="elmhn650155ci" class="animable"></path><path d="M257.9,265.08H260v13.3H257.9Z" style="fill: rgb(38, 50, 56); transform-origin: 258.95px 271.73px;" id="el47x1808gj3a" class="animable"></path><path d="M263.41,268.74h0v9.64h-1.88v-13.3h2.62l2.11,8h0v-8h1.86v13.3H266Z" style="fill: rgb(38, 50, 56); transform-origin: 264.825px 271.73px;" id="el430b7j8vea1" class="animable"></path><path d="M271.71,270.68h2.87v1.9h-2.87v3.9h3.61v1.9h-5.7v-13.3h5.7V267h-3.61Z" style="fill: rgb(38, 50, 56); transform-origin: 272.47px 271.73px;" id="elxnqw129jz9m" class="animable"></path><path d="M361,176a54.21,54.21,0,1,1-54.21-54.21A54,54,0,0,1,361,176Z" style="fill: #FFCF59; stroke: rgb(38, 50, 56); stroke-linecap: round; stroke-linejoin: round; transform-origin: 306.79px 176px;" id="ell4i2bpva2" class="animable"></path><path d="M351.85,206.15A54.21,54.21,0,0,1,263,207.91c.32-.54.64-1.08,1-1.61,2-3.31,14.24-8.55,31.55-10.43a117.51,117.51,0,0,1,11.76-.7,94.49,94.49,0,0,1,12.73.74C335.08,197.79,347.59,202.77,351.85,206.15Z" style="fill: rgb(117, 117, 117); stroke: rgb(38, 50, 56); stroke-linecap: round; stroke-linejoin: round; transform-origin: 307.425px 212.679px;" id="elg91jdr8r2l" class="animable"></path><path d="M321.3,197.19a15.26,15.26,0,0,1-13.54,7.75c-8,0-13.79-6.92-13.79-6.92,2.8-2.51,3-7.17,2.56-10.84a31.87,31.87,0,0,0-1-5.32h23.86c-1.45,4.77-1.4,8.19-.84,10.57C319.34,195.94,321.3,197.19,321.3,197.19Z" style="fill: rgb(255, 255, 255); stroke: rgb(38, 50, 56); stroke-linecap: round; stroke-linejoin: round; transform-origin: 307.635px 193.401px;" id="el6mgkit6nq0h" class="animable"></path><path d="M318.5,192.43c-17.24,4.52-20.66-5.33-20.66-5.33l-1.31.08a31.87,31.87,0,0,0-1-5.32h23.86C317.89,186.63,317.94,190.05,318.5,192.43Z" style="fill: rgb(38, 50, 56); transform-origin: 307.46px 187.738px;" id="eli424pecs" class="animable"></path><path d="M324.53,165.11s1.92-2.09,2.87-1.4a4.47,4.47,0,0,1,1.54,4.4c-.51,1.78-2.74,4.87-2.92,6.67s-1.32,3.84-2.59,2.65S324.53,165.11,324.53,165.11Z" style="fill: rgb(255, 255, 255); stroke: rgb(38, 50, 56); stroke-linecap: round; stroke-linejoin: round; transform-origin: 326.048px 170.677px;" id="elbd2vk9o1ypt" class="animable"></path><path d="M290.29,165.11s-1.92-2.09-2.87-1.4a4.47,4.47,0,0,0-1.54,4.4c.51,1.78,2.74,4.87,2.92,6.67s1.32,3.84,2.59,2.65S290.29,165.11,290.29,165.11Z" style="fill: rgb(255, 255, 255); stroke: rgb(38, 50, 56); stroke-linecap: round; stroke-linejoin: round; transform-origin: 288.772px 170.677px;" id="elc6fm6cfk6jr" class="animable"></path><path d="M307,141c24.17,0,18.42,32.18,14,42.51-1.56,3.63-9.66,8.39-13.57,8.39-3.64,0-12-5.69-13.44-9.1C289.47,172.4,284,141,307,141Z" style="fill: rgb(255, 255, 255); stroke: rgb(38, 50, 56); stroke-linecap: round; stroke-linejoin: round; transform-origin: 307.464px 166.45px;" id="el1amus29b922" class="animable"></path><path d="M311.1,160.85s6.29-1.95,8.24,1.94" style="fill: none; stroke: rgb(38, 50, 56); stroke-linecap: round; stroke-linejoin: round; transform-origin: 315.22px 161.576px;" id="el5isf2jh09ad" class="animable"></path><path d="M315.76,166.14c0,.74-.38,1.34-.84,1.34s-.85-.6-.85-1.34.38-1.34.85-1.34S315.76,165.4,315.76,166.14Z" style="fill: rgb(38, 50, 56); transform-origin: 314.915px 166.14px;" id="elvw81q8rd2f" class="animable"></path><path d="M303.72,160.85s-6.29-1.95-8.24,1.94" style="fill: none; stroke: rgb(38, 50, 56); stroke-linecap: round; stroke-linejoin: round; transform-origin: 299.6px 161.576px;" id="elvxqfzdivxzi" class="animable"></path><path d="M299.06,166.14c0,.74.38,1.34.84,1.34s.85-.6.85-1.34-.38-1.34-.85-1.34S299.06,165.4,299.06,166.14Z" style="fill: rgb(38, 50, 56); transform-origin: 299.905px 166.14px;" id="el4bh83azff54" class="animable"></path><path d="M317,149.21a30.6,30.6,0,0,1-18.62,0s-3.27-.19-4.55,1.45,0,6.7.34,8.76-2.83,3.49-2.4,8.69l-1.23,1.8s-3.41-8.38-2.55-15.58,5.41-10,5.41-10,2.07-6.23,14.23-6.18c13.11.05,14.43,7.14,14.43,7.14s8.88,5.93,2.31,25.23l-1.42-2.4a10.81,10.81,0,0,0-1.66-7.32c-1.15-1.67.68-6.69.25-9.27S317,149.21,317,149.21Z" style="fill: rgb(38, 50, 56); transform-origin: 307.321px 154.335px;" id="elvh34w4qfz99" class="animable"></path><path d="M308.85,164.8s.07,5.88,1.61,7.79c.79,1-.75,3.1-3.13,3.48" style="fill: none; stroke: rgb(38, 50, 56); stroke-linecap: round; stroke-linejoin: round; transform-origin: 308.999px 170.435px;" id="elj8sxqy7us6r" class="animable"></path><path d="M302.12,179.48a4.78,4.78,0,0,0,2.25,2.89c1.65.71,6.67.41,7.62-.18s1.42-2.52,1.42-2.52" style="fill: rgb(255, 255, 255); stroke: rgb(38, 50, 56); stroke-linecap: round; stroke-linejoin: round; transform-origin: 307.765px 181.132px;" id="elhfunkybt5vj" class="animable"></path><path d="M301.59,179.36a29.78,29.78,0,0,0,12.48,0" style="fill: none; stroke: rgb(38, 50, 56); stroke-linecap: round; stroke-linejoin: round; transform-origin: 307.83px 179.691px;" id="eloewxsyw1yb" class="animable"></path><path d="M319.34,149.46s-2.7,4-11.58,4.87a6.5,6.5,0,0,0,1.57-2.25,12.51,12.51,0,0,1-9.43,2.25,9.75,9.75,0,0,0-9,3.67l-1.5,6.8s-5.31-6-1.53-15.64l-1.36,1.13s1.51-12.89,17-13.36l-1.88-1.13s15.43-3.29,21.47,6.87c0,0,5.37,1,6.69,10.29l-1.51-1s2.39,7.71-2.57,14.16C325.67,166.14,319.34,155.93,319.34,149.46Z" style="fill: rgb(38, 50, 56); transform-origin: 308.15px 150.706px;" id="el21u5pdn4udnk" class="animable"></path><g id="elbg28b8g57iu"><path d="M365.76,105.52H247.9a3,3,0,0,1-3-3h0a3,3,0,0,1,3-3H365.76a3,3,0,0,1,3,3h0A3,3,0,0,1,365.76,105.52Z" style="fill: rgb(38, 50, 56); opacity: 0.5; transform-origin: 306.83px 102.52px;" class="animable" id="elmenvrfkfn6"></path></g><g id="elk1liccrs48p"><g style="opacity: 0.4; transform-origin: 306.83px 240.645px;" class="animable" id="elvoqokncjkx"><path d="M357.35,238.66H256.3a1.18,1.18,0,0,1-1.18-1.19h0a1.18,1.18,0,0,1,1.18-1.18H357.35a1.18,1.18,0,0,1,1.19,1.18h0A1.19,1.19,0,0,1,357.35,238.66Z" id="elfe0fjyolf5j" class="animable" style="transform-origin: 306.83px 237.475px;"></path><path d="M347.35,245H266.3a1.18,1.18,0,0,1-1.18-1.19h0a1.18,1.18,0,0,1,1.18-1.18h81.05a1.18,1.18,0,0,1,1.19,1.18h0A1.19,1.19,0,0,1,347.35,245Z" id="eleqdzzr69qp4" class="animable" style="transform-origin: 306.83px 243.815px;"></path></g></g><rect x="338.54" y="201.12" width="26.45" height="26.45" rx="4.8" style="fill: rgb(38, 50, 56); stroke: rgb(255, 255, 255); stroke-linecap: round; stroke-linejoin: round; transform-origin: 351.765px 214.345px;" id="eluqzpw9fbrcj" class="animable"></rect><polygon points="358.35 212.85 353.27 212.85 353.27 207.77 350.27 207.77 350.27 212.85 345.19 212.85 345.19 215.85 350.27 215.85 350.27 220.92 353.27 220.92 353.27 215.85 358.35 215.85 358.35 212.85" style="fill: rgb(255, 255, 255); transform-origin: 351.77px 214.345px;" id="ell7e7i5l4n6a" class="animable"></polygon><g id="elrteb2twun5k"><path d="M419.21,82.26a4.88,4.88,0,1,1-4.88-4.88A4.88,4.88,0,0,1,419.21,82.26Z" style="opacity: 0.3; transform-origin: 414.33px 82.26px;" class="animable" id="elzfiacmqrae"></path></g><g id="eljusxf79t6y"><path d="M405.21,82.26a4.88,4.88,0,1,1-4.88-4.88A4.88,4.88,0,0,1,405.21,82.26Z" style="opacity: 0.3; transform-origin: 400.33px 82.26px;" class="animable" id="ele07rbjulaht"></path></g><g id="elhm5nt2pcpt"><path d="M326.46,279s6.26,1.35,6.48,5.91c.48,9.8.46,10.1-6.42,9.23,0,0-4.16,5.71-14.24,4.07l-3.45,5.18H291c4.95-5.91,8.93-10.8,10.67-13.12,6.39-8.51,36.25-21.05,36.25-21.05S337.8,272.47,326.46,279Z" style="fill-opacity: 0.7; opacity: 0.3; transform-origin: 314.46px 286.305px;" class="animable" id="elh7u6m16f4gv"></path></g></g><rect x="187.76" y="71.16" width="238.13" height="232.2" rx="6.95" style="fill: none; stroke: rgb(38, 50, 56); stroke-linecap: round; stroke-linejoin: round; transform-origin: 306.825px 187.26px;" id="elix0eqvlbs9s" class="animable"></rect></g><g id="freepik--Character--inject-4" class="animable" style="transform-origin: 209.975px 352.571px;"><path d="M101.21,444.14s1.76-12.81,3.07-18.09,9-25.71,10.67-37.15L95.21,373.17s-7.44,38.37-7.44,44.39L83.7,430.67" style="fill: rgb(255, 255, 255); stroke: rgb(38, 50, 56); stroke-linecap: round; stroke-linejoin: round; transform-origin: 99.325px 408.655px;" id="eldo5siyicpve" class="animable"></path><path d="M120.78,403.37q-6.19-4.72-12.22-10c-5.81-5-11.47-10.44-16.91-16.15a194.86,194.86,0,0,1,4.9-18.91,24.76,24.76,0,0,1,11.12-13.89l.2-.12.93-.52c.58-.31,1.14-.59,1.68-.83a25.34,25.34,0,0,1,5.56-1.82L120.29,397Z" style="fill: #FFCF59; transform-origin: 106.215px 372.25px;" id="elsqh5cvnmbb" class="animable"></path><g style="clip-path: url(&quot;#freepik--clip-path-3--inject-4&quot;); transform-origin: 106.215px 372.25px;" id="elnupmlv9ha5s" class="animable"><g id="elucw4nfwczmo"><path d="M120.78,403.37q-6.19-4.72-12.22-10c-5.81-5-11.47-10.44-16.91-16.15a194.86,194.86,0,0,1,4.9-18.91,24.76,24.76,0,0,1,11.12-13.89l.2-.12.93-.52c.58-.31,1.14-.59,1.68-.83a25.34,25.34,0,0,1,5.56-1.82L120.29,397Z" style="fill-opacity: 0.7; opacity: 0.3; transform-origin: 106.215px 372.25px;" class="animable" id="elipvcc6lpc0f"></path></g></g><path d="M120.78,403.37q-6.19-4.72-12.22-10c-5.81-5-11.47-10.44-16.91-16.15a194.86,194.86,0,0,1,4.9-18.91,24.76,24.76,0,0,1,11.12-13.89l.2-.12.93-.52c.58-.31,1.14-.59,1.68-.83a25.34,25.34,0,0,1,5.56-1.82L120.29,397Z" style="fill: none; stroke: rgb(38, 50, 56); stroke-linecap: round; stroke-linejoin: round; transform-origin: 106.215px 372.25px;" id="elv1yk2wt4j68" class="animable"></path><path d="M100.21,372.32s2.3,15.63,12.86,21.59" style="fill: none; stroke: rgb(38, 50, 56); stroke-linecap: round; stroke-linejoin: round; transform-origin: 106.64px 383.115px;" id="el20akh79oqdw" class="animable"></path><path d="M206.08,385c0,8-6.51,40.36-6.51,40.36l-.22,28.43s-13.47,4.47-35.21,4.47c-26.64,0-38.44-7.13-39.48-7.8l-.08-.05,4-19.71s-21-49.56-21.41-51.26c-.65-2.52-1.21-5.07-1.66-7.61A61.48,61.48,0,0,1,104.6,354a25,25,0,0,1,2.91-9.6q.17-.3.36-.6a14.51,14.51,0,0,1,1.89-2.43l.19-.2a19.65,19.65,0,0,1,2.11-1.83h0c.25-.19.51-.37.77-.55l.65-.44.42-.27.55-.34.85-.49c15.79-8.75,45.18-7.4,45.18-7.4a4,4,0,0,1,1-.19h.07a6.38,6.38,0,0,1,1.75.14c7.32,1.42,20.72,13.37,30.59,27a88,88,0,0,1,7.82,12.76C204.41,375,206.08,380.36,206.08,385Z" style="fill: #FFCF59; transform-origin: 155.202px 393.955px;" id="elyivms4y9kq" class="animable"></path><g id="elr4850ujazk"><path d="M205.9,382.26a52.21,52.21,0,0,1-14.83-7.35c-7.09,1.33-13.93-5.73-15.71-9.51l23.26-1.5c1.13,1.86,2.15,3.73,3.06,5.58A41.38,41.38,0,0,1,205.9,382.26Z" style="fill-opacity: 0.7; opacity: 0.3; transform-origin: 190.63px 373.08px;" class="animable" id="el1ipqdbpo71t"></path></g><g id="elovp1yvfek3"><path d="M133.31,435.76s5.23,22.38-8.65,14.67l-.08-.05,4-19.71s-21-49.56-21.41-51.26c-.65-2.52-1.21-5.07-1.66-7.61A61.48,61.48,0,0,1,104.6,354a25,25,0,0,1,2.91-9.6q.17-.3.36-.6a14.51,14.51,0,0,1,1.89-2.43l.19-.2a19.65,19.65,0,0,1,2.11-1.83h0c.25-.19.51-.37.77-.55l.65-.44.42-.27.55-.34.85-.49c14.53,1.12,30.68,8,33.8,22.12,0,0-1.32,21.63-6.07,29.54-2.95,4.93-3.95,27.95,10.64,21.29C149.11,433.18,133.31,435.76,133.31,435.76Z" style="fill-opacity: 0.7; opacity: 0.3; transform-origin: 128.998px 394.648px;" class="animable" id="elysp3li5f1l"></path></g><path d="M124.58,450.38l4-19.71s-21-49.56-21.41-51.26c-.65-2.52-1.21-5.07-1.66-7.61A61.48,61.48,0,0,1,104.6,354a25,25,0,0,1,2.91-9.6q.17-.3.36-.6a14.51,14.51,0,0,1,1.89-2.43l.19-.2a19.65,19.65,0,0,1,2.11-1.83h0c14.56-11,48.42-9.49,48.42-9.49a4,4,0,0,1,1-.19h.07a6.38,6.38,0,0,1,1.75.14c7.32,1.42,20.72,13.37,30.59,27a88,88,0,0,1,7.82,12.76c2.73,5.53,4.4,10.88,4.4,15.49,0,8-6.51,40.36-6.51,40.36l-.22,28.43" style="fill: none; stroke: rgb(38, 50, 56); stroke-linecap: round; stroke-linejoin: round; transform-origin: 155.218px 391.745px;" id="el5f2fsxpwnfl" class="animable"></path><path d="M175.14,284.56c-1.19-1.48-6.5-5-6.5-5-1-6.91-1.62-16.13-8.78-23.28-9.79-9.77-32.38-6.68-39.78,7.89-14.77,29.11,13.15,56.53,47.32,50.73,2.91-.49,4.87-3.34,5.27-16.87l.91-1.89s-.94-3.23-1.23-4.85C174.07,289.63,176,285.64,175.14,284.56Z" style="fill: rgb(255, 255, 255); stroke: rgb(38, 50, 56); stroke-linecap: round; stroke-linejoin: round; transform-origin: 145.693px 283.159px;" id="ely0wgydk3i3" class="animable"></path><path d="M166.74,268.75a18,18,0,0,0-2,4.58" style="fill: none; stroke: rgb(38, 50, 56); stroke-linecap: round; stroke-linejoin: round; transform-origin: 165.74px 271.04px;" id="elhansp34wb2f" class="animable"></path><path d="M167.26,281.77s2.38,1.44,3.46,6" style="fill: none; stroke: rgb(38, 50, 56); stroke-linecap: round; stroke-linejoin: round; transform-origin: 168.99px 284.77px;" id="ellvcbajxgnci" class="animable"></path><path d="M173.27,296.82s-.93,1.5-4.8,1.06" style="fill: none; stroke: rgb(38, 50, 56); stroke-linecap: round; stroke-linejoin: round; transform-origin: 170.87px 297.39px;" id="elj5n15c5ror" class="animable"></path><path d="M163.12,252.5s9-3.71,6.4,13.89S153.91,304.92,142.94,301l.19-1.57s9.6,3.79,17.68-12.9,7.41-32,2.79-29.31Z" style="fill: rgb(38, 50, 56); transform-origin: 156.466px 276.826px;" id="elzgc81rgmbgn" class="animable"></path><path d="M162.31,279.78s-3.44,9.07-6.19,12c0,0-1.11-3.47-3.76-3.5s-5-7.08-5-7.08Z" style="fill: rgb(38, 50, 56); transform-origin: 154.835px 285.78px;" id="elyin23qq131e" class="animable"></path><path d="M158.61,280.2s-6.32,15.41-1.69,27.31,17.68,20.84,17.68,20.84l-4.21-1.91s-11.08-7.29-14.95-19.91a45.9,45.9,0,0,1-.16-24.51Z" style="fill: rgb(38, 50, 56); transform-origin: 164.146px 304.275px;" id="elcrqi9we2xnb" class="animable"></path><path d="M106.53,259.69S96,264,96.57,279.61s11.27,29.18,13.42,49.08c1.87,17.31-17,32.55,2.11,52.78,0,0-8.37-13-5.82-27.54s11.3-12.45,4.81-36.12-20.26-37.67-6-52.76Z" style="fill: rgb(38, 50, 56); transform-origin: 104.993px 320.58px;" id="elbfgi1far1b4" class="animable"></path><path d="M167.93,324.35c-19.26-10.74-14-33.67-14-33.67C168.42,280,170.35,260,167.69,254.85s-8.46-3.39-8.46-3.39c-23.09-11-51.51-.73-56.91,15.44-6.91,20.71,4.9,36.62,10.67,54,5.18,15.62-6.82,18.45-6.78,34-2.27,29,27.47,41.11,27.47,41.11a5.31,5.31,0,0,1-2.57-4.54c0-3.17,8.11-3.17,13.45-12.1,4.43-7.41,4.78-25.48,6.26-34.22,2-7.91,4.5-14.23,9.67-15.38,13.62-3.05,25.37,10.17,25.37,10.17S187.2,335.09,167.93,324.35Z" style="fill: rgb(38, 50, 56); transform-origin: 143.046px 321.446px;" id="elx0rv8o88z0m" class="animable"></path><g id="el0ejq7k4tqnvv"><g style="opacity: 0.3; transform-origin: 133.911px 318.674px;" class="animable" id="elvc4fmy04x6"><path d="M162.31,254.63c2.1,3.69-13.66,23.21-19.37,40.08s.1,26.76.1,26.76" style="fill: none; stroke: rgb(255, 255, 255); stroke-linecap: round; stroke-linejoin: round; transform-origin: 151.465px 288.05px;" id="el6cymfmezjmn" class="animable"></path><path d="M127,259.69s-17.15,14.77-7.39,41.78,5.44,45.63,2.19,60.19-.61,19.56,3.35,23.52" style="fill: none; stroke: rgb(255, 255, 255); stroke-linecap: round; stroke-linejoin: round; transform-origin: 121.803px 322.435px;" id="ellw995pk3jpk" class="animable"></path><path d="M148.58,304.27s9.2,10.36,2.89,25.33-9.74,25.67-12.12,37.32-7.65,14.55-7.65,14.55" style="fill: none; stroke: rgb(255, 255, 255); stroke-linecap: round; stroke-linejoin: round; transform-origin: 142.691px 342.87px;" id="elmxznl9dq4u" class="animable"></path><path d="M149.11,252.17s-9.49-.44-14,11.69-.26,33.09-1.84,40.41" style="fill: none; stroke: rgb(255, 255, 255); stroke-linecap: round; stroke-linejoin: round; transform-origin: 141.036px 278.219px;" id="elasb8p4d7q5s" class="animable"></path><path d="M124.58,252.17s-13.92.58-18.36,19.83,8.93,35.43,10.35,50.43-7,28.89-6.49,39.23,6.49,15.8,6.49,15.8" style="fill: none; stroke: rgb(255, 255, 255); stroke-linecap: round; stroke-linejoin: round; transform-origin: 114.95px 314.815px;" id="elpmpp86ml6ur" class="animable"></path></g></g><path d="M211.62,331.36s30.46,2.27,34.81,2.27,44.7-40,51.82-47.87,38-17.76,38-17.76-.39,3.27-12.26,8.73c0,0,6.11,1.9,5.93,6.46-.39,9.81-.44,10.11-7.22,8.62,0,0-4.65,5.33-14.54,2.8,0,0-23.73,29.52-34.22,43s-14.83,18-18.79,19.47-52.22,4.61-52.22,4.61Z" style="fill: rgb(255, 255, 255); stroke: rgb(38, 50, 56); stroke-linecap: round; stroke-linejoin: round; transform-origin: 269.59px 314.845px;" id="elpmkr0kvz4zm" class="animable"></path><path d="M173.27,367.25c15.8,9.89,42.3-2.37,42.3-2.37s4.75-21.52,0-35.29c0,0-33.23-6.47-51.43-.23a7.27,7.27,0,0,0-4.19,4.13" style="fill: #FFCF59; stroke: rgb(38, 50, 56); stroke-linecap: round; stroke-linejoin: round; transform-origin: 188.816px 348.875px;" id="el1hv7qwt6w9q" class="animable"></path><path d="M211.37,328.87a78.9,78.9,0,0,1,.64,33.76" style="fill: none; stroke: rgb(38, 50, 56); stroke-linecap: round; stroke-linejoin: round; transform-origin: 212.451px 345.75px;" id="el132yo9f54gdi" class="animable"></path><path d="M206.08,342.71s-11,17.94-25.06,20.58" style="fill: none; stroke: rgb(38, 50, 56); stroke-linecap: round; stroke-linejoin: round; transform-origin: 193.55px 353px;" id="el7xi7dg54g4g" class="animable"></path><path d="M195.85,370.57s-7.31,8.67-16.28,8.67" style="fill: none; stroke: rgb(38, 50, 56); stroke-linecap: round; stroke-linejoin: round; transform-origin: 187.71px 374.905px;" id="el3hnr3zvzgve" class="animable"></path><path d="M188.81,371.11a7.06,7.06,0,0,1,0,5.29h0s1.24,5.21-1.1,12.72c-1.72,5.54-1.64,21.25-2.44,32.3,0,0,2.54,13.33,2.44,33.37" style="fill: none; stroke: rgb(38, 50, 56); stroke-linecap: round; stroke-linejoin: round; transform-origin: 187.297px 412.95px;" id="el1o72mhnpgq7" class="animable"></path><path d="M171.9,327.53s13.61-.9,21.65,8.59" style="fill: none; stroke: rgb(38, 50, 56); stroke-linecap: round; stroke-linejoin: round; transform-origin: 182.725px 331.814px;" id="elkz175p8dcl" class="animable"></path><path d="M327.43,285.88s-2,3.46-4.35,4.25c0,0-.18,3.61-6.22,4.82" style="fill: none; stroke: rgb(38, 50, 56); stroke-linecap: round; stroke-linejoin: round; transform-origin: 322.145px 290.415px;" id="el1ftj2acw2fk" class="animable"></path><path d="M325.76,288.15a2.77,2.77,0,0,1,1.22,1.49" style="fill: none; stroke: rgb(38, 50, 56); stroke-linecap: round; stroke-linejoin: round; transform-origin: 326.37px 288.895px;" id="elx2mr9s0strr" class="animable"></path><path d="M128.54,430.67S142.6,449,156,442.41" style="fill: none; stroke: rgb(38, 50, 56); stroke-linecap: round; stroke-linejoin: round; transform-origin: 142.27px 437.255px;" id="elhdeqwe60cui" class="animable"></path><path d="M164.14,392.71s-9.49,29.13-30.85,27.81" style="fill: none; stroke: rgb(38, 50, 56); stroke-linecap: round; stroke-linejoin: round; transform-origin: 148.715px 406.637px;" id="elqhrayy5rz5" class="animable"></path></g><defs><clipPath id="freepik--clip-path--inject-4"><rect x="187.76" y="71.16" width="238.13" height="232.2" rx="6.95" style="fill:#fff;stroke:#263238;stroke-linecap:round;stroke-linejoin:round"></rect></clipPath><clipPath id="freepik--clip-path-2--inject-4"><path d="M279.83,285H224.64a13,13,0,0,1-13-13h0a13,13,0,0,1,13-13h55.19a13,13,0,0,1,13,13h0A13,13,0,0,1,279.83,285Z" style="fill:#92E3A9;stroke:#263238;stroke-linecap:round;stroke-linejoin:round"></path></clipPath><clipPath id="freepik--clip-path-3--inject-4"><path d="M120.78,403.37q-6.19-4.72-12.22-10c-5.81-5-11.47-10.44-16.91-16.15a194.86,194.86,0,0,1,4.9-18.91,24.76,24.76,0,0,1,11.12-13.89l.2-.12.93-.52c.58-.31,1.14-.59,1.68-.83a25.34,25.34,0,0,1,5.56-1.82L120.29,397Z" style="fill:#92E3A9;stroke:#263238;stroke-linecap:round;stroke-linejoin:round"></path></clipPath></defs><defs>     <filter id="active" height="200%">         <feMorphology in="SourceAlpha" result="DILATED" operator="dilate" radius="2"></feMorphology>                <feFlood flood-color="#32DFEC" flood-opacity="1" result="PINK"></feFlood>        <feComposite in="PINK" in2="DILATED" operator="in" result="OUTLINE"></feComposite>        <feMerge>            <feMergeNode in="OUTLINE"></feMergeNode>            <feMergeNode in="SourceGraphic"></feMergeNode>        </feMerge>    </filter>    <filter id="hover" height="200%">        <feMorphology in="SourceAlpha" result="DILATED" operator="dilate" radius="2"></feMorphology>                <feFlood flood-color="#ff0000" flood-opacity="0.5" result="PINK"></feFlood>        <feComposite in="PINK" in2="DILATED" operator="in" result="OUTLINE"></feComposite>        <feMerge>            <feMergeNode in="OUTLINE"></feMergeNode>            <feMergeNode in="SourceGraphic"></feMergeNode>        </feMerge>            <feColorMatrix type="matrix" values="0   0   0   0   0                0   1   0   0   0                0   0   0   0   0                0   0   0   1   0 "></feColorMatrix>    </filter></defs></svg>