<svg xmlns="http://www.w3.org/2000/svg" viewBox="0 0 500 500"><g id="freepik--background-complete--inject-4"><g><rect x="397.07" y="382.27" width="35.16" height="11.19" transform="translate(829.3 775.72) rotate(180)" style="fill:#ebebeb;"></rect><rect x="330.68" y="308.19" width="35.16" height="11.19" transform="translate(696.51 627.58) rotate(180)" style="fill:#ebebeb;"></rect><path d="M416.68,407.57c5.84-.1,20.81-.35,26.45-.41l8.71-.04-.46,.46-.04-11.19,.5,.5c-5.84-.02-20.73-.07-26.37-.15l-8.79-.11,.24-.24-.24,11.19h0Zm0,0l-.24-11.19v-.23h.24c4.39-.06,13.19-.16,17.58-.2l17.58-.07h.5v.5l-.05,11.19v.46h-.46l-8.87-.04c-5.6-.06-20.51-.31-26.29-.41h0Z" style="fill:#ebebeb;"></path><path d="M322,261.19c5.84-.1,20.81-.35,26.45-.41l8.71-.04-.46,.46-.04-11.19,.5,.5c-5.84-.02-20.73-.07-26.37-.15l-8.79-.11,.24-.24-.24,11.19h0Zm0,0l-.24-11.19v-.23h.24c4.39-.06,13.19-.16,17.58-.2l17.58-.07h.5v.5l-.05,11.19v.46h-.46l-8.87-.04c-5.6-.06-20.51-.31-26.29-.41h0Z" style="fill:#ebebeb;"></path><path d="M341.62,275.3c5.84-.1,20.81-.35,26.45-.41l8.71-.04-.46,.46-.04-11.19,.5,.5c-5.84-.02-20.73-.07-26.37-.15l-8.79-.11,.24-.24-.24,11.19h0Zm0,0l-.24-11.19v-.23h.24c4.39-.06,13.19-.16,17.58-.2l17.58-.07h.5v.5l-.05,11.19v.46h-.46l-8.87-.04c-5.6-.06-20.51-.31-26.29-.41h0Z" style="fill:#ebebeb;"></path><rect x="361.15" y="250" width="35.16" height="11.19" transform="translate(757.46 511.19) rotate(180)" style="fill:#ebebeb;"></rect><rect x="48.16" y="396.38" width="35.16" height="11.19" transform="translate(131.48 803.94) rotate(180)" style="fill:#ebebeb;"></rect><rect x="67.77" y="49.79" width="35.16" height="11.19" transform="translate(170.7 110.76) rotate(180)" style="fill:#ebebeb;"></rect><path d="M48.16,75.09c5.84-.1,20.81-.35,26.45-.41l8.71-.04-.46,.46-.04-11.19,.5,.5c-5.84-.02-20.73-.07-26.37-.15l-8.79-.11,.24-.24-.24,11.19h0Zm0,0l-.24-11.19v-.23h.24c4.39-.06,13.19-.16,17.58-.2l17.58-.07h.5v.5l-.05,11.19v.46h-.46l-8.87-.04c-5.6-.06-20.51-.31-26.29-.41h0Z" style="fill:#ebebeb;"></path><path d="M416.68,60.98c5.84-.1,20.81-.35,26.45-.41l8.71-.04-.46,.46-.04-11.19,.5,.5c-5.84-.02-20.73-.07-26.37-.15l-8.79-.11,.24-.24-.24,11.19h0Zm0,0l-.24-11.19v-.23h.24c4.39-.06,13.19-.16,17.58-.2l17.58-.07h.5v.5l-.05,11.19v.46h-.46l-8.87-.04c-5.6-.06-20.51-.31-26.29-.41h0Z" style="fill:#ebebeb;"></path><path d="M67.77,188.53c5.84-.1,20.81-.35,26.45-.41l8.71-.04-.46,.46-.04-11.19,.5,.5c-5.84-.02-20.73-.07-26.37-.15l-8.79-.11,.24-.24-.24,11.19h0Zm0,0l-.24-11.19v-.23h.24c4.39-.06,13.19-.16,17.58-.2l17.58-.07h.5v.5l-.05,11.19v.46h-.46l-8.87-.04c-5.6-.06-20.51-.31-26.29-.41h0Z" style="fill:#ebebeb;"></path></g><g><rect x="361.45" y="300.79" width="88.48" height="113.55" transform="translate(811.38 715.13) rotate(180)" style="fill:#ebebeb;"></rect><rect x="327.82" y="300.79" width="33.63" height="113.55" transform="translate(689.27 715.13) rotate(180)" style="fill:#c7c7c7;"></rect><polygon points="449.93 362.98 361.45 362.98 430.55 365.07 449.93 362.98" style="fill:#c7c7c7;"></polygon><polygon points="361.45 404.5 449.93 404.5 380.83 406.6 361.45 404.5" style="fill:#c7c7c7;"></polygon><polygon points="449.93 341.85 393.88 341.85 443.7 343.56 449.93 341.85" style="fill:#c7c7c7;"></polygon><polygon points="361.45 392.52 417.49 392.52 367.67 394.23 361.45 392.52" style="fill:#c7c7c7;"></polygon><polygon points="361.45 328.7 417.49 328.7 367.67 330.41 361.45 328.7" style="fill:#c7c7c7;"></polygon><polygon points="428.7 332.79 365.49 332.79 376.02 333.82 428.7 332.79" style="fill:#c7c7c7;"></polygon><polygon points="430.7 370.81 367.49 370.81 378.02 371.84 430.7 370.81" style="fill:#c7c7c7;"></polygon><polygon points="441.33 382.37 378.11 382.37 388.65 383.39 441.33 382.37" style="fill:#c7c7c7;"></polygon><polygon points="449.87 312.29 386.65 312.29 397.19 313.32 449.87 312.29" style="fill:#c7c7c7;"></polygon><polygon points="402.45 349.6 361.45 349.6 354.12 352.34 402.45 349.6" style="fill:#ebebeb;"></polygon><polygon points="392.57 385.93 351.56 385.93 344.24 388.67 392.57 385.93" style="fill:#ebebeb;"></polygon><polygon points="401.59 397.96 360.58 397.96 353.25 400.69 401.59 397.96" style="fill:#ebebeb;"></polygon><polygon points="401.59 317.63 360.58 317.63 353.25 320.37 401.59 317.63" style="fill:#ebebeb;"></polygon><polygon points="461.23 349.6 420.22 349.6 412.89 352.34 461.23 349.6" style="fill:#dbdbdb;"></polygon><polygon points="408.98 319 449.99 319 457.32 321.74 408.98 319" style="fill:#ebebeb;"></polygon><polygon points="406.39 391.15 447.4 391.15 454.73 393.89 406.39 391.15" style="fill:#ebebeb;"></polygon><polygon points="406.39 357.56 447.4 357.56 454.73 360.29 406.39 357.56" style="fill:#ebebeb;"></polygon><polygon points="408.61 395.22 449.62 395.22 456.94 397.96 408.61 395.22" style="fill:#dbdbdb;"></polygon><polygon points="361.45 385.93 328.52 385.93 321.19 388.67 361.45 385.93" style="fill:#c7c7c7;"></polygon><polygon points="349.95 373.64 324.42 373.64 327.82 371.4 349.95 373.64" style="fill:#c7c7c7;"></polygon></g><g><g><rect x="335.78" y="71.42" width="109.58" height="71.55" style="fill:#dbdbdb;"></rect><rect x="335.78" y="147.16" width="109.58" height="71.55" style="fill:#ebebeb;"></rect><g><rect x="346.62" y="160.91" width="10.65" height="10.65" style="fill:#fff;"></rect><rect x="359.49" y="160.91" width="10.65" height="10.65" style="fill:#c7c7c7;"></rect><rect x="372.37" y="160.91" width="10.65" height="10.65" style="fill:#fff;"></rect><rect x="385.24" y="160.91" width="10.65" height="10.65" style="fill:#fff;"></rect><rect x="398.11" y="160.91" width="10.65" height="10.65" style="fill:#fff;"></rect><rect x="410.99" y="160.91" width="10.65" height="10.65" style="fill:#fff;"></rect><rect x="423.86" y="160.91" width="10.65" height="10.65" style="fill:#fff;"></rect><rect x="346.62" y="173.88" width="10.65" height="10.65" style="fill:#fff;"></rect><rect x="359.49" y="173.88" width="10.65" height="10.65" style="fill:#fff;"></rect><rect x="372.37" y="173.88" width="10.65" height="10.65" style="fill:#fff;"></rect><rect x="385.24" y="173.88" width="10.65" height="10.65" style="fill:#fff;"></rect><rect x="398.11" y="173.88" width="10.65" height="10.65" style="fill:#c7c7c7;"></rect><rect x="410.99" y="173.88" width="10.65" height="10.65" style="fill:#fff;"></rect><rect x="423.86" y="173.88" width="10.65" height="10.65" style="fill:#fff;"></rect><rect x="346.62" y="186.84" width="10.65" height="10.65" style="fill:#fff;"></rect><rect x="359.49" y="186.84" width="10.65" height="10.65" style="fill:#fff;"></rect><rect x="372.37" y="186.84" width="10.65" height="10.65" style="fill:#fff;"></rect><rect x="385.24" y="186.84" width="10.65" height="10.65" style="fill:#fff;"></rect><rect x="398.11" y="186.84" width="10.65" height="10.65" style="fill:#fff;"></rect><rect x="410.99" y="186.84" width="10.65" height="10.65" style="fill:#fff;"></rect><rect x="423.86" y="186.84" width="10.65" height="10.65" style="fill:#fff;"></rect><rect x="346.62" y="199.81" width="10.65" height="10.65" style="fill:#fff;"></rect><rect x="359.49" y="199.81" width="10.65" height="10.65" style="fill:#fff;"></rect><rect x="372.37" y="199.81" width="10.65" height="10.65" style="fill:#c7c7c7;"></rect><rect x="385.24" y="199.81" width="10.65" height="10.65" style="fill:#fff;"></rect><rect x="398.11" y="199.81" width="10.65" height="10.65" style="fill:#fff;"></rect><rect x="410.99" y="199.81" width="10.65" height="10.65" style="fill:#fff;"></rect><rect x="423.86" y="199.81" width="10.65" height="10.65" style="fill:#fff;"></rect></g><g><rect x="340.07" y="139.56" width="4.16" height="11" style="fill:#c7c7c7;"></rect><rect x="349.75" y="139.56" width="4.16" height="11" style="fill:#c7c7c7;"></rect><rect x="359.44" y="139.56" width="4.16" height="11" style="fill:#c7c7c7;"></rect><rect x="369.12" y="139.56" width="4.16" height="11" style="fill:#c7c7c7;"></rect><rect x="378.8" y="139.56" width="4.16" height="11" style="fill:#c7c7c7;"></rect><rect x="388.49" y="139.56" width="4.16" height="11" style="fill:#c7c7c7;"></rect><rect x="398.17" y="139.56" width="4.16" height="11" style="fill:#c7c7c7;"></rect><rect x="407.85" y="139.56" width="4.16" height="11" style="fill:#c7c7c7;"></rect><rect x="417.54" y="139.56" width="4.16" height="11" style="fill:#c7c7c7;"></rect><rect x="427.22" y="139.56" width="4.16" height="11" style="fill:#c7c7c7;"></rect><rect x="436.9" y="139.56" width="4.16" height="11" style="fill:#c7c7c7;"></rect></g><path d="M392.32,78.74c0,.97-.78,1.75-1.75,1.75s-1.75-.78-1.75-1.75,.78-1.75,1.75-1.75,1.75,.78,1.75,1.75Z" style="fill:#263238;"></path><path d="M414.61,186.16c-16.66,7.69,1.42,14.28,10.06,8.46,4.19-3.33-1.12-6.51-4.68-6.51-1.97-.17-3.97,.12-5.93,.57,1.9-.66,3.91-1.06,5.95-1.06,2.91,.03,7.32,1.33,7.01,4.99-.75,3.36-4.71,4.38-7.58,4.95-11.13,1.83-18.6-6.7-4.82-11.4h0Z" style="fill:#a6a6a6;"></path></g><g><circle cx="117.66" cy="85.62" r="52.7" transform="translate(-5.96 162.37) rotate(-67.88)" style="fill:#ebebeb;"></circle><circle cx="120.07" cy="86.79" r="50.29" transform="translate(26.81 201.91) rotate(-86.85)" style="fill:#dbdbdb;"></circle><circle cx="120.07" cy="86.79" r="47.11" transform="translate(19.34 195.43) rotate(-83.02)" style="fill:#fff;"></circle><path d="M166.12,76.79c-21.45,13-56.71,34.32-76.42,46.01-5.53-4.67-9.96-10.58-12.87-17.31l65.18-60.41c12.14,6.39,21.14,17.93,24.11,31.71Z" style="fill:#ebebeb; opacity:.5;"></path><path d="M167.15,88.43c-.18,5.38-1.27,10.53-3.11,15.31l-58.76,27.79c-2.58-.85-5.06-1.92-7.42-3.19,17.75-10.26,50.18-28.92,69.29-39.91Z" style="fill:#ebebeb; opacity:.5;"></path><g><rect x="119.62" y="43.1" width=".91" height="7.14" style="fill:#c7c7c7;"></rect><rect x="99.56" y="48.47" width=".91" height="7.14" transform="translate(-12.62 56.97) rotate(-30)" style="fill:#c7c7c7;"></rect><rect x="84.87" y="63.16" width=".91" height="7.14" transform="translate(-15.13 107.26) rotate(-60)" style="fill:#c7c7c7;"></rect><rect x="76.38" y="86.33" width="7.14" height=".91" style="fill:#c7c7c7;"></rect><rect x="81.76" y="106.39" width="7.14" height=".91" transform="translate(-41.99 56.98) rotate(-30)" style="fill:#c7c7c7;"></rect><rect x="96.44" y="121.08" width="7.14" height=".91" transform="translate(-55.23 147.46) rotate(-60.03)" style="fill:#c7c7c7;"></rect><rect x="119.62" y="123.34" width=".91" height="7.14" style="fill:#c7c7c7;"></rect><rect x="139.68" y="117.97" width=".91" height="7.14" transform="translate(-41.99 86.35) rotate(-30)" style="fill:#c7c7c7;"></rect><rect x="154.36" y="103.28" width=".91" height="7.14" transform="translate(-15.13 187.5) rotate(-60)" style="fill:#c7c7c7;"></rect><rect x="156.62" y="86.33" width="7.14" height=".91" style="fill:#c7c7c7;"></rect><rect x="151.25" y="66.27" width="7.14" height=".91" transform="translate(-12.62 86.36) rotate(-30)" style="fill:#c7c7c7;"></rect><rect x="136.56" y="51.59" width="7.14" height=".91" transform="translate(25.05 147.44) rotate(-60.03)" style="fill:#c7c7c7;"></rect></g><g><polygon points="120.76 46.33 122.31 89.97 117.84 89.91 119.55 46.32 120.76 46.33" style="fill:#c7c7c7;"></polygon><polygon points="147.94 71.57 118.58 90.31 116.45 86.38 147.36 70.51 147.94 71.57" style="fill:#a6a6a6;"></polygon><path d="M121.6,86.79c0,.84-.68,1.53-1.53,1.53s-1.53-.68-1.53-1.53,.68-1.53,1.53-1.53,1.53,.68,1.53,1.53Z" style="fill:#c7c7c7;"></path></g></g></g><g><g><polygon points="318.87 431.11 360.04 422.42 412.35 428.68 369.4 438.02 318.87 431.11" style="fill:#dbdbdb;"></polygon><path d="M318.87,431.11s41.15-8.85,41.16-8.85c0,0,52.34,6.18,52.35,6.17l1.49,.18-1.46,.32s-42.99,9.26-43,9.27c-.03,.02-50.5-7.09-50.54-7.08h0Zm0,0s50.74,6.75,50.49,6.74l42.93-9.41,.02,.49s-52.47-6.37-52.25-6.36l-41.2,8.54h0Z" style="fill:#dbdbdb;"></path></g><g><path d="M367.76,435.6c2.53-.67,5.14-1.29,7.76-1.91,2.61-.62,5.28-1.21,7.95-1.8,2.69-.58,5.37-1.15,8.12-1.7l4.12-.82c1.4-.26,2.77-.53,4.19-.77-1.26,.34-2.56,.65-3.84,.98l-3.92,.93c-2.61,.62-5.28,1.21-7.95,1.79-2.69,.58-5.37,1.15-8.12,1.7-2.73,.55-5.48,1.09-8.31,1.59Z" style="fill:#c7c7c7;"></path><path d="M374.57,432.06c2.91-.86,6.03-1.59,9.21-2.29,3.2-.69,6.45-1.34,9.92-1.87-2.91,.86-6.03,1.59-9.21,2.29-3.2,.69-6.45,1.34-9.92,1.87Z" style="fill:#c7c7c7;"></path><path d="M355.36,434.18c2.53-.67,5.14-1.29,7.76-1.91,2.61-.62,5.28-1.21,7.95-1.8,2.69-.58,5.37-1.15,8.12-1.7l4.12-.82c1.4-.26,2.77-.53,4.19-.77-1.26,.34-2.56,.65-3.84,.98l-3.92,.93c-2.61,.62-5.28,1.21-7.95,1.79-2.69,.58-5.37,1.15-8.12,1.7-2.73,.55-5.48,1.09-8.31,1.59Z" style="fill:#c7c7c7;"></path><path d="M353.77,432.47c4.31-1.16,8.83-2.2,13.41-3.2,4.6-.99,9.25-1.95,14.11-2.78-4.31,1.16-8.83,2.2-13.41,3.2-4.6,.99-9.25,1.95-14.11,2.78Z" style="fill:#c7c7c7;"></path><path d="M359.16,429.25c2.38-.74,4.97-1.36,7.61-1.94,2.67-.57,5.39-1.11,8.32-1.52-2.38,.74-4.97,1.36-7.61,1.94-2.67,.57-5.39,1.11-8.32,1.52Z" style="fill:#c7c7c7;"></path></g></g><g><g><polygon points="109.96 448.84 167.09 439.55 222.21 453.39 165.37 463.01 109.96 448.84" style="fill:#ebebeb;"></polygon><path d="M109.96,448.84s57.13-9.46,57.14-9.46c.01-.01,55.16,13.77,55.18,13.77l1.16,.29-1.18,.2s-56.88,9.54-56.89,9.55c-.04,0-55.36-14.34-55.41-14.34h0Zm0,0s55.69,14.05,55.39,14.01l56.83-9.71-.02,.49-55.1-13.92c.32-.04-57.15,9.15-57.09,9.13h0Z" style="fill:#dbdbdb;"></path></g><path d="M164.57,460.19c3.72-.74,7.49-1.43,11.27-2.11,3.77-.69,7.58-1.34,11.39-1.99,3.82-.64,7.64-1.28,11.5-1.88l5.78-.9c1.94-.28,3.87-.58,5.83-.86-1.86,.38-3.74,.72-5.61,1.08l-5.66,1.03c-3.77,.69-7.58,1.34-11.39,1.99-3.82,.64-7.64,1.28-11.5,1.88-3.85,.61-7.71,1.21-11.62,1.76Z" style="fill:#dbdbdb;"></path><path d="M179.21,455.26c4.07-.9,8.28-1.66,12.52-2.39,4.26-.71,8.55-1.39,12.98-1.93-4.07,.9-8.28,1.66-12.52,2.39-4.26,.71-8.55,1.39-12.98,1.93Z" style="fill:#dbdbdb;"></path><path d="M158.94,456.25c3.25-.66,6.55-1.27,9.86-1.88,3.3-.61,6.64-1.18,9.98-1.75,3.35-.56,6.7-1.12,10.09-1.65l5.08-.78c1.71-.24,3.4-.51,5.13-.74-1.62,.34-3.27,.64-4.91,.96l-4.95,.91c-3.3,.61-6.64,1.18-9.98,1.75-3.35,.56-6.7,1.12-10.09,1.64-3.38,.53-6.77,1.05-10.21,1.52Z" style="fill:#dbdbdb;"></path><path d="M156.28,454.25c3-.62,6.06-1.19,9.12-1.75,3.06-.57,6.15-1.1,9.24-1.63,3.1-.52,6.21-1.04,9.34-1.52l4.71-.72c1.59-.22,3.16-.46,4.76-.67-1.5,.31-3.02,.6-4.54,.9l-4.58,.85c-3.06,.57-6.15,1.1-9.24,1.63-3.1,.52-6.21,1.04-9.35,1.52-3.13,.49-6.27,.97-9.47,1.4Z" style="fill:#dbdbdb;"></path><path d="M142.04,454.21c3.72-.74,7.49-1.43,11.27-2.11,3.77-.69,7.58-1.34,11.39-1.99,3.82-.64,7.64-1.28,11.5-1.88l5.78-.9c1.94-.28,3.87-.58,5.83-.86-1.86,.38-3.74,.72-5.61,1.08l-5.66,1.03c-3.77,.69-7.58,1.34-11.39,1.99-3.82,.64-7.64,1.28-11.5,1.88-3.85,.61-7.71,1.21-11.62,1.76Z" style="fill:#dbdbdb;"></path><path d="M141.57,451.84c3.29-.67,6.63-1.29,9.98-1.9,3.34-.62,6.72-1.19,10.1-1.77,3.39-.57,6.78-1.13,10.21-1.67l5.14-.79c1.73-.25,3.44-.51,5.19-.75-1.64,.34-3.31,.65-4.97,.97l-5.01,.92c-3.34,.61-6.72,1.19-10.1,1.77-3.39,.57-6.78,1.13-10.21,1.66-3.42,.54-6.85,1.06-10.33,1.54Z" style="fill:#dbdbdb;"></path><path d="M130.78,451.22c3.72-.74,7.49-1.43,11.27-2.11,3.77-.69,7.58-1.34,11.39-1.99,3.82-.64,7.64-1.28,11.5-1.88l5.78-.9c1.94-.28,3.87-.58,5.83-.86-1.86,.38-3.74,.72-5.61,1.08l-5.66,1.03c-3.77,.69-7.58,1.34-11.39,1.99-3.82,.64-7.64,1.28-11.5,1.88-3.85,.61-7.71,1.21-11.62,1.76Z" style="fill:#dbdbdb;"></path><path d="M143.87,446.55c4.33-.95,8.8-1.75,13.3-2.52,4.52-.76,9.06-1.48,13.75-2.06-4.33,.95-8.8,1.75-13.3,2.52-4.52,.76-9.07,1.48-13.75,2.06Z" style="fill:#dbdbdb;"></path></g><g><g><polygon points="172.14 451.15 244.74 439.34 314.79 456.93 242.56 469.15 172.14 451.15" style="fill:#ebebeb;"></polygon><path d="M172.14,451.15s72.59-11.97,72.61-11.98c.01-.01,70.08,17.52,70.1,17.52l1.16,.29-1.18,.2s-72.27,12.15-72.28,12.15c-.05,0-70.36-18.18-70.41-18.18h0Zm0,0s70.69,17.89,70.39,17.84l72.22-12.31-.02,.49-70.03-17.67c.32-.05-72.62,11.67-72.56,11.65h0Z" style="fill:#dbdbdb;"></path></g><path d="M241.54,465.57c4.73-.94,9.52-1.82,14.32-2.69,4.79-.87,9.63-1.7,14.47-2.53,4.85-.81,9.71-1.63,14.61-2.39l7.35-1.15c2.47-.36,4.92-.74,7.41-1.09-2.36,.48-4.75,.92-7.13,1.37l-7.19,1.31c-4.8,.87-9.63,1.7-14.48,2.53-4.85,.81-9.71,1.63-14.61,2.39-4.89,.77-9.8,1.54-14.76,2.24Z" style="fill:#dbdbdb;"></path><path d="M260.14,459.31c5.18-1.15,10.52-2.11,15.91-3.04,5.41-.91,10.86-1.77,16.49-2.45-5.17,1.15-10.52,2.11-15.92,3.04-5.41,.9-10.86,1.77-16.49,2.45Z" style="fill:#dbdbdb;"></path><path d="M234.38,460.56c4.13-.84,8.33-1.62,12.53-2.38,4.2-.77,8.44-1.5,12.69-2.23,4.26-.71,8.52-1.42,12.82-2.09l6.46-1c2.17-.31,4.33-.64,6.52-.94-2.06,.43-4.16,.81-6.24,1.22l-6.3,1.16c-4.2,.77-8.44,1.5-12.69,2.23-4.26,.71-8.52,1.42-12.82,2.09-4.3,.67-8.6,1.34-12.97,1.93Z" style="fill:#dbdbdb;"></path><path d="M231,458.02c3.82-.79,7.7-1.51,11.59-2.22,3.88-.72,7.81-1.39,11.74-2.07,3.94-.66,7.89-1.32,11.87-1.93l5.98-.92c2.02-.28,4.01-.59,6.04-.86-1.9,.4-3.84,.76-5.76,1.14l-5.82,1.08c-3.88,.72-7.81,1.39-11.74,2.07-3.94,.66-7.89,1.32-11.88,1.93-3.98,.62-7.97,1.23-12.03,1.77Z" style="fill:#dbdbdb;"></path><path d="M212.91,457.97c4.73-.94,9.52-1.82,14.32-2.69,4.79-.87,9.63-1.7,14.47-2.53,4.85-.81,9.71-1.63,14.61-2.39l7.35-1.15c2.47-.36,4.92-.74,7.41-1.09-2.36,.48-4.75,.92-7.13,1.38l-7.19,1.31c-4.8,.87-9.63,1.7-14.48,2.53-4.85,.81-9.71,1.63-14.61,2.39-4.89,.77-9.8,1.54-14.76,2.24Z" style="fill:#dbdbdb;"></path><path d="M212.31,454.96c4.18-.85,8.43-1.63,12.68-2.41,4.25-.78,8.54-1.52,12.84-2.25,4.31-.72,8.62-1.44,12.97-2.12l6.53-1.01c2.2-.32,4.38-.65,6.59-.95-2.09,.43-4.21,.82-6.31,1.24l-6.37,1.17c-4.25,.78-8.54,1.52-12.84,2.25-4.31,.72-8.62,1.44-12.97,2.12-4.35,.68-8.7,1.35-13.12,1.96Z" style="fill:#dbdbdb;"></path><path d="M198.6,454.17c4.73-.94,9.52-1.82,14.32-2.69,4.79-.87,9.63-1.7,14.47-2.53,4.85-.81,9.71-1.63,14.61-2.39l7.35-1.15c2.47-.36,4.92-.74,7.41-1.09-2.36,.48-4.75,.92-7.13,1.37l-7.19,1.31c-4.8,.87-9.63,1.7-14.48,2.53-4.85,.81-9.71,1.63-14.61,2.39-4.89,.77-9.8,1.54-14.76,2.24Z" style="fill:#dbdbdb;"></path><path d="M215.23,448.24c5.5-1.2,11.18-2.22,16.9-3.2,5.74-.96,11.52-1.88,17.48-2.62-5.5,1.2-11.18,2.23-16.9,3.2-5.74,.96-11.52,1.88-17.48,2.62Z" style="fill:#dbdbdb;"></path></g></g><g id="freepik--Table--inject-4"><path d="M27.39,414.34c147-.61,311.91-.62,458.91,0-147,.62-311.91,.61-458.91,0h0Z" style="fill:#263238;"></path></g><g id="freepik--Book_2--inject-4"><g><g><polygon points="126.06 431.49 126.25 429.13 297.13 421.95 374.57 444.23 374.38 446.59 206.42 463.53 126.06 431.49" style="fill:#3F51B5;"></polygon><polygon points="126.06 431.49 126.25 429.13 297.13 421.95 374.57 444.23 374.38 446.59 206.42 463.53 126.06 431.49" style="opacity:.1;"></polygon></g><polygon points="126.25 429.13 297.46 417.77 374.57 444.23 206.61 461.17 126.25 429.13" style="fill:#3F51B5;"></polygon><g><g><path d="M136.93,427.62l73.58,29.42,157.4-15.82-74.56-25.39s-46.73,.03-48.92,.23c-2.19,.2-23.03,3.14-23.03,3.14,0,0-28.96,.63-30.94,.83-1.98,.2-53.53,7.58-53.53,7.58Z" style="fill:#fff;"></path><path d="M136.93,427.62l73.61,29.34c-.2,0,157.38-15.98,157.34-15.99l-.06,.49s-74.71-25.52-74.48-25.46c-6.83,0-39.05,.03-45.1,.1-1.35,.06-3.18-.05-4.49,.17l-4.47,.6-17.87,2.42c-3.8,.09-23.16,.52-26.57,.63-1.44,.08-3.86,.04-5.3,.3-7.1,.99-44.77,6.29-52.62,7.39h0Zm0,0c8.12-1.17,45.43-6.47,52.6-7.51,1.43-.27,3.81-.23,5.31-.31,3.22-.11,22.9-.6,26.55-.69l17.88-2.46,4.47-.61c1.29-.23,3.19-.12,4.51-.18,5.89-.08,38.52-.17,45.1-.2,.07-.01,74.58,25.31,74.64,25.32l1.09,.37-1.15,.11s-157.44,15.67-157.45,15.65l-73.55-29.5h0Z" style="fill:#ebebeb;"></path></g><g><path d="M221.4,419.2c5.78,2.55,11.59,5.07,17.44,7.57l17.62,7.46,17.77,7.36c5.94,2.44,11.93,4.85,17.94,7.25-5.78-2.55-11.59-5.07-17.44-7.57l-17.62-7.46-17.77-7.36c-5.94-2.44-11.93-4.85-17.94-7.25Z" style="fill:#dbdbdb;"></path><path d="M153.59,428.49c5.61-.73,11.19-1.48,16.76-2.26l16.68-2.37,4.16-.6c.69-.09,1.4-.2,2.06-.27,.7-.06,1.45-.08,2.17-.12l8.72-.45c5.81-.31,11.61-.67,17.4-1.05-5.87,.17-11.73,.38-17.59,.62l-8.77,.38c-.73,.04-1.46,.05-2.2,.11-.76,.08-1.44,.18-2.15,.26l-4.19,.57c-5.54,.82-11.09,1.63-16.6,2.49-5.51,.85-11,1.75-16.46,2.68Z" style="fill:#dbdbdb;"></path><path d="M158.72,430.4c5.61-.73,11.19-1.48,16.76-2.26l16.68-2.37,4.16-.6c.69-.09,1.4-.2,2.06-.27,.7-.06,1.45-.08,2.17-.12l8.72-.46c5.81-.31,11.61-.67,17.4-1.05-5.87,.17-11.73,.38-17.59,.62l-8.77,.38c-.73,.04-1.46,.05-2.2,.11-.76,.08-1.44,.18-2.15,.27l-4.19,.58c-5.54,.82-11.09,1.63-16.6,2.49-5.51,.85-11,1.75-16.46,2.68Z" style="fill:#dbdbdb;"></path><path d="M163.86,432.3c5.48-.71,10.94-1.44,16.38-2.21l16.3-2.31,4.07-.58c1.39-.18,2.66-.42,4.06-.47l8.52-.46c5.69-.31,11.36-.64,17.03-1-5.74,.15-11.47,.34-17.19,.57-2.86,.1-5.71,.24-8.57,.39-1.47,.05-2.87,.3-4.22,.46l-4.09,.57c-5.41,.8-10.84,1.6-16.22,2.44-5.39,.84-10.75,1.71-16.08,2.62Z" style="fill:#dbdbdb;"></path><path d="M169,434.21c5.4-.7,10.78-1.42,16.15-2.18l16.07-2.28c2.67-.36,5.37-.82,8-1.08l8.38-.46c5.6-.31,11.2-.63,16.78-1-5.66,.14-11.31,.33-16.94,.55-2.82,.11-5.62,.24-8.45,.39-2.86,.28-5.45,.69-8.16,1.06-5.34,.79-10.68,1.57-15.98,2.41-5.31,.82-10.59,1.69-15.85,2.58Z" style="fill:#dbdbdb;"></path><path d="M174.14,436.12c5.38-.7,10.75-1.42,16.09-2.17l16.01-2.27c2.66-.36,5.35-.81,7.97-1.09,2.75-.18,5.57-.3,8.35-.46,5.58-.31,11.16-.63,16.72-1-5.64,.14-11.27,.33-16.88,.55-2.81,.11-5.6,.24-8.42,.4-2.84,.29-5.43,.69-8.12,1.07-5.32,.79-10.64,1.57-15.92,2.4-5.29,.82-10.55,1.69-15.79,2.57Z" style="fill:#dbdbdb;"></path><path d="M179.28,438.03c5.36-.7,10.71-1.41,16.04-2.16l15.96-2.26c2.65-.36,5.33-.8,7.94-1.1,2.73-.18,5.55-.3,8.32-.46,5.56-.31,11.12-.63,16.67-.99-5.62,.14-11.23,.32-16.83,.55-2.81,.11-5.58,.24-8.4,.4-2.81,.31-5.4,.7-8.08,1.08-5.3,.79-10.61,1.56-15.87,2.39-5.28,.82-10.52,1.68-15.74,2.57Z" style="fill:#dbdbdb;"></path><path d="M184.41,439.93c5.29-.69,10.57-1.39,15.83-2.13l15.75-2.23c2.62-.36,5.25-.78,7.85-1.1,2.62-.23,5.45-.32,8.17-.48,5.49-.31,10.98-.63,16.45-.99-5.55,.13-11.09,.32-16.61,.53-2.77,.13-5.49,.21-8.3,.43-2.72,.33-5.31,.7-7.94,1.08-5.23,.78-10.47,1.54-15.66,2.37-5.21,.81-10.38,1.66-15.54,2.53Z" style="fill:#dbdbdb;"></path><path d="M189.55,441.84c5.29-.69,10.57-1.39,15.83-2.13l15.75-2.23c2.62-.36,5.25-.78,7.85-1.1,2.62-.23,5.45-.32,8.17-.48,5.49-.31,10.98-.63,16.45-.99-5.55,.13-11.09,.32-16.61,.53-2.77,.13-5.49,.21-8.3,.43-2.72,.33-5.31,.7-7.94,1.08-5.23,.78-10.47,1.54-15.66,2.37-5.21,.81-10.38,1.66-15.54,2.53Z" style="fill:#dbdbdb;"></path><path d="M193.78,443.93c5.37-.71,10.72-1.43,16.05-2.18l15.98-2.28,7.97-1.13c2.61-.26,5.51-.34,8.27-.51,5.57-.31,11.14-.64,16.7-1-5.63,.14-11.25,.32-16.86,.54-2.81,.14-5.57,.2-8.43,.46-2.71,.35-5.37,.72-8.03,1.12-5.3,.8-10.62,1.57-15.89,2.42-5.28,.82-10.53,1.69-15.76,2.58Z" style="fill:#dbdbdb;"></path><path d="M198.92,445.89c5.35-.71,10.69-1.44,16-2.2l15.92-2.3,7.95-1.14c2.59-.28,5.49-.35,8.24-.52,5.56-.31,11.11-.64,16.66-1-5.62,.13-11.23,.32-16.82,.54-2.81,.15-5.56,.19-8.41,.47-2.69,.36-5.35,.72-8,1.13-5.28,.8-10.58,1.58-15.83,2.43-5.26,.83-10.49,1.7-15.71,2.6Z" style="fill:#dbdbdb;"></path><path d="M204.07,447.99c5.18-.72,10.36-1.44,15.51-2.21,5.17-.74,10.28-1.55,15.43-2.3l7.71-1.15c1.3-.21,2.49-.33,3.89-.39l4.05-.22c5.4-.31,10.8-.63,16.19-.99-5.47,.12-10.92,.3-16.36,.52l-4.07,.19c-.68,.04-1.36,.06-2.05,.13-.71,.07-1.34,.17-2,.26-2.6,.36-5.17,.74-7.74,1.14-5.12,.8-10.26,1.58-15.34,2.44-5.1,.83-10.16,1.7-15.22,2.59Z" style="fill:#dbdbdb;"></path><path d="M209.2,449.78c5.26-.61,10.52-1.23,15.75-1.89,5.25-.63,10.45-1.34,15.68-1.99,2.61-.31,5.24-.69,7.81-.96l8.03-.66c5.34-.47,10.68-.95,15.99-1.49-5.42,.3-10.82,.65-16.21,1.02l-8.06,.6c-2.73,.27-5.29,.62-7.91,.96-5.2,.7-10.43,1.37-15.6,2.13-5.19,.72-10.34,1.5-15.49,2.28Z" style="fill:#dbdbdb;"></path><path d="M286.3,442.1c5.01-.54,9.95-1.16,14.87-1.81l3.7-.46c1.22-.17,2.42-.26,3.72-.35l7.63-.55,15.24-1.14c5.08-.38,10.14-.82,15.21-1.22-5.11,.3-10.24,.57-15.35,.9l-15.31,.98-7.64,.51c-1.25,.08-2.6,.17-3.84,.33-1.25,.15-2.47,.33-3.7,.5-4.92,.68-9.76,1.45-14.53,2.32Z" style="fill:#dbdbdb;"></path><path d="M281.36,439.76c4.91-.4,9.79-.85,14.63-1.37,2.43-.23,4.85-.52,7.25-.71l7.37-.56,14.73-1.16c4.91-.38,9.79-.83,14.69-1.24-4.94,.31-9.9,.58-14.83,.92l-14.8,1c-4.89,.36-9.93,.63-14.71,1.25-4.83,.54-9.6,1.17-14.33,1.87Z" style="fill:#dbdbdb;"></path><path d="M276.57,437.64c4.88-.39,9.73-.83,14.53-1.34l7.21-.72,7.35-.45,14.72-.93c4.91-.31,9.79-.68,14.68-1.02-4.94,.23-9.89,.42-14.82,.68l-14.79,.77-7.39,.42c-2.47,.2-4.84,.49-7.24,.76-4.8,.53-9.54,1.16-14.24,1.84Z" style="fill:#dbdbdb;"></path><path d="M272.47,436.04c4.84-.53,9.55-1.24,14.29-1.87,1.22-.14,2.3-.34,3.54-.37l3.72-.18,7.45-.34c9.93-.46,19.84-.95,29.75-1.49-9.99,.29-19.96,.62-29.91,1.01l-7.46,.31-3.73,.16c-1.26,.04-2.55,.2-3.71,.37-4.74,.69-9.4,1.46-13.92,2.4Z" style="fill:#dbdbdb;"></path><path d="M267.98,434.12c4.84-.53,9.55-1.24,14.29-1.87,1.22-.14,2.3-.34,3.54-.37l3.72-.18,7.45-.34c9.93-.46,19.84-.95,29.75-1.49-9.99,.29-19.96,.62-29.91,1.01l-7.46,.31-3.73,.16c-1.26,.04-2.55,.2-3.71,.37-4.74,.69-9.4,1.46-13.92,2.4Z" style="fill:#dbdbdb;"></path><path d="M263.49,432.2c4.84-.53,9.55-1.24,14.29-1.87,1.22-.14,2.3-.34,3.54-.37l3.72-.18,7.45-.34c9.93-.46,19.84-.95,29.75-1.49-9.99,.29-19.96,.62-29.91,1.01l-7.46,.31-3.73,.16c-1.26,.04-2.55,.2-3.72,.37-4.74,.69-9.4,1.46-13.92,2.4Z" style="fill:#dbdbdb;"></path><path d="M259,430.28c4.84-.53,9.55-1.24,14.29-1.87,1.22-.14,2.3-.34,3.54-.37l3.72-.18,7.45-.34c9.93-.46,19.85-.95,29.75-1.49-9.99,.29-19.96,.62-29.91,1.01l-7.46,.31-3.73,.16c-1.26,.04-2.55,.2-3.71,.37-4.74,.69-9.4,1.46-13.92,2.4Z" style="fill:#dbdbdb;"></path><path d="M253.15,428.59c4.84-.53,9.55-1.24,14.29-1.87,1.22-.14,2.3-.34,3.54-.37l3.72-.18,7.45-.34c9.93-.46,19.84-.95,29.75-1.49-9.99,.29-19.96,.62-29.91,1.01l-7.46,.31-3.73,.16c-1.26,.04-2.55,.2-3.71,.37-4.74,.69-9.4,1.46-13.92,2.4Z" style="fill:#dbdbdb;"></path><path d="M247.46,426.92c4.84-.53,9.55-1.24,14.29-1.87,1.22-.14,2.3-.34,3.54-.37l3.72-.18,7.45-.34c9.93-.46,19.84-.95,29.75-1.49-9.99,.29-19.96,.62-29.91,1.01l-7.46,.31-3.73,.16c-1.26,.04-2.55,.2-3.72,.37-4.74,.69-9.4,1.46-13.92,2.4Z" style="fill:#dbdbdb;"></path><path d="M242.97,425c4.83-.53,9.53-1.24,14.26-1.87,1.21-.14,2.3-.35,3.53-.37l3.72-.15,7.46-.27c9.94-.37,19.88-.77,29.8-1.21-10,.19-19.98,.43-29.94,.73l-7.47,.24-3.74,.13c-1.28,.03-2.55,.2-3.72,.36-4.73,.69-9.38,1.46-13.9,2.4Z" style="fill:#dbdbdb;"></path><path d="M238.48,423.08c4.82-.53,9.52-1.24,14.24-1.86,1.21-.14,2.31-.35,3.52-.37l3.72-.12,7.47-.2c9.95-.27,19.91-.55,29.85-.89-10,.08-20,.22-29.97,.41l-7.48,.17-3.74,.1c-1.3,.02-2.55,.2-3.72,.36-4.72,.69-9.37,1.45-13.87,2.4Z" style="fill:#dbdbdb;"></path><path d="M233.99,421.16c4.81-.53,9.5-1.23,14.21-1.86,1.2-.13,2.31-.36,3.5-.36l3.72-.06,7.48-.07c9.98-.1,19.95-.21,29.92-.36-10.02-.1-20.02-.14-30.02-.12l-7.49,.04-3.75,.05c-1.33,.01-2.55,.2-3.72,.36-4.71,.68-9.35,1.45-13.85,2.39Z" style="fill:#dbdbdb;"></path><path d="M214.38,452.38c5.37-.54,10.72-1.09,16.06-1.68l15.98-1.79c2.66-.29,5.33-.63,7.96-.9l8.08-.75c5.38-.52,10.74-1.07,16.08-1.66-5.45,.36-10.88,.77-16.3,1.2l-8.11,.68c-2.73,.27-5.37,.56-8.04,.88-5.31,.64-10.63,1.25-15.91,1.93-5.29,.66-10.56,1.36-15.81,2.08Z" style="fill:#dbdbdb;"></path><path d="M289.94,444.33c5.42-.48,10.83-.97,16.21-1.5l16.14-1.62,8.04-.81,8.15-.66c5.43-.46,10.84-.95,16.23-1.48-5.5,.3-10.97,.65-16.43,1.03l-8.18,.6c-2.76,.24-5.42,.51-8.11,.79-5.36,.58-10.73,1.13-16.07,1.75-5.35,.6-10.67,1.25-15.98,1.91Z" style="fill:#dbdbdb;"></path></g><path d="M367.9,441.22l2.74,1.88-76.53,7.75-86.53,8.66-73.16-29.14,2.5-2.75,73.58,29.42s35.71-3.8,43.63-5.1c7.91-1.3,22.26-4.51,38.03-3.11,0,0,18.05-2.62,26.59-3.95s49.15-3.66,49.15-3.66Z" style="fill:#ebebeb;"></path></g></g></g><g id="freepik--Character--inject-4"><g><g><g><path d="M191.04,163.21c-1.49,.39-2.9,1.05-4.14,1.99-5.6,4.26-7.11,11.63-7.17,18.24-.04,7.08,1.55,14.66-.86,21.49-.94,2.67-2.56,5.2-5.07,6.6-2.84,1.57-6.05,1.08-8.97,.05-3.08-1.07-6.5-3.02-9.86-1.97-2.79,.86-4.6,3.55-5.46,6.21-2.24,6.9,1.78,14.16,2.37,21.04,.65,7.36-.97,14.79-4.6,21.24-3.38,6.02-8.63,10.9-14.75,14.06-2.98,1.54-6.22,2.7-9.51,3.33-3.7,.69-7.48,.57-11.2,1.09-3.45,.5-7.25,1.74-9.27,4.78-1.57,2.35-1.94,12.77,5.41,23.2,.53,.75-.86,1.65-1.66,1.08-1.57-1.06-3.06-2.21-4.48-3.45-11.83-10.3-18.18-25.94-16.66-41.58,.82-8.36,3.77-16.32,8.39-23.29,2.57-3.86,5.5-7.56,7.4-11.82,1.69-3.8,2.17-7.86,1.95-11.98-.45-7.85-2.77-15.48-1.86-23.4,.83-7.06,3.62-13.8,7.7-19.6,8.57-12.11,22.2-19.58,36.89-20.99,14.48-1.38,46.22,13.45,45.4,13.68Z" style="fill:#263238;"></path><path d="M190.57,163.34c-2.82,1.12-5.59,2.55-7.66,4.82-1.86,2.05-3.05,4.63-3.69,7.31-1.45,6.03-.33,12.08,.59,18.09,.86,5.65,1.48,11.67-1.14,16.97-1.11,2.24-2.76,4.35-4.92,5.65-2.45,1.48-5.24,1.58-7.98,.95-4.99-1.16-10.92-4.21-15.67-.64-4.59,3.44-3.89,10.35-3.43,15.36,1.13,12.2,4.4,27.86-6.03,37.2-5.28,4.73-12.71,7.41-19.5,9.04-4.9,1.17-11.11,2.62-13.51,7.58-.09,.18,.21,.28,.3,.1,2.62-5.21,9.1-5.58,14.16-6.57,5.93-1.16,11.97-3.25,17.04-6.59,5.23-3.44,8.49-8.62,9.89-14.68,1.43-6.16,1.02-12.46,.3-18.68-.37-3.19-.81-6.37-1.08-9.57-.25-2.88-.38-5.94,.66-8.69,1.1-2.94,3.66-4.51,6.76-4.49,3.04,.02,5.84,1.2,8.73,1.95,2.59,.67,5.26,.98,7.84,.13,2.07-.68,3.88-1.97,5.33-3.57,3.34-3.68,4.73-8.64,4.7-13.53-.04-6.94-2.38-13.65-2.3-20.59,.04-3.54,.66-7.23,2.56-10.28,2-3.2,5.16-4.85,8.38-6.58,.43-.23,.12-.86-.33-.68Z" style="fill:#263238;"></path><path d="M140.36,145.76c-14.82,1.15-27.5,11.41-33.61,24.64-3.43,7.42-4.74,15.57-4.41,23.7,.31,7.59,1.67,15.3,.32,22.86-1.49,8.37-7.29,14.43-12.02,21.12-3.83,5.43-6.44,11.55-7.66,18.09-2.34,12.53,.45,25.96,7.74,36.44,.93,1.33,1.91,2.62,2.97,3.86,.13,.16,.37-.05,.24-.21-8.24-9.83-11.46-23.27-9.84-35.88,.8-6.21,2.79-12.25,6-17.64,3.96-6.65,9.84-12.06,12.92-19.25,2.89-6.74,2.49-14.26,1.89-21.4-.65-7.8-1.25-15.5,.73-23.17,3.68-14.25,14.45-26.42,28.87-30.3,16.09-4.32,32.12,2.29,45.98,10.07,1.85,1.04,3.7,2.09,5.54,3.15,.21,.12,.42-.18,.22-.31-13.7-8.61-29.12-17.08-45.87-15.78Z" style="fill:#263238;"></path></g><path d="M193.21,154.65c-2.32-.97-5.99-.44-6.99,.92-1,1.36-.5,14.47,2.01,16.55,2.52,2.08,6.99-1.95,6.99-1.95l-2.01-15.52Z" style="fill:#3F51B5;"></path></g><g><path d="M218.52,241.57c42.81,51.35,85.8,109.31,83.84,127.54-4.65,43.33-32.08,40.01-36.3,38.93-28.81-7.38-67.88-100.44-78.81-148.55-9.75-42.93,7.34-46.62,31.27-17.92Z" style="fill:#3F51B5;"></path><g><g><path d="M260.76,294.8l-55.2,21.5c-3.68-9.26-7.01-18.46-9.9-27.21l46.71-18.19c6.38,8.08,12.57,16.1,18.39,23.9Z" style="fill:#3F51B5;"></path><path d="M260.76,294.8l-55.2,21.5c-3.68-9.26-7.01-18.46-9.9-27.21l46.71-18.19c6.38,8.08,12.57,16.1,18.39,23.9Z" style="fill:#fff; opacity:.5;"></path></g><g><path d="M272.52,310.99l-59.48,23.16c-1.23-2.76-2.43-5.55-3.6-8.35l57.62-22.44c1.87,2.58,3.7,5.13,5.46,7.63Z" style="fill:#3F51B5;"></path><path d="M272.52,310.99l-59.48,23.16c-1.23-2.76-2.43-5.55-3.6-8.35l57.62-22.44c1.87,2.58,3.7,5.13,5.46,7.63Z" style="fill:#fff; opacity:.5;"></path></g></g><path d="M302.36,369.12c-4.65,43.33-32.08,40.01-36.31,38.93-28.81-7.39-67.88-100.43-78.8-148.55-6.58-28.97-.94-40.07,10.78-35.42l93.76,116.63c7.18,12.55,11.21,22.53,10.58,28.4Z" style="opacity:.1;"></path></g><g><path d="M250.65,414.24l-9.1-57.23s13.18-22.6,9.56-38.12c-3.13-13.42-34.56-82.52-56.05-97.76-17.65-12.51-43.45-4.1-54.6,11.51-18.21,25.49-47.17,84.99-60.23,181.65l170.43-.05Z" style="fill:#3F51B5;"></path><g><g><path d="M241.68,294.72H109.18c4.06-10.82,8.2-20.46,12.26-28.94h105.91c5.39,9.95,10.34,20.1,14.33,28.94Z" style="fill:#3F51B5;"></path><path d="M241.68,294.72H109.18c4.06-10.82,8.2-20.46,12.26-28.94h105.91c5.39,9.95,10.34,20.1,14.33,28.94Z" style="fill:#fff; opacity:.5;"></path></g><g><path d="M249.63,314.07H102.42c1.01-3.11,2.03-6.15,3.05-9.1H246.11c1.45,3.51,2.64,6.59,3.52,9.1Z" style="fill:#3F51B5;"></path><path d="M249.63,314.07H102.42c1.01-3.11,2.03-6.15,3.05-9.1H246.11c1.45,3.51,2.64,6.59,3.52,9.1Z" style="fill:#fff; opacity:.5;"></path></g></g><g><path d="M211.91,342.58c-9.11,1.12-18.25,2.56-27.11,5.01-4.41,1.22-8.73,2.64-13.04,4.16-2.15,.76-4.31,1.44-6.49,2.11-2.23,.69-4.63,1.34-6.98,1.46-.21,.01-.2,.33,.01,.33,2.29,.02,4.47,.03,6.75-.26,2.16-.27,4.31-.78,6.41-1.34,4.48-1.2,8.91-2.6,13.38-3.85,9.02-2.51,18.03-5.02,27.21-6.87,.42-.09,.3-.81-.13-.75Z" style="fill:#263238;"></path><path d="M234.71,350.24c-7.52-.62-15.19-.88-22.74-.64-3.8,.12-7.56,.46-11.33,.9-1.8,.21-3.6,.45-5.39,.72-1.97,.29-3.91,.85-5.89,1.11-.21,.03-.2,.35,.01,.33,1.87-.19,3.78-.07,5.66-.16,1.89-.08,3.78-.18,5.67-.26,3.78-.17,7.56-.29,11.35-.5,7.57-.41,15.11-.74,22.69-.88,.41,0,.37-.59-.02-.62Z" style="fill:#263238;"></path></g></g><g><path d="M136.9,236.04c-45.37,48-94.03,142.67-82.73,162.49,12.59,22.07,75.76-45.2,75.43-49.05-.25-2.9,13.62-58,29.92-102.05,16.29-44.01-11.4-23.25-22.62-11.38Z" style="fill:#f7a9a0;"></path><g><g><path d="M130.03,349.55c1.84-6.46,23.49-80.88,31.79-106.11,7.45-22.65,3.09-31.79-15.3-17.45-33.86,26.39-86.3,103.54-98.05,144.48-11.33,39.44,14.79,39.43,41.02,20.81,21.48-15.25,40.54-41.73,40.54-41.73Z" style="fill:#3F51B5;"></path><g><g><path d="M150.36,280.51c-2.75,9.18-5.61,18.79-8.28,27.83l-55.52-11.64c5.87-8.82,12.06-17.51,18.32-25.73l45.48,9.54Z" style="fill:#3F51B5;"></path><path d="M150.36,280.51c-2.75,9.18-5.61,18.79-8.28,27.83l-55.52-11.64c5.87-8.82,12.06-17.51,18.32-25.73l45.48,9.54Z" style="fill:#fff; opacity:.5;"></path></g><g><path d="M139.17,318.21c-.9,3.06-1.76,5.99-2.57,8.76l-61.12-12.83c1.65-2.73,3.35-5.48,5.09-8.22l58.6,12.29Z" style="fill:#3F51B5;"></path><path d="M139.17,318.21c-.9,3.06-1.76,5.99-2.57,8.76l-61.12-12.83c1.65-2.73,3.35-5.48,5.09-8.22l58.6,12.29Z" style="fill:#fff; opacity:.5;"></path></g></g></g><g><path d="M126.14,360.73c7.93-30.8,17.18-61.25,27.75-91.25-7.92,30.8-17.19,61.25-27.75,91.25h0Z" style="fill:#263238;"></path><path d="M148.83,287.23c1.48-3.97,3.62-7.53,6.07-10.97-1.2,4.04-3.41,7.7-6.07,10.97h0Z" style="fill:#263238;"></path></g></g></g><g><g><path d="M170.27,222.81c-.49,3.38,10.51,26.49,24.94,31.37,4.7,1.58,10.42-20.89,10.42-20.89l1.15-1.7,16.07-23.82-22.98-31.68-3.41-4.34s-3.97,6.81-8.82,15.33c-.23,.39-.45,.79-.69,1.21-.29,.47-.56,.92-.81,1.38-.74,1.26-1.49,2.56-2.21,3.86-.55,.99-1.1,1.95-1.64,3.01-.57,1.05-1.1,2.08-1.68,3.13-5.42,10.48-10.1,21.7-10.33,23.13Z" style="fill:#eb9481;"></path><path d="M187.64,187.08c-.65,23.7,12.64,38.67,19.15,44.5l16.07-23.82-22.98-31.68-3.41-4.34s-3.97,6.81-8.82,15.33Z" style="fill:#263238;"></path></g><g><path d="M275.21,188.2c-17.4,47.32-47.73,42.24-57.94,38.48-9.27-3.41-40.38-16.22-27.97-65.08,12.42-48.86,39.94-55.73,61.54-49.04,21.61,6.69,41.77,28.32,24.36,75.64Z" style="fill:#eb9481;"></path><g><path d="M189.37,168.38c12.17-.4,17.19-10.8,17.19-10.8,14.88,.05,25.89-6.8,27.02-7.48-.72,.81-5.87,6.66-8.59,9.56,31.37,7.11,49.94-11.22,49.94-11.22,5.36,13.46,4.64,20.28,4.71,23.87,0,0,7.9-17.72,3.89-33.59-4.9-19.44-21.39-23.27-21.39-23.27,0,0-19.65-16.45-45.39-4.97-27.72,12.4-27.39,57.91-27.39,57.91Z" style="fill:#263238;"></path><path d="M249.13,164.39c-5.75,.61-11.65,.14-17.25-.96-.05,0-.03-.08,.02-.07,9.18,1.22,18.37,.1,26.87-3.68,3.59-1.6,6.96-3.61,10.04-6.05,3.23-2.55,6.68-5.75,8.64-9.4,.15-.28,.58-.05,.43,.23-2.07,3.86-4.01,7.41-7.24,10.44-3.07,2.88-6.7,5.23-10.6,6.83-3.49,1.42-7.16,2.27-10.91,2.66" style="fill:#263238;"></path><path d="M262.15,115.44c-12.99-11.21-32.8-13.12-47.59-4.45-7.3,4.34-12.57,11.39-16.34,18.92-3.78,7.69-6.32,16-7.75,24.46,.67-8.61,2.75-17.17,6.35-25.13,3.61-7.97,9.1-15.38,16.71-19.97,15.26-9,36.29-6.64,48.61,6.16h0Z" style="fill:#263238;"></path><path d="M264.39,116.18c15.42,3.33,23.79,18.3,22.65,33.39-.24,4.86-1.26,9.62-2.79,14.17,1.45-9.3,2.16-19.04-.94-28-2.97-8.96-10.09-16.11-18.91-19.56h0Z" style="fill:#263238;"></path></g><g><path d="M195.49,168s-3.28-18.92-11.42-18.4c-8.14,.52-10.34,24.68-4.07,31.07,6.27,6.39,12.3,.7,12.3,.7l3.19-13.37Z" style="fill:#eb9481;"></path><path d="M183.62,156.54c-.12-.07-.22,.09-.14,.18,4.31,4.65,4.8,10.9,4.36,16.94-.66-2.71-2.31-4.8-5.83-4.16-.19,.03-.15,.31,.01,.35,2.4,.56,3.8,1.67,4.45,4.11,.46,1.73,.44,3.62,.52,5.4,.03,.59,1,.74,1.08,.11,0-.05,0-.1,.01-.14,3.32-6.72,2.5-18.69-4.47-22.79Z" style="fill:#263238;"></path></g><g><path d="M236.9,175.14c-5.89-3.48-12.42,8.56-6.96,11.79,5.37,3.17,11.9-8.87,6.96-11.79Z" style="opacity:.1;"></path><path d="M262.91,185.56c-5.37-2.23-10.23,10.58-5.25,12.64,4.9,2.03,9.75-10.77,5.25-12.64Z" style="opacity:.1;"></path><path d="M271.79,174.75c-.74-.94-1.59-1.68-2.42-2.53-.94-.96-1.59-1.83-2.96-2.11-.74-.16-1.65,.46-1.87,1.16-.51,1.63,.35,3.1,1.43,4.3,1.17,1.31,2.41,2.01,4.15,2.29,1.68,.26,2.65-1.86,1.67-3.1Z" style="fill:#263238;"></path><path d="M234.37,167.26c1.18-.23,2.3-.24,3.49-.35,1.34-.12,2.39-.35,3.62,.32,.66,.36,.95,1.43,.66,2.1-.68,1.57-2.28,2.12-3.89,2.33-1.74,.23-3.14-.04-4.64-.97-1.45-.89-.8-3.14,.75-3.44Z" style="fill:#263238;"></path><path d="M221,204.34c.34,1.11,.53,2.48,1.58,3.17,1.01,.66,2.5,.86,3.68,1.01,.12,.02,.16,.17,.05,.23-1.42,.73-3.48,.56-4.75-.45-1.24-.99-1.27-2.54-.92-3.98,.05-.2,.32-.14,.37,.02Z" style="fill:#263238;"></path><path d="M230.51,200.89c6.05,.82,9.05,2.87,12.22,4.5,.39,.08,1.32,.12,1.51-.2v-.02c.05-.12,2.3-6.87,2.3-6.87,.73,.78,4.54,4.5,4.93,3.2,3.26-10.82,6.88-22.84,7.84-34.29,.05-.38-.51-.49-.61-.13-3.54,10.27-5.25,21.1-8.65,31.47-1.25-1.09-3.25-2.98-4.54-3.43-.38-.03-2.05,7.4-2.58,8.45,0,0-4.84-3.9-12.62-3.42-1.73,.11-2.03,.44,.18,.75Z" style="fill:#263238;"></path><g><path d="M234.62,207.54c1.68,.23,6.78-4.36,4.53-5.94-2.25-1.59-8.68-2.88-12.57-.29-3.41,2.28,4.93,3.54,5.85,4.6,.76,.89,.99,1.47,2.2,1.63Z" style="fill:#263238;"></path><path d="M232.43,205.92c.17,.21,.29,.38,.43,.52,1.01-1.8,.74-4.68-2.57-6.48-1.34,.19-2.63,.6-3.71,1.33-3.39,2.29,4.94,3.56,5.85,4.63Z" style="fill:#ff9abb;"></path></g><g><g><path d="M238.72,179.51c.03-.13-.32,.05-.37,.18-1.24,3.29-3.21,6.86-6.59,6.72-.11,0-.16,.16-.05,.19,3.8,.97,6.37-3.78,7.01-7.1Z" style="fill:#263238;"></path><path d="M237.22,174.92c-5.06-2.55-9.8,7.76-5.1,10.13,4.62,2.33,9.35-7.99,5.1-10.13Z" style="fill:#263238;"></path></g><path d="M234.94,174.53c-1.17,.17-2.52,.8-3.66,.4-1.31-.45-1.77-1.97-2.11-3.38-.04-.15-.17-.1-.23,.04-.94,1.96-1.11,4.34,.88,5.61,1.81,1.16,4,.04,5.41-1.72,.26-.33,.19-1.02-.28-.95Z" style="fill:#263238;"></path></g><g><g><path d="M258.05,186.67c.08-.11,.18,.27,.11,.4-1.59,3.14-2.89,7-.5,9.4,.07,.07,0,.23-.11,.17-3.28-2.14-1.51-7.25,.5-9.96Z" style="fill:#263238;"></path><path d="M262.45,184.68c5.3,2.01,.9,12.47-4.02,10.61-4.84-1.83-.43-12.29,4.02-10.61Z" style="fill:#263238;"></path></g><path d="M264.34,186.29c.59,.9,.99,2.25,1.95,2.73,1.11,.56,2.44-.22,3.62-.99,.12-.08,.17,.04,.11,.18-.79,2.02-2.32,3.83-4.41,3.4-1.9-.39-2.46-2.65-2.1-4.84,.07-.41,.59-.85,.82-.49Z" style="fill:#263238;"></path></g></g></g><g><g><path d="M249.04,227.2c1.17-2.79,3.81-4.96,7.34-5.16,2.8-.16,5.61,1.18,7.21,3.48,2.12,3.05,2,6.68,.25,9.39,1.19,1.2,2.04,2.79,2.43,4.64,.8,3.84-1.01,7.95-4.39,9.94-4.43,2.61-9.67,1.28-12.44-2.45l-.35,.13c-5,1.85-10.64-1.36-11.27-7-.32-2.8,.91-5.69,3.13-7.43,1-.78,2.07-1.29,3.16-1.56" style="fill:#fff;"></path><path d="M249.04,227.2c5.12-11.59,21.6-2.81,15.3,8.03l-.08-.75c6.57,6.59,.8,18.17-8.42,16.93-2.73-.33-5.27-1.83-6.89-4.02l.69,.2c-11.62,4.28-17.64-13.08-5.54-16.42-11.04,3.56-5.26,19.77,5.53,15.13,2.8,4.28,9.17,5.15,13.01,1.79,3.95-3.16,4.22-9.71,.43-13.11,6.49-9.96-8.78-18.29-14.03-7.78h0Z" style="fill:#263238;"></path></g><path d="M239.03,228.19c-2.74-4.4-5.07-9.01-6.98-13.83,2.74,4.4,5.07,9.02,6.98,13.83h0Z" style="fill:#263238;"></path><path d="M245.51,222.61c-3.41-3.35-6.47-7-9.16-10.95,3.41,3.35,6.46,7,9.16,10.95h0Z" style="fill:#263238;"></path><path d="M244.06,228.06c-3.29-4.08-6.21-8.41-8.73-13.01,3.3,4.07,6.21,8.42,8.73,13.01h0Z" style="fill:#263238;"></path></g></g><g><g><path d="M262.72,395.54c-7.36-18.63-8.01-66,.92-132.63,1.46-10.89,68.74-13.31,68.42-1.57-.41,14.8-12.03,95.94-12.91,100.09-7.42,34.99-51.55,46.48-56.44,34.1Z" style="fill:#eb9481;"></path><g><path d="M330.71,267.92s13.31-24.03,16.4-38.81c4.13-19.8-.45-38.6-2.84-46.36-5-16.2-28.3-51.92-39.75-47-10.37,4.45,15.28,39.76,15.28,39.76,0,0-20.22-40.31-31.72-32.66-11.5,7.65,20.61,46.94,20.61,46.94,0,0-21.7-40.95-32.32-31.19-8.02,7.38,19.06,44.61,19.06,44.61,0,0-18.9-35.07-27.47-27.84-9.48,8,13.36,43.92,13.36,43.92-18.7,22.06-18.58,40.22-16.96,53.12,.39,3.12,66.35-4.49,66.35-4.49Z" style="fill:#eb9481;"></path><g><path d="M327.69,188.99c-2.2-4.82-4.4-9.72-7.03-14.33-2.62-4.61-5.41-9.13-8.45-13.47-7.46-10.65-13.8-16.16-13.44-15.78,8.38,9.05,18.03,25.4,20.66,30.02,2.62,4.6,5.47,9.07,8.09,13.67,.07,.12,.22,0,.17-.11Z" style="fill:#263238;"></path><path d="M311.22,198.77c-3.08-6.03-5.92-12.14-9.26-18.04-3.33-5.87-7.01-11.15-10.73-16.78-.29-.43-.43-.14-.15,.31,3.5,5.77,6.29,11.38,9.72,17.19,3.42,5.79,7.09,11.49,10.29,17.4,.05,.09,.18,0,.14-.08Z" style="fill:#263238;"></path><path d="M298.59,209.71c-4.23-9.46-10.21-18.13-16.28-26.5-.3-.42-.44-.01-.15,.43,5.58,8.71,10.01,15.5,16.1,26.22,.1,.17,.42,.05,.33-.15Z" style="fill:#263238;"></path></g><path d="M281.33,219.29c-6-9.42-11.67-19.23-14.94-29.99-1.37-4.71-3-13.66,3.46-15.21,1.6-.1,2.97,.63,4.18,1.37,3.55,2.29,6.3,5.73,9.26,8.56l-.71,.61c-3.78-6.6-7.74-13.58-8.28-21.32-.34-4.71,3.6-7.57,8.04-6.45,3.85,1.16,6.36,4.4,9,7.16l-.58,.44c-3.4-5.61-10.69-21.94,.67-22.68,3.04,.24,5.67,2.08,7.84,4.08-3.02-2.73-8.27-5.75-11.79-2.28-4.53,5.1,1.05,15.49,3.9,20.5l1.71,2.84-2.29-2.4c-2.56-2.6-5.11-5.76-8.68-6.84-1.72-.5-3.62-.08-5.09,.89-1.45,.99-1.88,2.92-1.83,4.72,.58,7.51,4.56,14.39,8.18,20.84l1.67,2.79-2.39-2.18c-3.03-2.9-5.6-6.23-9.12-8.53-1.13-.71-2.4-1.33-3.63-1.25-5.63,1.5-3.99,9.91-2.86,14.16,3.13,10.7,8.56,20.64,14.27,30.17h0Z" style="fill:#263238;"></path></g></g><g><path d="M337.13,285.71l-87.06,4.54s-4.3,91.91,6.55,109.22c12.58,20.06,57.48,7.19,65.98-39.4l14.53-74.35Z" style="fill:#3F51B5;"></path><path d="M329.51,306.93c-36.43,5.65-68.93,5.18-75.74,5.73-.32,.03-.33-.5,0-.51,6.72-.2,44.74-4.63,75.74-5.79,.36-.01,.35,.5,0,.56Z" style="fill:#263238;"></path><path d="M251.4,377.45c-.41-11.37-.88-22.74-1.17-34.11-.29-11.37-.25-22.73-.06-34.09,.11-6.27,.63-12.11,.9-18.38,3.26-.59,5.19-.51,9.16-1.15,.49-.08,.34-1.25-.15-1.2-4.34,.49-10.88,.21-10.9,.5-.78,11.36-.82,23.55-.86,34.95-.04,11.45,.27,22.9,1.02,34.32,.42,6.42,1.07,12.81,1.9,19.18,.01,.11,.17,.09,.17-.02Z" style="fill:#263238;"></path></g></g><g><g><path d="M56.18,401.43c15.22,10.01,46.2,1.16,117.2-12.16,9.82-1.84,11.96-73.68,1.36-72.25-13.34,1.8-64.73,11.67-68.39,12.87-30.93,10.09-60.49,64.75-50.16,71.55Z" style="fill:#eb9481;"></path><g><path d="M196.21,307.38c22-2.34,28.01,.43,45.52-11.41,11.49-7.77,21.39-3.76,14.56,8.95-11.16,20.79-38.91,29.78-49.43,30.12l-10.66-27.66Z" style="fill:#eb9481;"></path><g><path d="M189.73,377.74s-12.35,14.32-1.91,21.95c10.45,7.63,20.33-8.49,20.33-8.49l-18.42-13.45Z" style="fill:#455a64;"></path><path d="M263.04,279.4v-.03h.02l16.6-8.19,4.58,3.34h0l-2.74,18.3v.02h-.02l-73.76,98.96-18.43-13.46,73.75-98.95Z" style="fill:#455a64;"></path><g><rect x="186.32" y="380.86" width="26.64" height="5.29" transform="translate(264.61 -43.94) rotate(36.14)" style="fill:#263238;"></rect><rect x="189.77" y="376.15" width="26.64" height="5.29" transform="translate(262.5 -46.88) rotate(36.14)" style="fill:#263238;"></rect><polygon points="193.89 368.8 200.83 373.87 218.34 341.75 215.68 340.03 193.89 368.8" style="fill:#263238;"></polygon></g><g><path d="M283.6,274.09l.35-2.25c.12-.77-.68-1.36-1.39-1.02l-2.06,1.01,3.1,2.26Z" style="fill:#455a64;"></path><path d="M283.6,274.09l.35-2.25c.12-.77-.68-1.36-1.39-1.02l-2.06,1.01,3.1,2.26Z" style="opacity:.5;"></path></g><path d="M280.54,292.2c-6.14-3.02-11.72-7.13-16.42-12.1,6.14,3.01,11.72,7.14,16.42,12.1h0Z" style="opacity:.2;"></path></g><path d="M137.36,326.59s25.05-12.87,48.24-17.69c16.04-3.33,51.75-6.69,84.64,29.49,7.8,8.58,12.83,26.34-5,16.96-12.67-6.67-18.69-14.73-26.76-17.26,0,0,3.72,23.35-5.18,30.83-3.98,3.34-15.05,12.21-24.66,17.89,0,0-1.8-1.76-3.76-4.31,0,0-17.69,10.78-37.34,7.88l-30.18-63.78Z" style="fill:#eb9481;"></path><g><path d="M201.42,308.16c7.48,4.21,23.19,13.41,33.42,25.4,11.37,13.32,29.67,42.04,19.76,50.33-7.27,6.08-15.23-4.27-15.23-4.27,0,0,5.06,13.47-2.71,17.52-7.08,3.69-12.75-4.68-12.75-4.68,0,0,1.67,8.7-5.84,10.94-9.03,2.7-11.04-15.97-22.55-21.14-2.58-1.16,5.9-74.1,5.9-74.1Z" style="fill:#eb9481;"></path><g><path d="M218.77,343.22c6.39,5.12,17.91,20.46,20.73,36.05,.06,.35-.17,.59-.3,.28-6.75-16.51-16.2-30.52-20.56-36.23-.06-.08,.05-.16,.13-.11Z" style="fill:#263238;"></path><path d="M205.66,355.09c5.06,4.98,16.23,21.32,18.55,37.23,.05,.36-.2,.58-.31,.26-6.35-17.54-14.35-31.43-18.37-37.39-.05-.08,.07-.16,.13-.1Z" style="fill:#263238;"></path></g></g></g></g><g><path d="M161.78,311.75l-31.75,101.05s-67.36,.49-78.84-12.19c-8.21-9.06,20.45-61.62,54.74-72.72l55.84-16.14Z" style="fill:#3F51B5;"></path><g><path d="M70.17,355.32c3.35-6.27,16.07-20.8,35.79-27.51,.17-.06,.31,.2,.14,.28-14.21,6.42-31.94,21.64-35.69,27.4-.1,.15-.32-.01-.24-.17Z" style="fill:#263238;"></path><path d="M115.83,398.12c2.29-9.98,5.11-19.82,7.96-29.66,2.85-9.84,5.68-19.69,8.78-29.47,1.75-5.52,3.47-11.06,5.41-16.51,.05-.14,.3-.09,.27,.06-2.28,9.96-5.07,19.83-7.84,29.67-2.78,9.86-5.67,19.7-8.65,29.51-1.68,5.54-3.47,11.05-5.41,16.51-.1,.27-.57,.18-.5-.11Z" style="fill:#263238;"></path><path d="M161.49,310.89c-3.96,.53-7.78,1.65-11.63,2.71-3.85,1.05-7.67,2.17-11.49,3.32-7.59,2.29-23.94,6.29-36.92,12.65-.14,.07,.93,.41,1.07,.33,6.03-3.34,54.69-16.09,58.46-17.6-.03,.31-1.88,6.78-1.87,7.1,.01,.22,.3,.36,.43,.14,.31-.53,2.28-7.24,2.55-7.78,.22-.45-.09-.93-.6-.86Z" style="fill:#263238;"></path><path d="M135.1,396.66c-1.43,5.62-2.98,11.21-4.56,16.79-8.94,.22-17.87,.02-26.8-.46-13.1-.83-26.35-2.05-39-5.76-1.39-.47-2.77-.97-4.14-1.46,11.29,2.93,22.95,3.74,34.54,4.67,11.61,.82,23.25,1.34,34.89,1.68l-.64,.47c1.84-5.33,3.72-10.65,5.71-15.93h0Z" style="fill:#263238;"></path></g></g></g></g></g><g id="freepik--Device--inject-4"><g><g><rect x="175.84" y="407.28" width="147.54" height="7.06" style="fill:#455a64;"></rect><polygon points="323.38 407.28 323.38 414.34 237.45 414.34 242.85 407.28 323.38 407.28" style="fill:#37474f;"></polygon></g><g><polygon points="265.08 414.34 392.96 414.34 412.91 317.06 285.03 317.06 265.08 414.34" style="fill:#37474f;"></polygon><polygon points="271.52 414.34 399.4 414.34 419.35 317.06 291.47 317.06 271.52 414.34" style="fill:#455a64;"></polygon><path d="M353.02,365.7c-.66,4.53-3.87,8.2-7.18,8.2s-5.46-3.67-4.8-8.2c.66-4.53,3.87-8.2,7.18-8.2,3.31,0,5.46,3.67,4.8,8.2Z" style="fill:#fff;"></path></g></g></g><g id="freepik--Books_1--inject-4"><g><g><rect x="87.02" y="397.48" width="74.39" height="17.01" transform="translate(248.44 811.98) rotate(180)" style="fill:#263238;"></rect><rect x="46.45" y="397.48" width="40.57" height="17.01" transform="translate(133.48 811.98) rotate(180)" style="fill:#263238;"></rect><rect x="87.02" y="399.25" width="74.39" height="13.48" transform="translate(248.44 811.98) rotate(180)" style="fill:#fff;"></rect><path d="M156.6,409.96c-5.8,.07-11.6,.12-17.39,.14l-17.39,.04-17.39-.04c-5.8-.03-11.6-.08-17.39-.15,5.8-.07,11.6-.12,17.39-.15l17.39-.04,17.39,.04c5.8,.03,11.6,.08,17.39,.14Z" style="fill:#dbdbdb;"></path><path d="M156.6,407.31c-5.8,.07-11.6,.12-17.39,.14l-17.39,.04-17.39-.04c-5.8-.03-11.6-.08-17.39-.15,5.8-.07,11.6-.12,17.39-.15l17.39-.04,17.39,.04c5.8,.03,11.6,.08,17.39,.14Z" style="fill:#dbdbdb;"></path><path d="M156.6,404.67c-5.8,.07-11.6,.12-17.39,.14l-17.39,.04-17.39-.04c-5.8-.03-11.6-.08-17.39-.15,5.8-.07,11.6-.12,17.39-.15l17.39-.04,17.39,.04c5.8,.03,11.6,.08,17.39,.14Z" style="fill:#dbdbdb;"></path><path d="M156.6,402.02c-5.8,.07-11.6,.12-17.39,.14l-17.39,.04-17.39-.04c-5.8-.03-11.6-.08-17.39-.15,5.8-.07,11.6-.12,17.39-.15l17.39-.04,17.39,.04c5.8,.03,11.6,.08,17.39,.14Z" style="fill:#dbdbdb;"></path><path d="M148.79,403.65v11.35l-6.77-5.64-6.77,5.64v-11.35c0-.96-.78-1.73-1.73-1.73h13.54c.96,0,1.73,.78,1.73,1.73Z" style="fill:#3F51B5;"></path></g><g><rect x="38.08" y="385.29" width="123.71" height="12.19" style="fill:#37474f;"></rect><rect x="137.15" y="385.29" width="11.53" height="12.19" style="fill:#455a64;"></rect><rect x="125.11" y="385.29" width="4.47" height="12.19" style="fill:#455a64;"></rect></g><g><rect x="100.6" y="366.44" width="76.99" height="18.85" transform="translate(278.19 751.73) rotate(180)" style="fill:#3F51B5;"></rect><rect x="41.79" y="366.44" width="58.81" height="18.85" transform="translate(142.39 751.73) rotate(180)" style="fill:#3F51B5;"></rect><rect x="41.79" y="366.44" width="58.81" height="18.85" transform="translate(142.39 751.73) rotate(180)" style="opacity:.2;"></rect><rect x="103.13" y="368.4" width="74.46" height="14.93" transform="translate(280.72 751.73) rotate(180)" style="fill:#fff;"></rect><path d="M172.77,380.26c-5.8,.11-11.61,.18-17.41,.22l-17.41,.07-17.41-.07c-5.8-.04-11.61-.11-17.41-.22,5.8-.11,11.61-.18,17.41-.22l17.41-.07,17.41,.07c5.8,.04,11.61,.11,17.41,.22Z" style="fill:#dbdbdb;"></path><path d="M172.77,377.33c-5.8,.11-11.61,.18-17.41,.22l-17.41,.07-17.41-.07c-5.8-.04-11.61-.11-17.41-.22,5.8-.11,11.61-.18,17.41-.22l17.41-.07,17.41,.07c5.8,.04,11.61,.11,17.41,.22Z" style="fill:#dbdbdb;"></path><path d="M172.77,374.4c-5.8,.11-11.61,.18-17.41,.22l-17.41,.07-17.41-.07c-5.8-.04-11.61-.11-17.41-.22,5.8-.11,11.61-.18,17.41-.22l17.41-.07,17.41,.07c5.8,.04,11.61,.11,17.41,.22Z" style="fill:#dbdbdb;"></path><path d="M172.77,371.47c-5.8,.11-11.61,.18-17.41,.22l-17.41,.07-17.41-.07c-5.8-.04-11.61-.11-17.41-.22,5.8-.11,11.61-.18,17.41-.22l17.41-.07,17.41,.07c5.8,.04,11.61,.11,17.41,.22Z" style="fill:#dbdbdb;"></path></g><g><rect x="49.67" y="347.59" width="67.57" height="18.85" style="fill:#455a64;"></rect><rect x="117.24" y="347.59" width="38.31" height="18.85" style="fill:#455a64;"></rect><rect x="49.67" y="349.55" width="67.57" height="14.93" style="fill:#fff;"></rect><path d="M54.04,352.62c5.27-.11,10.53-.18,15.8-.22l15.8-.07,15.8,.07c5.27,.04,10.53,.11,15.8,.22-5.27,.11-10.53,.18-15.8,.22l-15.8,.07-15.8-.07c-5.27-.04-10.53-.12-15.8-.22Z" style="fill:#dbdbdb;"></path><path d="M54.04,355.55c5.27-.11,10.53-.18,15.8-.22l15.8-.07,15.8,.07c5.27,.04,10.53,.11,15.8,.22-5.27,.11-10.53,.18-15.8,.22l-15.8,.07-15.8-.07c-5.27-.04-10.53-.11-15.8-.22Z" style="fill:#dbdbdb;"></path><path d="M54.04,358.48c5.27-.11,10.53-.18,15.8-.22l15.8-.07,15.8,.07c5.27,.04,10.53,.11,15.8,.22-5.27,.11-10.53,.18-15.8,.22l-15.8,.07-15.8-.07c-5.27-.04-10.53-.11-15.8-.22Z" style="fill:#dbdbdb;"></path><path d="M54.04,361.41c5.27-.11,10.53-.18,15.8-.22l15.8-.07,15.8,.07c5.27,.04,10.53,.11,15.8,.22-5.27,.11-10.53,.18-15.8,.22l-15.8,.07-15.8-.07c-5.27-.04-10.53-.11-15.8-.22Z" style="fill:#dbdbdb;"></path><path d="M63.56,354.35v16.87l6.77-5.64,6.77,5.64v-16.87c0-.96,.78-1.73,1.73-1.73h-13.54c-.96,0-1.73,.78-1.73,1.73Z" style="fill:#263238;"></path></g></g></g><g id="freepik--Mugs--inject-4"><g><g><g><g><rect x="394.83" y="362.54" width="3.92" height="25.11" transform="translate(-68.77 660.4) rotate(-74.89)" style="fill:#ebebeb;"></rect><path d="M409.42,376.48l-.89,3.82-.03,.13c-7.14-1.65-17.29-4.33-24.48-6.23l-.49-.13,.13-.48c.05-.21,1.17-4.21,1.17-4.24,8.2,2.24,16.52,4.68,24.57,7.13h0Zm0,0c-8.25-1.97-16.26-3.92-24.37-6.09l.58-.34-1,3.79-.35-.61c7.14,1.97,17.17,4.74,24.15,6.89l-.17,.1,1.16-3.75h0Z" style="fill:#263238;"></path></g><rect x="395.67" y="361.9" width="2.59" height="25.11" transform="translate(-68.02 660.08) rotate(-74.89)" style="opacity:.1;"></rect></g><g><g><path d="M359.16,351.99c1.78,4.8,6.07,9.06,12.07,9.52,.85,.07,1.73,.06,2.65-.04,1.25-.13,2.54-.41,3.91-.88l-1.85-5.4c-.74,.27-1.44,.44-2.1,.54-6.48,1.06-8.9-4.48-9.34-5.71-2.06-5.57-.37-16.55,4.1-19.75,.3-.24,1.41-.46,5.09,1.42,.68,.36,1.44,.76,2.3,1.26,.95,.57,1.51,.9,2.09,1.08l.84-2.71,1.01-2.66c-.24-.11-.6-.33-1.08-.62-1.37-.79-3.21-1.87-5.2-2.63-2.79-1.07-5.9-1.54-8.36,.23-7.28,5.22-8.72,19.37-6.14,26.35Z" style="fill:#ebebeb;"></path><path d="M359.16,351.99c2.77,7.65,11,11.46,18.6,8.5l-.07,.14-1.89-5.38,.21,.1c-.9,.33-1.85,.58-2.82,.65-8.17,.79-10.66-8.03-9.72-14.62,.52-4,1.48-8.42,4.68-11.19,.6-.66,1.65-.42,2.35-.22,2.77,.77,5.15,2.63,7.69,3.76l-.42,.22,.85-2.72,1.02-2.66,.16,.39c-4.36-2.5-10.41-6.59-15.04-2.65-6.64,5.73-8.13,17.64-5.6,25.7h0Zm0,0c-2.23-7.01-1.36-15.05,1.95-21.58,1.71-3.19,4.71-6.55,8.67-6.13,3.81,.28,7.14,2.35,10.28,4.11l.25,.14-.09,.25-.99,2.66c-.06,.22-.89,2.89-.93,3.03-3.17-1.11-5.83-3.77-9.26-3.96-.22,.02-.26,.13-.43,.26-2.98,2.6-3.97,6.88-4.48,10.69-.92,6.24,1.2,14.83,9.02,14.17,.99-.05,1.96-.3,2.9-.63l.05,.16,1.8,5.41,.04,.11c-1.86,.62-3.81,.99-5.77,.95-5.87,0-11.09-4.19-13.01-9.63h0Z" style="fill:#263238;"></path></g><path d="M375.95,355.2c-.74,.27-1.44,.44-2.1,.54l.03,5.73c1.25-.13,2.54-.41,3.91-.88l-1.85-5.4Z" style="opacity:.1;"></path><path d="M373.65,325.42l.04,6.29c.68,.36,1.44,.76,2.3,1.26,.95,.57,1.51,.9,2.09,1.08l.84-2.71,1.01-2.66c-.24-.11-.6-.33-1.08-.62-1.37-.79-3.21-1.87-5.2-2.63Z" style="opacity:.1;"></path></g><g><g><path d="M441.9,336.18s-9.58,23.92-17.41,32.97c-7.83,9.03-15.15,8.3-19.51,7.13-4.36-1.18-3.96-1.07-7.92-2.14-3.97-1.07-3.56-.96-7.93-2.14-4.36-1.18-11.05-4.23-13.27-15.98-2.21-11.76,1.55-37.25,1.55-37.25l64.49,17.41Z" style="fill:#ebebeb;"></path><path d="M441.9,336.18c-2.09,5.24-4.36,10.4-6.79,15.49-4.09,8.07-8.07,16.95-15.66,22.36-7.84,5.51-14.24,2.51-22.47,.38-8.94-2.45-15.66-2.94-19.78-12.56-2.33-5.63-2.49-11.83-2.36-17.83,.22-8.58,1.12-17.13,2.33-25.62,16.23,4.43,48.53,13.28,64.73,17.78h0Zm0,0c-16.11-4.22-48.49-12.84-64.57-17.13l.36-.24c-1.13,8.36-1.97,16.79-2.15,25.23-.08,6.24,.04,12.75,2.73,18.49,3.91,8.53,10.86,9.05,18.85,11.32l8.16,2.22c4.04,1.13,8.43,.7,12.11-1.33,6.23-3.42,10.13-9.68,13.53-15.71,4.14-7.37,7.69-15.06,10.97-22.86h0Z" style="fill:#263238;"></path></g><g style="opacity:.1;"><path d="M432.91,355.77c-1.11,2.14-2.27,4.24-3.45,6.2l-54.29-14.66c-.03-2.28,.03-4.68,.14-7.09l57.6,15.55Z"></path><path d="M428.04,364.28c-.69,1.08-1.38,2.09-2.06,3.01l-50.46-13.63c-.13-1.14-.21-2.36-.27-3.64l52.79,14.26Z"></path><path d="M435.85,349.86c-.49,1.03-1,2.08-1.54,3.15l-58.81-15.88c.07-1.19,.16-2.36,.26-3.49l60.09,16.23Z"></path></g></g></g><g><g><g><rect x="388.76" y="410.42" width="25.11" height="3.92" style="fill:#3F51B5;"></rect><path d="M388.76,410.41l.1,3.92-.11-.11c4.18-.11,8.37-.14,12.55-.21l12.55-.06-.37,.37,.02-3.92,.36,.36c-7.21,0-17.78-.22-25.11-.37h0Zm0,0c7.45-.14,17.75-.36,25.11-.35h.36v.36l.02,3.92v.38h-.37c-7.45-.04-17.87-.08-25.22-.28v-.1l.11-3.92h0Z" style="fill:#263238;"></path></g><rect x="388.76" y="410.42" width="25.11" height="2.59" style="opacity:.1;"></rect></g><g><g><path d="M443.67,399.89c-2.97,4.17-8.23,7.16-14.14,6.04-.84-.16-1.68-.4-2.55-.73-1.17-.45-2.35-1.06-3.55-1.87l3.19-4.73c.65,.45,1.28,.8,1.88,1.07,5.98,2.71,9.77-2,10.51-3.08,3.44-4.84,4.68-15.88,1.19-20.13-.23-.31-1.24-.81-5.28,.05-.75,.17-1.59,.36-2.55,.62-1.06,.3-1.69,.47-2.3,.49l-.1-2.84-.28-2.83c.26-.05,.67-.16,1.2-.31,1.53-.41,3.58-.97,5.71-1.18,2.97-.31,6.09,.05,8.01,2.4,5.66,6.94,3.36,20.97-.95,27.04Z" style="fill:#3F51B5;"></path><path d="M443.67,399.89c-3.28,4.74-9.41,7.43-15.08,5.9-1.9-.48-3.69-1.34-5.32-2.42l.06-.1,3.15-4.76,.09-.14c.82,.56,1.69,1.06,2.63,1.37,7.38,2.68,11.66-5.06,12.4-11.33,.5-3.8,.67-8.2-1.53-11.49-.13-.17-.14-.29-.35-.36-3.36-.71-6.62,1.16-9.98,1.4,0-.1-.09-2.96-.1-3.17l-.26-2.82-.02-.26,.28-.07c3.49-.88,7.25-2,11-1.28,3.94,.64,5.95,4.66,6.77,8.18,1.49,7.17,.23,15.16-3.75,21.34h0Zm0,0c4.54-7.11,6.21-19,1.3-26.27-3.44-5.02-10.35-2.64-15.21-1.37l.25-.33,.29,2.84,.11,2.85-.34-.32c2.75-.42,5.53-1.6,8.4-1.62,.72,0,1.81,.03,2.21,.83,2.36,3.51,2.14,8.03,1.59,12.02-.99,8.21-7.36,15.97-15.75,10.22l.23-.04-3.23,4.7-.03-.16c1.57,1.07,3.29,1.93,5.13,2.43,5.62,1.57,11.75-1.08,15.05-5.78h0Z" style="fill:#263238;"></path></g><path d="M426.63,398.61c.65,.45,1.28,.8,1.88,1.07l-1.53,5.53c-1.17-.45-2.35-1.06-3.55-1.87l3.19-4.73Z" style="opacity:.1;"></path><path d="M436.62,370.46l-1.68,6.06c-.75,.17-1.59,.36-2.55,.62-1.06,.3-1.69,.47-2.3,.49l-.1-2.84-.28-2.83c.26-.05,.67-.16,1.2-.31,1.53-.41,3.58-.97,5.71-1.18Z" style="opacity:.1;"></path></g><g><g><path d="M367.93,363.03s3,25.59,8.2,36.37c5.2,10.76,12.46,11.97,16.97,11.97,4.51,0,4.1,0,8.2,0,4.12,0,3.69,0,8.22,0,4.51,0,11.77-1.2,16.98-11.96,5.21-10.78,8.23-36.36,8.23-36.36l-66.8-.02Z" style="fill:#3F51B5;"></path><path d="M367.93,363.03c1.13,8.38,2.55,16.73,4.62,24.93,1.71,6.71,3.84,13.77,8.96,18.7,3.02,2.92,7.15,4.48,11.35,4.44h8.46c8.3-.13,15.15,1.19,21.15-6.02,4.1-4.84,5.91-11.09,7.46-17.14,2.03-8.19,3.42-16.55,4.51-24.92l.29,.32c-16.65-.02-50.15-.2-66.8-.31h0Zm0,0c16.82-.1,50.31-.25,67.13-.27-1.06,8.52-2.42,17-4.44,25.34-1.43,5.83-3.21,11.77-6.93,16.6-6.47,8.2-13.12,6.94-22.37,6.96-8.5-.1-15.45,1.15-21.59-6.23-5.91-7.21-7.44-16.82-9.28-25.68-1.02-5.55-1.86-11.13-2.51-16.73h0Z" style="fill:#263238;"></path></g><g style="opacity:.1;"><path d="M371.49,384.29c.52,2.35,1.09,4.68,1.71,6.88l56.23,.02c.63-2.2,1.2-4.53,1.72-6.88l-59.66-.02Z"></path><path d="M373.97,393.78c.39,1.22,.78,2.38,1.21,3.44l52.27,.02c.42-1.06,.82-2.22,1.21-3.44l-54.69-.02Z"></path><path d="M370.2,377.81c.2,1.12,.42,2.27,.66,3.44l60.91,.02c.24-1.17,.46-2.32,.67-3.44l-62.24-.02Z"></path></g></g></g></g></g><g id="freepik--Sheets--inject-4"><g><rect x="280.18" y="388.26" width="88.72" height="26.08" style="fill:#ebebeb;"></rect><rect x="368.9" y="388.26" width="33.72" height="26.08" style="fill:#c7c7c7;"></rect><polygon points="368.9 404.04 280.18 404.04 349.47 406.24 368.9 404.04" style="fill:#c7c7c7;"></polygon><polygon points="368.9 391.49 312.7 391.49 362.66 393.28 368.9 391.49" style="fill:#c7c7c7;"></polygon><polygon points="280.18 399.32 343.57 399.32 333 400.4 280.18 399.32" style="fill:#c7c7c7;"></polygon><polygon points="327.96 398.92 369.07 398.92 376.42 401.79 327.96 398.92" style="fill:#ebebeb;"></polygon><polygon points="328.2 394.42 369.31 394.42 376.66 397.28 328.2 394.42" style="fill:#c7c7c7;"></polygon><polygon points="321.61 394.32 280.5 394.32 273.15 397.19 321.61 394.32" style="fill:#ebebeb;"></polygon><polygon points="368.9 395.75 401.92 395.75 409.26 398.62 368.9 395.75" style="fill:#c7c7c7;"></polygon><polygon points="380.42 406.03 406.03 406.03 402.62 403.68 380.42 406.03" style="fill:#c7c7c7;"></polygon></g></g><g id="freepik--Paper_balls--inject-4"><g><g><g><path d="M100.08,452.38c-2.15,.52-4.96,.78-5.23-.45-.27-1.23,.65-2,.28-2.59-.37-.59-2.24-1.57-3.15-2.33-.91-.75-1.67-2.15-1.7-2.46-.03-.31-.6-.78-.14-1.45,.46-.67,.67-1.64,1.05-2.14,.38-.51,.52-1.04-.17-1.82-.69-.77-.4-3.21,.46-4.13,.86-.92,3.74,.8,4.56,.52,.81-.29,.88-.71,1.56-1.3,.68-.59,2.33-2,4.2-2.18,1.87-.18,2.96,1.4,4.17,2.02,1.21,.62,2.26,.63,3.34,.94,1.08,.32,2.31,1.15,2.56,1.54,.25,.4,.98,.43,.78,1.6-.2,1.17-.7,1.53-.61,2.47,.09,.94,.09,1.1,.2,2.16s1.11,2.85,.46,3.75c-.65,.9-1.05,2.19-2.2,2.3-1.14,.11-4.84-.18-4.84-.18,0,0-.38,.45-.91,1.45-.54,.99-1.57,1.72-2.38,1.69-.82-.03-2.28,.58-2.28,.58Z" style="fill:#fff;"></path><path d="M100.08,452.38c-1.96,.45-6.55,1.37-5.04-2.15,.11-.32,.23-.69-.01-.95-.98-.97-2.34-1.49-3.39-2.45-.79-.76-1.29-1.66-1.68-2.67-.19-.32-.2-.83,.05-1.14,.37-.56,.53-1.24,.86-1.9,.2-.36,.41-.57,.43-.86,.08-.47-.42-.87-.63-1.26-.54-1.37-.29-3.15,.7-4.27,1.4-.95,3.23,.62,4.63,.46,.29-.11,.49-.26,.71-.52,1.47-1.57,3.35-3.04,5.69-2.98,1.65,.16,2.65,1.5,3.74,2.08,1.96,.92,4.54,.75,6,2.66,1.56,1.02,.45,2.52,.14,3.75-.04,.52,.07,1.48,.11,2.04-.04,1.46,.99,2.68,.56,4.17-.63,.87-.98,2-2.02,2.46-1.67,.27-3.68-.05-5.23-.15-.87,1.15-1.41,2.82-3.02,3.1-.9,0-1.76,.25-2.59,.59h0Zm0,0c.82-.34,1.69-.61,2.58-.62,1.59-.31,2.1-1.97,2.96-3.13,1.38,.04,2.82,.19,4.22,.15,1.58,.22,2.15-1.43,2.83-2.51,.28-.94-.31-2.01-.54-2.96-.15-.62-.2-1.48-.27-2.11-.03-.34-.1-.69-.06-1.1,.14-.8,.51-1.35,.57-2.02,.15-.75-.26-.86-.72-1.31-1.49-1.74-3.79-1.44-5.85-2.41-1.23-.65-2.11-1.84-3.49-1.96-1.57-.1-3.19,.93-4.41,1.99-.56,.44-.94,1.17-1.68,1.4-1.51,.29-2.71-.88-4.16-.75-1.16,.25-1.59,3.38-.73,4.13,.22,.29,.42,.69,.36,1.13-.05,.43-.37,.74-.51,.99-.32,.58-.5,1.29-.93,1.89-.36,.45,.03,.88,.15,1.36,.7,2.3,3.02,3.15,4.69,4.66,.46,.66-.26,1.35-.26,2.04-.26,2.42,3.84,1.36,5.23,1.13h0Z" style="fill:#c7c7c7;"></path></g><path d="M91.83,440.2c1.15-1.23,2.39-2.33,3.56-3.49l.91-.83,.46-.42c.4-.31,.67-.36,.92-.45,.94-.24,1.79-.28,2.66-.33,1.73-.09,3.43,.03,5.17,.29,.9,.17,1.68,.27,2.77,.86,.73,.44,1.09,1.16,1.23,1.7,.17,.58,.21,1.1,.2,1.58-.06,1.94-.57,3.6-1.17,5.24-.32,.81-.69,1.6-1.11,2.39-.22,.39-.45,.78-.74,1.18-.22,.34-.91,.97-1.39,1.08-1.97,.66-3.61,.44-5.32,.34-1.68-.21-3.34-.43-4.97-.88,1.68-.12,3.34-.15,4.97-.35,1.59-.15,3.36-.34,4.51-.89,.32-.17,.23-.16,.48-.5,.17-.29,.35-.63,.51-.98,.31-.7,.6-1.44,.83-2.19,.48-1.48,.9-3.07,.9-4.46,.05-.69,.56-1.25,.56-1.19-.35-.24-2.01-.46-2.72-.62-1.52-.36-3.15-.52-4.74-.66-.79-.06-1.61-.07-2.3-.01-.15,.01-.29,.07-.24,0l-.53,.34-1.07,.69c-1.46,.86-2.87,1.78-4.36,2.56Z" style="fill:#dbdbdb;"></path><path d="M96.99,437.02c.09,1.6,.05,3.13,.15,4.53,.06,.65,.21,1.45,.38,1.49,.02,.04,0-.05-.06-.05,.04-.03,0,0,.14,0,.22,0,.55-.05,.86-.1,1.34-.22,2.79-.62,4.26-.93,1.47-.33,2.98-.63,4.58-.75-1.2,1.08-2.53,1.89-3.93,2.58-1.4,.7-2.86,1.24-4.52,1.56-.44,.05-.87,.1-1.41,.07-.24,0-.65-.1-.97-.22-.39-.21-.74-.49-.9-.8-.67-1.25-.48-2.09-.38-2.93,.28-1.64,.89-3.1,1.79-4.44Z" style="fill:#dbdbdb;"></path></g><g><g><path d="M426.26,400.62c2.48-2.05,5.98-4.18,7.12-2.75,1.14,1.43,.43,3.03,1.29,3.57,.86,.54,3.93,.62,5.6,1.02,1.67,.4,3.55,1.74,3.79,2.13,.24,.39,1.28,.64,1.11,1.81-.17,1.17,.18,2.56,0,3.47-.18,.9-.01,1.69,1.38,2.26,1.4,.57,2.57,3.94,2.04,5.69-.53,1.75-5.4,1.34-6.28,2.24-.88,.89-.69,1.48-1.2,2.69-.51,1.2-1.76,4.1-4.09,5.53-2.33,1.42-4.76,.06-6.74,.03-1.98-.04-3.35,.63-4.96,.9-1.61,.27-3.75-.02-4.32-.38-.58-.36-1.56,.06-2.04-1.6-.48-1.66-.07-2.44-.78-3.61-.71-1.16-.82-1.38-1.64-2.7-.82-1.32-3.28-3.01-3-4.6,.27-1.59-.03-3.54,1.4-4.41,1.42-.87,6.43-2.86,6.43-2.86,0,0,.2-.83,.27-2.47,.06-1.64,.95-3.25,2.03-3.73,1.08-.48,2.6-2.21,2.6-2.21Z" style="fill:#fff;"></path><path d="M426.26,400.62c1.66-1.25,6.41-5.3,7.64-1.91,.44,.84,0,2.25,.93,2.75,1.91,.65,4.01,.46,5.99,1.06,1.5,.48,2.73,1.36,3.87,2.42,.44,.29,.75,.91,.64,1.46-.13,.98,.09,1.98,.08,3.03-.03,.56-.18,1.01-.02,1.44,.2,.71,1.1,.91,1.66,1.29,1.51,1.36,2.32,3.91,1.75,5.89-.36,.81-1.35,1.1-2.1,1.31-1.34,.42-3.11,.23-4.22,1-.71,.71-.68,1.8-1.12,2.68-1.03,2.37-2.37,4.81-4.94,5.93-2.04,.81-4.17-.22-6.15-.33-3.17,.04-6.28,1.93-9.48,.39-.33-.15-.71-.13-1.09-.33-.58-.29-.85-.88-.99-1.38-.33-.96-.2-2.07-.46-3-.3-.74-1.04-1.88-1.46-2.61-.48-.92-1.12-1.63-1.83-2.38-.65-.76-1.45-1.54-1.58-2.66,.23-1.5,0-3.22,1.03-4.47,2.07-1.48,4.62-2.17,6.93-3.2,.31-1.87,.04-4.6,1.91-5.95,1.17-.58,2.13-1.46,3-2.43h0Zm0,0c-.86,.97-1.83,1.87-2.98,2.45-1.89,1.42-1.49,3.92-1.88,5.97-2.24,1.07-4.84,1.78-6.85,3.28-.94,1.18-.68,2.91-.89,4.32,.39,1.95,2.63,3.07,3.47,4.85,.49,.81,1.19,1.79,1.57,2.67,.18,.53,.2,1.07,.25,1.56,.12,1.09,.33,2.6,1.67,2.64,.18,.03,.43,.12,.6,.22,3.01,1.18,6-.61,9.06-.65,2.02,.07,3.96,1.07,5.87,.33,2.2-.92,3.63-3.31,4.57-5.5,.5-1.06,.52-2.48,1.65-3.17,1.32-.57,2.84-.52,4.18-.86,.89-.22,1.84-.48,1.86-1.57,.06-1.76-.51-4.22-2.27-4.99-.47-.24-.96-.61-1.14-1.18-.2-.56,0-1.14,.03-1.58,.04-.98-.17-2.01-.01-3.06,.19-.84-.61-1.18-1.09-1.73-2.39-2.57-6.01-2.18-9.14-3.08-1-.55-.51-1.93-.96-2.81-1.17-3.34-5.93,.68-7.57,1.88h0Z" style="fill:#c7c7c7;"></path></g><path d="M418.17,423.6c2.37-.28,4.73-.66,7.07-1.07,2.35-.37,4.7-.76,7.03-1.22,2.31-.49,4.68-.9,6.82-1.63,.5-.17,1.08-.43,1.27-.59l.79-1.27c.59-1,1.14-2.01,1.55-3.04,.41-1.02,.73-2.09,.7-3.08,.01-.25-.04-.48-.06-.72l-.09-.34-.04-.15s.01,.02,0,0c-.03-.1-.56-.4-1.03-.56-2.06-.71-4.48-.9-6.8-1.16-2.35-.22-4.72-.32-7.09-.34-1.19-.03-2.38-.04-3.56,0-.59,.02-1.19,.05-1.77,.11-.3,.02-.59,.06-.88,.11-.25,.07-.67,.07-.72,.37,0-.33,.44-.4,.68-.52,.29-.1,.58-.18,.87-.26,.59-.14,1.18-.24,1.77-.34,1.19-.19,2.38-.33,3.58-.45,2.4-.18,4.8-.25,7.21-.22,2.42,.05,4.82,.19,7.33,.9,.63,.24,1.3,.39,2,1.25,.08,.11,.16,.25,.22,.4l.09,.28,.14,.53c.05,.35,.12,.71,.11,1.06,.04,1.41-.35,2.68-.81,3.87-.48,1.18-1.09,2.26-1.73,3.31l-.49,.77-.25,.38-.14,.21c-.1,.12-.2,.24-.31,.35-.76,.58-1.33,.72-1.95,.93-2.42,.69-4.77,1.07-7.17,1.35-4.77,.55-9.54,.98-14.34,.78Z" style="fill:#dbdbdb;"></path><path d="M428.04,422.4c.02-2.2,.26-4.38,.63-6.53,.17-1.08,.42-2.15,.68-3.22,.13-.54,.31-1.07,.49-1.61,.22-.56,.35-1.05,.81-1.73,.06-.09,.12-.16,.2-.25,.15-.14,.34-.26,.54-.35,.38-.17,.67-.07,.95-.05,.34,.1,.67,.21,.93,.32,.55,.24,1.05,.48,1.54,.76,.96,.56,1.91,1.12,2.8,1.76,1.78,1.26,3.57,2.56,5.02,4.25l-5.81-2.91c-.97-.47-1.91-.98-2.87-1.42-.47-.22-.95-.46-1.4-.63-.24-.1-.43-.15-.61-.2,.02,.03,0,0,.16-.02,.08-.01,.16-.06,.2-.13,0,.01-.02,.05-.04,.08-.17,.2-.4,.74-.57,1.19l-.51,1.48-.98,3.05c-.65,2.06-1.31,4.12-2.14,6.16Z" style="fill:#dbdbdb;"></path></g><g><g><path d="M84.58,410.19c-1.11-3.37-.91-7.27-4.71-6.86-3.79,.41-6.07-4.33-7.78-5.47-1.71-1.14-7.78,0-9.1,1.14-1.33,1.14-1.9,3.35-3.22,4.33-1.33,.98-3.22,2.5-4.93,4.01-1.71,1.52-4.17,3.6-3.41,7.4,.76,3.79,2.47,5.09,3.6,7,1.14,1.91-.76,5.33,.76,9.69,1.52,4.36,8.91,6.07,10.81,5.31,1.9-.76,6.96-3.98,9.74-3.98s3.54,2.28,6,.95c2.47-1.33,6.07-4.17,6.26-5.31,.19-1.14-2.09-2.14-1.33-3.91,.76-1.78,3.79-5.11,3.41-7.33-.38-2.22-5.25-4.38-6.1-6.96Z" style="fill:#fff;"></path><path d="M84.58,410.19c-.92-2.24-.62-5.86-3.35-6.76-1.28-.22-2.69,.17-3.88-.56-1.8-.92-2.99-2.6-4.32-4.06-.44-.48-.91-.97-1.54-1.13-2.53-.52-5.31,.08-7.67,1-1.88,.86-2.19,3.2-3.63,4.55-2.21,1.97-5.55,4.26-7.35,6.55-2.94,3.86,.02,8.5,2.49,11.77,.46,.79,.47,1.78,.42,2.62-.22,2.58-.49,5.24,.6,7.63,1.77,3.3,6.23,4.93,9.81,4.73,2.37-.87,4.72-2.45,7.13-3.3,1.23-.45,2.61-.9,3.99-.61,1.39,.22,2.44,1.32,3.67,1.3,1.26-.08,2.37-1.03,3.43-1.67,1.34-.94,2.69-1.92,3.73-3.18,.85-.89,.03-1.66-.55-2.47-.39-.54-.67-1.26-.44-1.92,.92-2.62,5.12-6,2.87-8.8-1.65-2.02-4.37-3.2-5.42-5.7h0Zm0,0c1.07,2.49,3.79,3.64,5.46,5.66,.42,.5,.77,1.14,.7,1.82-.19,2.01-1.55,3.66-2.56,5.32-.73,1.07-1.5,2.35-.48,3.52,.31,.49,1,1.1,1,1.74,0,.38-.22,.69-.41,.95-1.04,1.31-2.39,2.32-3.73,3.3-1.13,.71-2.18,1.68-3.59,1.8-1.41,.04-2.45-1.05-3.77-1.24-2.57-.35-5.02,1.27-7.28,2.34-1.12,.51-2.41,1.44-3.65,1.76-3.92,.28-8.64-1.47-10.58-5.05-1.19-2.51-.92-5.36-.66-7.98,.07-.97,.01-1.86-.56-2.62-4.16-5.32-5.36-10.49,.8-14.85l3.11-2.49c1-.78,2.09-1.59,2.68-2.77,.68-1.11,1.33-2.48,2.63-2.99,2.48-.92,5.23-1.46,7.85-.89,1.16,.34,2.08,1.88,2.88,2.71,.86,.99,1.8,1.95,2.97,2.56,1.2,.74,2.57,.34,3.86,.58,2.76,.91,2.43,4.55,3.34,6.81h0Z" style="fill:#c7c7c7;"></path></g><path d="M77.55,402.93c-4.65,1.62-9.38,3.23-13.68,5.45-.51,.29-1.05,.6-1.37,.9-.17,.04-.29,.87-.39,1.39-.21,1.19-.35,2.41-.48,3.62-.25,2.43-.43,4.88-.45,7.31-.02,1.21,.03,2.43,.19,3.52,.06,.59,.28,1.01,.25,.95,.19,.14,.81,.31,1.34,.41,2.26,.39,4.74,.42,7.14,.35,1.2-.04,2.42-.12,3.56-.28,1.02-.17,2.42-.51,3.57-.72,2.42-.49,4.84-.95,7.16-1.55,.56-.15,1.16-.3,1.63-.48,.14-.04,.23-.09,.28-.12,0,0,.13-.06,.05-.02-.08,.05-.15,.14-.18,.24-.15,.16-.18,.76-.09,.9,.03,.16,.18,.37,.24,.42,.05,.07,.17,.14,.15,.13,.04,.02,0,0-.03-.02l-.33-.13c-1.05-.35-2.28-.63-3.46-.91l-7.22-1.6c-2.41-.53-4.83-1.07-7.25-1.68-1.21-.31-2.42-.62-3.64-1.05-.65-.28-1.14-.33-2.04-1.06-.06-.05-.15-.17-.21-.26-.07-.1-.17-.37-.18-.46-.01-.15-.01-.3,0-.45,0-.34,.08-.47,.14-.69,.12-.41,.28-.69,.44-1.01,1.33-2.33,2.96-4.18,4.7-6.03,.44-.45,.89-.9,1.37-1.32,.24-.21,.48-.43,.75-.63,.13-.1,.26-.21,.41-.3,.2-.1,.17-.18,.62-.32,.72-.13,1.1,.17,1.4,.34,.31,.2,.57,.42,.81,.65,.48,.45,.91,.92,1.31,1.41,3.1,3.96,5.66,8.18,8.06,12.51-2.87-4.01-5.67-8.13-8.98-11.69-.42-.44-.84-.86-1.27-1.24-.36-.37-1.09-.69-.97-.62,.14-.09-.11,.08-.18,.13-.1,.07-.21,.16-.32,.26-.22,.18-.43,.39-.64,.59-.42,.41-.83,.86-1.23,1.31-1.57,1.81-3.11,3.79-4.14,5.82-.1,.24-.23,.51-.27,.7-.01,.08-.07,.24-.04,.21,0,0,0,0-.01,.01,0-.02-.06-.22-.1-.25-.01-.03-.06-.08-.06-.08,.07,.06,.8,.36,1.3,.5,1.12,.35,2.3,.66,3.49,.94,2.38,.56,4.79,1.06,7.21,1.55l9.26,1.77c1.23,.28,.43,.25,1.72,.65,.16,.05,.34,.12,.54,.2,.11,.05,.2,.09,.38,.2,.05,.02,.22,.15,.33,.27,.08,.08,.25,.33,.3,.51,.1,.18,.06,.81-.1,1.01-.14,.2-.32,.4-.51,.56-.19,.14-.22,.14-.35,.21-.22,.12-.4,.2-.56,.26-.68,.27-1.28,.43-1.91,.6-2.47,.6-4.9,1.02-7.34,1.47-1.28,.21-2.28,.46-3.7,.68-1.31,.16-2.56,.22-3.82,.25-2.53,.03-5.02-.02-7.62-.5-.67-.16-1.29-.24-2.14-.78-.4-.23-.85-1.03-.87-1.3-.14-.4-.18-.75-.22-1.09-.14-1.35-.11-2.61-.04-3.87,.13-2.52,.43-4.98,.8-7.45,.19-1.23,.39-2.46,.67-3.7,.23-.63,.08-1.2,.83-2.04,.61-.51,1.17-.79,1.75-1.06,2.32-1.03,4.68-1.76,7.05-2.48,2.37-.71,4.76-1.38,7.18-1.88Z" style="fill:#dbdbdb;"></path></g><g><g><path d="M383.13,403.18c-2.12,.7-4.56,.57-4.31,2.95,.26,2.38-2.72,3.81-3.43,4.88-.71,1.07,0,4.88,.71,5.71,.71,.83,2.1,1.19,2.72,2.02,.62,.83,1.57,2.02,2.52,3.1,.95,1.07,2.26,2.62,4.64,2.14s3.19-1.55,4.39-2.26c1.2-.71,3.34,.48,6.08-.48s3.81-5.6,3.33-6.79c-.48-1.19-2.5-4.37-2.5-6.11s1.43-2.22,.6-3.77c-.83-1.55-2.62-3.81-3.33-3.93-.71-.12-1.34,1.31-2.46,.83-1.11-.48-3.21-2.38-4.6-2.14-1.39,.24-2.75,3.3-4.37,3.83Z" style="fill:#fff;"></path><path d="M383.13,403.18c-1.4,.58-3.68,.4-4.23,2.1-.13,.8,.11,1.69-.34,2.44-.56,1.1-1.65,1.92-2.54,2.72-1.07,.81-.84,2.21-.69,3.39,.13,.81,.32,1.62,.65,2.35,.51,1.12,2.02,1.36,2.86,2.25,1.26,1.39,2.65,3.43,4.12,4.58,2.02,1.54,4.68,.38,6.46-1.04,.36-.25,.63-.51,1.14-.71,1.29-.35,2.57,.1,3.82-.01,3.45,.16,5.34-3.45,5.18-6.49-.54-1.46-1.52-2.96-2.04-4.47-.28-.78-.57-1.66-.37-2.56,.16-.9,.84-1.56,.83-2.29-.04-.76-.64-1.47-1.03-2.12-.69-.9-1.39-2.17-2.46-2.58-.73,.11-1.36,1.19-2.25,.85-1.52-.63-2.71-2.04-4.4-2.23-.41-.04-.8,.16-1.11,.42-1.27,1.03-2.01,2.74-3.58,3.39h0Zm0,0c1.56-.68,2.28-2.38,3.55-3.43,1.87-1.45,3.86,1.16,5.58,1.73,1.49,.3,1.7-1.99,3.31-.24,5.61,5.99,.57,4.24,2.41,8.88,.59,1.58,1.63,2.92,2.19,4.53,.29,3.47-1.94,7.49-5.79,7.36-1.23,.1-2.47-.33-3.61-.07-1.79,1.09-3.39,2.5-5.71,2.46-2.72-.03-4.22-2.92-5.77-4.72l-.76-.96c-.84-.91-2.29-1.13-2.84-2.4-.57-1.58-.9-3.3-.53-4.96,.12-.43,.46-.73,.77-1.01,.91-.78,2-1.59,2.56-2.66,.46-.75,.21-1.6,.36-2.42,.59-1.74,2.86-1.52,4.28-2.09h0Z" style="fill:#c7c7c7;"></path></g><path d="M378.57,407.59c1.02,2.92,2.03,5.89,3.42,8.59,.18,.32,.38,.66,.57,.86,.03,.11,.54,.18,.87,.25,.74,.13,1.51,.22,2.27,.3,1.53,.16,3.07,.27,4.58,.28,.76,.01,1.52-.02,2.21-.12,.37-.04,.63-.17,.59-.16,.09-.12,.2-.51,.25-.84,.24-1.42,.26-2.98,.22-4.48-.03-.75-.07-1.52-.18-2.23-.1-.64-.32-1.52-.45-2.24-.3-1.52-.6-3.04-.97-4.5-.1-.35-.19-.73-.3-1.02-.03-.09-.05-.15-.07-.18,0,0-.04-.08-.01-.03,.03,.05,.09,.1,.15,.11,.1,.09,.47,.11,.56,.06,.1-.02,.23-.12,.26-.15,.04-.03,.09-.11,.08-.09,.01-.03,0,0,0,.02l-.08,.21c-.22,.66-.4,1.43-.57,2.17l-1.01,4.53c-.33,1.52-.67,3.03-1.05,4.55-.2,.76-.39,1.52-.66,2.29-.18,.41-.21,.72-.66,1.28-.03,.04-.11,.09-.16,.13-.06,.05-.23,.11-.29,.11-.09,0-.19,0-.28,0-.21,0-.3-.05-.43-.09-.26-.08-.44-.18-.64-.27-1.46-.83-2.63-1.86-3.78-2.95-.28-.28-.56-.56-.83-.86-.13-.15-.27-.3-.39-.47-.06-.08-.13-.16-.19-.26-.06-.12-.11-.11-.2-.39-.08-.45,.11-.69,.22-.88,.13-.2,.27-.36,.41-.51,.29-.3,.58-.57,.89-.82,2.49-1.94,5.13-3.55,7.85-5.06-2.52,1.8-5.1,3.56-7.34,5.64-.27,.26-.54,.52-.78,.8-.23,.22-.43,.68-.39,.61-.05-.09,.05,.07,.08,.11,.04,.07,.1,.13,.16,.2,.11,.14,.24,.27,.37,.4,.26,.27,.54,.52,.82,.77,1.14,.98,2.38,1.95,3.65,2.6,.15,.06,.32,.14,.44,.17,.05,0,.15,.05,.13,.02,0,0,0,0,0,0-.01,0-.14,.04-.16,.06-.02,0-.05,.04-.05,.04,.04-.04,.23-.5,.31-.81,.22-.7,.41-1.45,.59-2.19,.35-1.49,.66-3.01,.97-4.52l1.11-5.81c.17-.77,.15-.27,.41-1.08,.03-.1,.07-.21,.12-.34,.03-.07,.06-.13,.12-.24,.02-.03,.1-.14,.17-.21,.05-.05,.2-.15,.32-.19,.11-.07,.51-.04,.63,.06,.13,.09,.25,.2,.35,.32,.09,.12,.09,.14,.13,.22,.08,.14,.13,.25,.16,.35,.17,.43,.27,.81,.37,1.2,.38,1.55,.64,3.08,.93,4.6,.13,.8,.29,1.43,.43,2.32,.1,.82,.14,1.61,.15,2.4,.02,1.59-.01,3.15-.32,4.78-.1,.42-.15,.81-.49,1.35-.14,.25-.65,.53-.82,.54-.25,.09-.47,.12-.68,.14-.85,.09-1.64,.07-2.43,.03-1.58-.08-3.13-.27-4.68-.5-.77-.12-1.54-.25-2.32-.42-.4-.14-.75-.05-1.28-.52-.32-.38-.49-.73-.67-1.1-.64-1.46-1.1-2.94-1.56-4.43-.45-1.49-.87-2.98-1.18-4.51Z" style="fill:#dbdbdb;"></path></g></g></g><g id="freepik--Lines--inject-4"><path d="M216.24,77.12c1.09,1.46,2.4,2.63,3.83,3.61,.92,3.77,4.17,6.36,7.11,7.95,3.45,1.86,7.18,2.99,10.96,3.53,6.24,.9,12.6,.4,18.84-.65,1.21,5.46,1.01,11.41,.72,17.02,0,.14,.19,.14,.19,0,.32-5.57,.67-11.56-.33-17.12,1.23-.22,2.45-.44,3.66-.7,1.86-.39,3.76-.85,5.64-1.43,3.31-.77,6.61-1.75,9.75-3.11,3.67-1.59,7.17-4.03,9.19-8.01,1.93-3.81,1.84-8.18-.14-11.94-.85-1.61-1.93-3.05-3.14-4.36-.77-.95-1.6-1.83-2.45-2.61-2.88-2.65-6.25-4.5-9.74-5.85-.92-.36-1.85-.68-2.8-.98-.13-.07-.26-.15-.4-.22-3.6-1.93-7.5-3.02-11.43-3.64-8.26-1.31-16.74-.52-24.72,2.24-4.01,1.39-7.92,3.28-11.56,5.66-3.19,2.09-6.1,4.96-6.55,9.38-.32,3.13,.5,6.25,2,8.86,.37,.83,.82,1.62,1.37,2.36Zm47.26,11.35c-2.1,.43-4.23,.77-6.37,1.01-.07-.28-.14-.56-.22-.84,.47-.09,.94-.19,1.41-.31,.41-.1,.84-.23,1.26-.37,3.93-.7,7.79-1.83,11.52-3.44,3.32-1.44,6.51-3.26,9.51-5.44-3.87,4.69-9.77,7.32-15.03,8.84-.69,.2-1.38,.37-2.08,.55Zm-23.52-34.77c1.11-.16,2.23-.3,3.34-.41-2.71,1.07-5.27,2.55-7.52,4.51-2.45,2.14-4.56,4.98-5.59,8.35-1.28,.98-2.5,2.11-3.51,3.43-.29,.14-.58,.28-.87,.44-1.02,.59-2.06,1.34-2.97,2.24-.06-.16-.13-.3-.18-.47-1.1-3.77,.81-7.3,3.15-9.8,2.59-2.77,5.89-4.83,9.15-6.37,1.62-.77,3.29-1.4,4.98-1.93Zm-14.44,24.35c.45,.36,.92,.71,1.4,1.01-.25,.45-.46,.94-.61,1.44-.36-.77-.64-1.59-.78-2.46Zm30.67,10.71c.09,.26,.16,.52,.24,.79-3.02,.32-6.06,.45-9.09,.34,1.83-.15,3.65-.36,5.47-.62,1.12-.16,2.25-.31,3.38-.5Zm-2.28-4.92c-7.69,1.03-15.6,.91-23.21-.74-.98-.21-1.98-.46-2.96-.75,0-.84,.25-1.7,.67-2.44,3.62,1.86,7.67,2.65,11.59,3.06,4.22,.44,8.46,.34,12.69,.25,.28,0,.46-.19,.54-.42,.04,.05,.08,.1,.12,.16,.2,.29,.37,.58,.55,.87Zm-23.33-4.56c-.41-.16-.82-.34-1.24-.54,1.21-1.13,2.87-1.58,4.39-1.79,3.56-.49,7.41-.71,10.95,.05,3,.65,5.67,2.27,7.75,4.75-7.3,.15-14.86,.27-21.86-2.48Zm24.2,6.1c.22,.44,.43,.89,.63,1.34-.02,0-.05,0-.07,.01-.56,.08-1.11,.14-1.67,.22-.8,.05-1.59,.09-2.39,.11-4.09,.1-8.17-.28-12.2-1.06,4.37,.32,8.76,.24,13.11-.26,.87-.1,1.73-.23,2.59-.36Zm.91-.14c2.33-.38,4.64-.88,6.93-1.49-.76,.91-1.81,1.51-2.83,1.92-1.16,.46-2.35,.72-3.56,.92-.17-.45-.34-.9-.54-1.34Zm-16.38,2.53c-.2-.02-.4-.02-.6-.04-1.78-.17-3.55-.5-5.28-1-.5-.15-1.05-.29-1.59-.46-.27-.16-.55-.32-.81-.5-.16-.11-.32-.24-.49-.36,2.87,1,5.8,1.8,8.77,2.35Zm-13.89-11.67c.11-1.8,.74-3.43,1.68-4.85,1.03-.53,2.11-.94,3.22-1.26,.46,.72,1.18,1.27,2.1,1.66,1.83,.78,3.73,1.39,5.64,1.88,6.96,1.82,14.25,1.95,21.27,.46,1.48,1.12,2.79,2.49,3.66,4.18,.58,1.14,.85,2.47,.58,3.71-2.84,.8-5.73,1.4-8.63,1.83-.24-.45-.49-.89-.77-1.32-2.2-3.47-5.3-5.78-8.96-6.72-3.7-.95-7.76-.86-11.52-.43-2.09,.24-4.28,.81-5.84,2.52-.04,.04-.07,.08-.1,.13-.82-.5-1.61-1.09-2.32-1.76Zm48.45-10.48c-.38,.73-.97,1.29-1.63,1.76-2.6-2.75-6.12-4.53-9.43-5.82-6.82-2.67-14.33-2.98-21.33-1.03-3.17,.88-6.25,2.28-9.1,4.1,.06-.12,.12-.24,.17-.34,.78-1.53,1.8-2.87,2.95-4.05,4.43-4.55,10.63-6.63,16.52-7.3,.15,0,.3,0,.45,0,6.33,.21,12.69,1.43,18.62,4.01,.08,.08,.17,.16,.26,.24,1.85,1.92,4.03,5.54,2.51,8.44Zm-42.43,1.26c2.45-1.82,5.15-3.23,7.93-4.24,6.34-2.29,13.21-2.56,19.68-.81,3.27,.89,6.42,2.29,9.34,4.21,.83,.55,1.76,1.25,2.6,2.08-.54,.28-1.07,.52-1.57,.76-1.73,.83-3.51,1.56-5.31,2.16-1.37,.46-2.77,.84-4.17,1.16-.05-.04-.11-.08-.16-.12-6.35-4.57-14.19-5.3-21.51-4.99-2.34,.1-4.71,.32-7.02,.85,.01-.34,.08-.71,.18-1.07Zm2.35,2.37c3.57-.51,7.24-.58,10.83-.29,3.44,.27,6.92,.97,10.14,2.41,.86,.38,1.75,.84,2.63,1.35-4.96,.86-10.02,.9-14.98,.07-1.77-.3-3.53-.7-5.27-1.22-.95-.28-1.9-.59-2.83-.94-.76-.28-1.67-.54-2.35-1.05,.62-.13,1.23-.24,1.84-.33Zm39.59,6.37c-1.13,2.99-4.29,4.45-6.82,5.32-.37,.13-.74,.23-1.11,.35,.2-3.16-1.75-5.85-3.92-7.8h.02c3.55-.94,7.25-2.24,10.5-4.2,1.41,1.77,2.25,3.94,1.34,6.34Zm-49.11-.77c-.25-.32-.47-.65-.68-1,.42-.44,.86-.84,1.33-1.2-.11,.28-.23,.55-.32,.85-.14,.45-.24,.91-.32,1.36Zm58.91,.02c-.67,.72-1.48,1.32-2.22,1.89-2.88,2.24-5.97,4.12-9.2,5.61-2.57,1.19-5.22,2.14-7.92,2.87,.53-.62,.96-1.35,1.24-2.2,.04-.01,.08-.02,.12-.03,3.02-.93,6.44-2.14,8.48-5.05,.99-1.42,1.53-3.2,1.35-5.03-.17-1.68-.89-3.16-1.83-4.42,1.21-.91,2.2-2.19,2.46-3.87,.26-1.65-.12-3.29-.75-4.76-.23-.54-.51-1.04-.81-1.53,2.72,1.39,5.48,3.07,7.6,5.41,1.33,1.47,2.38,3.34,2.56,5.49,.15,1.85-.25,3.68-.95,5.33-.04,.1-.09,.19-.13,.28Zm-58.52,6.39c-1.14-.56-2.25-1.19-3.31-1.9-.16-1.64,.4-3.16,1.29-4.42,.44,.67,.94,1.29,1.5,1.86,.04,1.67,.49,3.28,1.22,4.75-.24-.09-.47-.19-.7-.29Zm-7.71-5.99c-1.19-1.86-1.89-4.07-1.63-6.51,.41-3.77,2.67-6.98,5.39-9,3.32-2.46,7.28-3.52,11.1-4.47,.2-.05,.4-.09,.6-.14-2.7,1.48-5.22,3.34-7.41,5.62-2.47,2.58-4.47,6.17-3.89,10.14,.13,.87,.39,1.68,.72,2.44-1.1,1.38-1.88,3.02-2.01,4.86-1.06-.86-2.03-1.84-2.86-2.94Zm39.98-24.85c-3.51-.29-7.03-.23-10.47,.24-1.97,.27-3.97,.68-5.95,1.23-2.19,.3-4.37,.68-6.51,1.14-7.27,1.57-16.55,3.77-19.56,12.65-.1,.29-.16,.59-.24,.88,.05-.85,.18-1.69,.43-2.49,.62-1.93,1.9-3.46,3.33-4.66,3.07-2.57,6.75-4.39,10.31-5.89,7.23-3.03,14.98-4.36,22.68-3.88,2,.13,4.01,.38,5.99,.76Zm21.35,33.23c-.19,.11-.39,.2-.59,.31,1.76-1.35,3.38-2.94,4.77-4.83,.71-.97,1.35-2.04,1.88-3.18,.42-.47,.8-.99,1.09-1.58,.06-.12,.08-.24,.13-.36-.05,.37-.12,.74-.22,1.11-1.03,3.97-3.93,6.76-7.07,8.53Zm-54.18,.79c-.7-.69-1.36-1.49-1.86-2.39,1.17,.6,2.37,1.09,3.58,1.51,.08,.04,.17,.08,.25,.11,.02,0,.04,.02,.06,.02,.41,1.71,1.63,2.93,3.05,3.67,1.81,.95,3.79,1.54,5.75,1.96,.75,.27,1.5,.51,2.26,.72,.92,.25,1.85,.44,2.78,.61-2.16-.22-4.31-.6-6.42-1.22-3.3-.97-6.82-2.42-9.43-5Z" style="fill:#263238;"></path></g></svg>
