<svg xmlns="http://www.w3.org/2000/svg" version="1.1" xmlns:xlink="http://www.w3.org/1999/xlink" xmlns:svgjs="http://svgjs.dev/svgjs" width="1000" height="469" viewBox="0 0 1000 469"><g transform="matrix(1,0,0,1,-0.6060543583775484,0.007552064350818455)"><svg viewBox="0 0 396 186" data-background-color="#ffffff" preserveAspectRatio="xMidYMid meet" height="469" width="1000" xmlns="http://www.w3.org/2000/svg" xmlns:xlink="http://www.w3.org/1999/xlink"><g id="tight-bounds" transform="matrix(1,0,0,1,0.23999752591751644,-0.002983651994441061)"><svg viewBox="0 0 395.5199999999999 186.00597765475152" height="186.00597765475152" width="395.5199999999999"><g><svg viewBox="0 0 395.5199999999999 186.00597765475152" height="186.00597765475152" width="395.5199999999999"><g transform="matrix(1,0,0,1,0,111.8801681885877)"><svg viewBox="0 0 395.5199999999999 74.12580946616382" height="74.12580946616382" width="395.5199999999999"><g id="textblocktransform"><svg viewBox="0 0 395.5199999999999 74.12580946616382" height="74.12580946616382" width="395.5199999999999" id="textblock"><g><svg viewBox="0 0 395.5199999999999 39.97991962905718" height="39.97991962905718" width="395.5199999999999"><g transform="matrix(1,0,0,1,0,0)"><svg width="395.5199999999999" viewBox="1.559999942779541 -38.22999954223633 394.8699951171875 39.90999984741211" height="39.97991962905718" data-palette-color="#ffcf59"><path d="M27.47-33.89L35.08-35.94Q35.21-35.96 35.31-35.97 35.42-35.99 35.52-35.99L35.52-35.99Q35.96-35.99 36.23-35.71 36.5-35.42 36.6-34.72L36.6-34.72Q36.65-34.28 36.76-33.48 36.87-32.69 37-31.73 37.13-30.76 37.29-29.74 37.45-28.71 37.57-27.84 37.7-26.98 37.79-26.35 37.89-25.73 37.92-25.56L37.92-25.56Q38.45-21.24 38.87-18.63 39.28-16.02 39.45-14.77L39.45-14.77 41.09-1.56 40.84-0.81Q40.8-0.63 40.21-0.39 39.62-0.15 38.79 0.13 37.96 0.42 36.99 0.68 36.01 0.95 35.18 1.17 34.35 1.39 33.78 1.53 33.2 1.66 33.18 1.66L33.18 1.66Q32.59 1.66 32.25 0.81 31.91-0.05 31.69-1.37 31.47-2.69 31.34-4.25 31.2-5.81 31.03-7.25L31.03-7.25Q30.88-8.45 30.76-9.67 30.64-10.89 30.49-12.16L30.49-12.16 29.54-19.29 20.48-2.71Q20.07-2.12 19.65-1.87 19.24-1.61 18.87-1.61L18.87-1.61Q18.33-1.61 18.03-1.93 17.72-2.25 17.6-2.71L17.6-2.71Q17.14-4.25 16.81-5.31 16.48-6.37 16.2-7.25 15.92-8.13 15.67-8.96 15.43-9.79 15.12-10.88 14.82-11.96 14.44-13.44 14.06-14.92 13.53-17.07L13.53-17.07 12.77-13.55 9.25 1.37Q9.18 1.66 8.64 1.66L8.64 1.66Q8.13 1.66 7.24 1.46 6.35 1.27 5.38 0.99 4.42 0.71 3.5 0.4 2.59 0.1 2.05-0.15L2.05-0.15Q1.93-0.2 1.75-0.38 1.56-0.56 1.56-0.95L1.56-0.95Q1.56-1.05 1.64-1.37 1.71-1.68 1.82-2.11 1.93-2.54 2.06-2.98 2.2-3.42 2.32-3.76L2.32-3.76Q2.64-4.59 2.89-5.71 3.15-6.84 3.37-7.98 3.59-9.13 3.77-10.18 3.96-11.23 4.13-11.94L4.13-11.94 7.13-25.95 8.03-29.91Q8.2-30.66 8.36-31.38 8.52-32.1 8.64-32.69 8.76-33.28 8.84-33.64 8.91-34.01 8.91-34.06L8.91-34.06 15.01-35.94Q15.36-35.94 15.61-35.88 15.87-35.82 15.94-35.47L15.94-35.47 20.8-19.85 27.47-33.89ZM43.28-32.52L43.28-32.52Q43.43-32.62 43.78-32.78 44.14-32.93 44.61-33.13 45.09-33.33 45.64-33.56 46.19-33.79 46.75-34.01L46.75-34.01 49.58-35.13Q49.9-35.28 50.17-35.28L50.17-35.28Q50.36-35.28 50.6-35.17 50.83-35.06 51.12-34.77L51.12-34.77 56.76-23.83 56.91-24.19 59.32-28.66Q59.79-29.49 60.24-30.3 60.69-31.1 61.04-31.74 61.4-32.37 61.64-32.76 61.89-33.15 61.94-33.15L61.94-33.15 70.31-35.25Q70.6-35.33 70.8-35.33L70.8-35.33Q71.36-35.33 71.36-34.81L71.36-34.81Q71.34-34.69 71.31-34.48 71.29-34.28 71.16-34.03L71.16-34.03 63.99-20.73Q63.45-19.73 62.9-18.73 62.35-17.72 61.84-16.83 61.33-15.94 60.92-15.21 60.52-14.48 60.28-14.01L60.28-14.01 60.1-13.21 58.74-4.05Q58.66-3.64 58.62-3.37 58.57-3.1 58.48-2.93 58.4-2.76 58.26-2.64 58.13-2.51 57.88-2.39L57.88-2.39 50.95 1.25Q50.56 1.44 50.13 1.56 49.7 1.68 49.31 1.68L49.31 1.68Q48.9 1.68 48.61 1.5 48.31 1.32 48.31 0.9L48.31 0.9 48.31 0.81Q48.41-0.59 48.67-2.43 48.92-4.27 49.22-6.03L49.22-6.03 50.58-15.09Q50.19-15.92 49.56-17.29 48.92-18.65 48.19-20.24 47.46-21.83 46.66-23.51 45.87-25.2 45.18-26.7 44.48-28.2 43.93-29.35 43.38-30.49 43.11-31.03L43.11-31.03Q42.99-31.4 42.99-31.79L42.99-31.79Q42.99-32.01 43.05-32.21 43.11-32.42 43.28-32.52ZM92.57-20.26L92.57-20.26Q92.48-19.92 92.21-19.3 91.94-18.68 91.58-17.9 91.23-17.11 90.83-16.22 90.42-15.33 90.03-14.43L90.03-14.43Q89.89-14.09 89.77-13.93 89.64-13.77 89.37-13.7 89.11-13.62 88.63-13.61 88.15-13.6 87.3-13.57L87.3-13.57 83.91-13.5 83.22-6.03 95.75-6.03 95.75-5.08Q95.7-5.03 95.33-4.43 94.97-3.83 94.48-3 93.99-2.17 93.45-1.33 92.91-0.49 92.55 0.02L92.55 0.02Q92.3 0.46 91.99 0.72 91.67 0.98 91.29 1.1 90.91 1.22 90.46 1.25 90.01 1.27 89.47 1.27L89.47 1.27Q87.28 1.27 84.89 1.17 82.51 1.07 80.15 0.93 77.78 0.78 75.52 0.6 73.26 0.42 71.33 0.22L71.33 0.22Q71.16 0.2 71.03 0.02 70.89-0.15 70.89-0.37L70.89-0.37Q70.8-0.37 71.03-0.78 71.26-1.2 71.67-1.86 72.09-2.51 72.59-3.36 73.09-4.2 73.55-5.05L73.55-5.05 73.95-10.55Q74.04-11.94 74.1-12.62 74.16-13.31 74.16-13.35L74.16-13.35Q72.7-13.38 71.98-13.5 71.26-13.62 71.26-14.04L71.26-14.04Q71.26-14.23 71.61-14.77 71.97-15.31 72.48-16 72.99-16.7 73.57-17.46 74.14-18.21 74.58-18.85L74.58-18.85 75.19-27.15 75.12-27.15Q74.58-27.12 74.14-27.11 73.7-27.1 73.33-27.1L73.33-27.1Q72.16-27.1 71.66-27.23 71.16-27.37 71.16-27.73L71.16-27.73Q71.16-27.91 71.45-28.44 71.75-28.98 72.19-29.68 72.63-30.37 73.12-31.14 73.6-31.91 73.99-32.57L73.99-32.57 75.46-35.06 85.66-35.06 97.7-35.94Q97.72-35.94 97.83-35.93 97.94-35.91 98.07-35.85 98.19-35.79 98.3-35.64 98.41-35.5 98.41-35.23L98.41-35.23 98.04-33.96Q97.87-33.42 97.63-32.82 97.38-32.23 97.09-31.59L97.09-31.59 96.02-28.76Q95.84-28.34 95.62-28.13 95.41-27.91 94.7-27.88L94.7-27.88Q92.84-27.83 90.56-27.72 88.28-27.61 85.32-27.51L85.32-27.51Q85.22-27.17 85.22-26.97 85.22-26.76 85.18-26.17L85.18-26.17 85.05-25.05Q85-24.27 84.91-23.36 84.81-22.46 84.66-21.14L84.66-21.14Q85.91-21.19 87.09-21.24 88.28-21.29 89.25-21.33 90.23-21.36 90.95-21.39 91.67-21.41 91.96-21.41L91.96-21.41Q92.16-21.41 92.4-21.26 92.65-21.12 92.65-20.7L92.65-20.7Q92.65-20.51 92.57-20.26ZM104.97 1.27L100.53 1.27Q100.26 1.22 100.14 1 100.02 0.78 100.02 0.51L100.02 0.51Q100.02 0.29 100.11 0.12L100.11 0.12 103.12-5.62Q103.14-5.71 103.2-6.37 103.26-7.03 103.34-8.02 103.41-9.01 103.5-10.23 103.58-11.45 103.68-12.65 103.78-13.84 103.86-14.93 103.95-16.02 104.02-16.75L104.02-16.75Q104.05-17.04 104.09-17.64 104.14-18.24 104.19-19.02 104.24-19.8 104.31-20.7 104.39-21.61 104.46-22.51L104.46-22.51 104.8-27.61Q104.14-27.47 103.43-27.31 102.73-27.15 102.06-27.03 101.38-26.9 100.79-26.82 100.19-26.73 99.75-26.73L99.75-26.73Q99.48-26.73 99.35-26.98 99.21-27.22 99.21-27.49L99.21-27.49Q99.21-27.81 99.36-27.95L99.36-27.95 105.56-33.74Q106.32-34.42 107.06-34.85 107.81-35.28 108.85-35.52 109.9-35.77 111.43-35.85 112.96-35.94 115.3-35.94L115.3-35.94Q119.3-35.94 122.4-35.11 125.51-34.28 127.65-32.74L127.65-32.74Q129.24-31.64 130.49-30.44 131.73-29.25 132.59-27.8 133.44-26.34 133.88-24.6 134.32-22.85 134.32-20.65L134.32-20.65Q134.32-16.48 133.07-13.23 131.83-9.99 129.68-7.56 127.53-5.13 124.66-3.44 121.79-1.76 118.53-0.71 115.28 0.34 111.8 0.81 108.32 1.27 104.97 1.27L104.97 1.27ZM114.71-28.13L114.71-28.13 114.42-25.17Q114.27-23.63 114.12-21.89 113.96-20.14 113.81-18.35 113.66-16.55 113.52-14.81 113.37-13.06 113.25-11.55 113.13-10.03 113.03-8.84 112.93-7.64 112.86-6.93L112.86-6.93 112.79-6.2Q115.74-6.2 117.78-7.15 119.82-8.11 121.09-9.78 122.36-11.45 122.93-13.7 123.5-15.94 123.5-18.53L123.5-18.53Q123.5-20.39 122.99-22.11 122.48-23.83 121.5-25.39L121.5-25.39Q120.52-26.95 119.11-27.73 117.69-28.52 115.91-28.52L115.91-28.52Q115.62-28.52 115.28-28.38 114.93-28.25 114.71-28.13ZM167.76-34.91L167.76-34.91Q167.71-34.25 167.59-32.97 167.47-31.69 167.31-30.07 167.15-28.44 166.98-26.66 166.81-24.88 166.65-23.25 166.49-21.63 166.37-20.31 166.25-18.99 166.2-18.33L166.2-18.33Q165.69-13.13 164.46-9.41 163.22-5.69 161.22-3.32 159.22-0.95 156.42 0.16 153.63 1.27 149.97 1.27L149.97 1.27Q147.45 1.27 145.23 0.35 143.01-0.56 141.35-2.22 139.69-3.88 138.72-6.21 137.76-8.54 137.76-11.4L137.76-11.4Q137.76-11.77 137.82-12.73 137.88-13.7 137.99-15.09 138.1-16.48 138.23-18.25 138.37-20.02 138.52-22.02L138.52-22.02 138.81-26.07Q138.95-28.3 139.03-29.77 139.1-31.25 139.19-32.15 139.27-33.06 139.44-33.47 139.61-33.89 139.98-34.01L139.98-34.01 148.31-35.86Q148.62-35.96 148.96-35.96L148.96-35.96Q149.36-35.96 149.49-35.74 149.62-35.52 149.62-34.91L149.62-34.91 147.77-15.67Q147.72-14.82 147.6-13.82 147.48-12.82 147.48-11.77L147.48-11.77Q147.48-11.13 147.63-10.38 147.79-9.62 148.21-8.95 148.62-8.28 149.34-7.82 150.06-7.37 151.21-7.37L151.21-7.37Q152.6-7.37 153.46-7.97 154.31-8.57 154.82-9.56 155.34-10.55 155.57-11.8 155.8-13.06 155.95-14.38L155.95-14.38Q156.07-15.92 156.24-17.99 156.41-20.07 156.58-22.44L156.58-22.44 157.29-32.18Q157.34-32.62 157.35-32.91 157.36-33.2 157.41-33.4 157.46-33.59 157.62-33.69 157.78-33.79 158.12-33.84L158.12-33.84 166.45-35.86Q166.76-35.96 167.1-35.96L167.1-35.96Q167.45-35.96 167.6-35.75 167.76-35.55 167.76-34.91ZM170.76-16.5L170.76-16.5Q170.76-19.19 171.41-21.67 172.06-24.15 173.25-26.29 174.45-28.44 176.15-30.2 177.84-31.96 179.94-33.22 182.04-34.47 184.5-35.16 186.95-35.84 189.66-35.84L189.66-35.84Q191.81-35.84 193.43-35.56 195.06-35.28 196.26-34.85 197.47-34.42 198.29-33.91 199.11-33.4 199.65-32.93L199.65-32.93Q199.62-32.93 199.62-32.76L199.62-32.76Q199.62-32.4 199.68-31.42 199.74-30.44 199.83-29.25 199.91-28.05 199.98-26.82 200.04-25.59 200.04-24.68L200.04-24.68Q200.04-24.54 199.94-24.35 199.84-24.17 199.45-24.17L199.45-24.17Q199.23-24.17 198.91-24.24L198.91-24.24Q198.4-24.39 197.62-24.91 196.84-25.44 195.8-26.01 194.76-26.59 193.48-27.04 192.2-27.49 190.69-27.49L190.69-27.49Q188.68-27.49 187.05-26.7 185.41-25.9 184.26-24.51 183.12-23.12 182.48-21.2 181.85-19.29 181.85-17.02L181.85-17.02Q181.85-15.01 182.29-13.2 182.73-11.38 183.62-10.01 184.51-8.64 185.84-7.82 187.17-7.01 188.93-7.01L188.93-7.01Q190.32-7.01 191.39-7.1 192.47-7.2 193.4-7.42 194.32-7.64 195.21-8.01 196.11-8.37 197.13-8.94L197.13-8.94Q197.18-8.96 197.38-8.96L197.38-8.96Q197.55-8.96 197.61-8.83 197.67-8.69 197.67-8.28L197.67-8.28 197.67-5.35Q197.67-4.54 197.66-3.77 197.64-3 197.63-2.39 197.62-1.78 197.61-1.4 197.59-1.03 197.57-1.03L197.57-1.03Q196.45-0.32 195.17 0.13 193.88 0.59 192.53 0.84 191.17 1.1 189.81 1.18 188.44 1.27 187.17 1.27L187.17 1.27Q183.73 1.27 180.72-0.04 177.72-1.34 175.51-3.69 173.3-6.03 172.03-9.3 170.76-12.57 170.76-16.5ZM212.56-16.65L212.56-16.65Q212.56-14.89 212.94-13.12 213.32-11.35 214.19-9.94 215.07-8.52 216.51-7.64 217.95-6.76 220.08-6.76L220.08-6.76Q221.71-6.86 222.95-7.43 224.18-8.01 225.07-8.92 225.96-9.84 226.55-11.02 227.13-12.21 227.48-13.51 227.82-14.82 227.95-16.19 228.09-17.55 228.09-18.82L228.09-18.82Q228.09-20.56 227.62-22.18 227.16-23.8 226.23-25.05 225.3-26.29 223.92-27.05 222.54-27.81 220.71-27.81L220.71-27.81Q219.27-27.81 218.11-27.27 216.95-26.73 216.05-25.84 215.15-24.95 214.5-23.79 213.85-22.63 213.42-21.4 213-20.17 212.79-18.93 212.58-17.7 212.56-16.65ZM217.32 1.27L217.32 1.27Q213.66 1.27 210.78-0.1 207.9-1.46 205.91-3.8 203.92-6.13 202.85-9.19 201.79-12.26 201.79-15.67L201.79-15.67Q201.79-19.51 202.88-22.74 203.96-25.98 205.92-28.48 207.87-30.98 210.57-32.7 213.27-34.42 216.49-35.25L216.49-35.25Q216.78-35.25 216.94-35.72 217.1-36.18 217.22-36.74 217.34-37.3 217.51-37.77 217.69-38.23 218-38.23L218-38.23Q222.74-37.74 226.52-36.56 230.31-35.38 232.94-33.18 235.58-30.98 236.98-27.62 238.39-24.27 238.39-19.43L238.39-19.43Q238.39-16.33 237.63-13.6 236.87-10.86 235.51-8.56 234.14-6.25 232.22-4.43 230.31-2.61 227.96-1.34 225.62-0.07 222.92 0.6 220.22 1.27 217.32 1.27ZM262.26-14.43L262.26-32.71Q262.46-33.52 262.6-33.89 262.75-34.25 263.24-34.38L263.24-34.38 269.56-35.86Q269.86-35.96 270.2-35.96L270.2-35.96Q270.51-35.96 270.66-35.74 270.81-35.52 270.81-34.91L270.81-34.91Q270.66-34.33 270.56-33.12 270.47-31.91 270.42-30.47 270.37-29.03 270.34-27.58 270.32-26.12 270.32-25.05L270.32-25.05 270.32-23.71Q270.32-22.19 270.3-20.41 270.27-18.63 270.23-16.8 270.2-14.97 270.15-13.18 270.1-11.4 270.05-9.84L270.05-9.84 269.9-5.66Q269.88-5.54 269.88-5.44 269.88-5.35 269.88-5.25L269.88-5.25 269.88-4.88Q269.88-4.47 269.89-4.19 269.9-3.91 269.9-3.69L269.9-3.69Q269.9-3.44 269.87-3.25 269.83-3.05 269.68-2.87 269.54-2.69 269.28-2.49 269.03-2.29 268.59-2L268.59-2Q268.34-1.83 267.78-1.5 267.22-1.17 266.54-0.76 265.85-0.34 265.12 0.1 264.39 0.54 263.78 0.89 263.17 1.25 262.79 1.46 262.41 1.68 262.41 1.68L262.41 1.68 251.08-15.75 250.06-1.46Q250.03-1.27 249.97-1.05 249.91-0.83 249.64-0.71L249.64-0.71Q249.42-0.61 248.88-0.4 248.35-0.2 247.63 0.07 246.91 0.34 246.11 0.62 245.32 0.9 244.61 1.14 243.9 1.37 243.35 1.51 242.8 1.66 242.61 1.66L242.61 1.66Q242.24 1.66 242 1.46 241.75 1.27 241.75 0.76L241.75 0.76Q242-2.29 242.32-5.9 242.63-9.5 242.93-13.28 243.22-17.07 243.48-20.84 243.73-24.61 243.9-28L243.9-28Q243.9-28.1 243.6-28.65 243.29-29.2 242.91-29.85 242.54-30.49 242.23-31.07 241.93-31.64 241.93-31.79L241.93-31.79Q241.93-31.96 242.11-32.1 242.29-32.25 242.71-32.5L242.71-32.5 249.23-36.18Q249.3-36.18 249.43-36.21 249.57-36.23 249.67-36.23L249.67-36.23Q249.93-36.23 250.09-36.17 250.25-36.11 250.42-35.79L250.42-35.79 262.26-14.43ZM295.93-14.43L295.93-32.71Q296.12-33.52 296.27-33.89 296.42-34.25 296.9-34.38L296.9-34.38 303.23-35.86Q303.52-35.96 303.86-35.96L303.86-35.96Q304.18-35.96 304.33-35.74 304.47-35.52 304.47-34.91L304.47-34.91Q304.33-34.33 304.23-33.12 304.13-31.91 304.08-30.47 304.03-29.03 304.01-27.58 303.98-26.12 303.98-25.05L303.98-25.05 303.98-23.71Q303.98-22.19 303.96-20.41 303.94-18.63 303.9-16.8 303.86-14.97 303.81-13.18 303.76-11.4 303.72-9.84L303.72-9.84 303.57-5.66Q303.54-5.54 303.54-5.44 303.54-5.35 303.54-5.25L303.54-5.25 303.54-4.88Q303.54-4.47 303.56-4.19 303.57-3.91 303.57-3.69L303.57-3.69Q303.57-3.44 303.53-3.25 303.5-3.05 303.35-2.87 303.2-2.69 302.95-2.49 302.69-2.29 302.25-2L302.25-2Q302.01-1.83 301.44-1.5 300.88-1.17 300.2-0.76 299.52-0.34 298.78 0.1 298.05 0.54 297.44 0.89 296.83 1.25 296.45 1.46 296.07 1.68 296.07 1.68L296.07 1.68 284.75-15.75 283.72-1.46Q283.7-1.27 283.63-1.05 283.57-0.83 283.31-0.71L283.31-0.71Q283.09-0.61 282.55-0.4 282.01-0.2 281.29 0.07 280.57 0.34 279.78 0.62 278.98 0.9 278.28 1.14 277.57 1.37 277.02 1.51 276.47 1.66 276.27 1.66L276.27 1.66Q275.91 1.66 275.66 1.46 275.42 1.27 275.42 0.76L275.42 0.76Q275.66-2.29 275.98-5.9 276.3-9.5 276.59-13.28 276.88-17.07 277.14-20.84 277.4-24.61 277.57-28L277.57-28Q277.57-28.1 277.26-28.65 276.96-29.2 276.58-29.85 276.2-30.49 275.9-31.07 275.59-31.64 275.59-31.79L275.59-31.79Q275.59-31.96 275.77-32.1 275.96-32.25 276.37-32.5L276.37-32.5 282.89-36.18Q282.96-36.18 283.1-36.21 283.23-36.23 283.33-36.23L283.33-36.23Q283.6-36.23 283.76-36.17 283.92-36.11 284.09-35.79L284.09-35.79 295.93-14.43ZM330.37-20.26L330.37-20.26Q330.28-19.92 330.01-19.3 329.74-18.68 329.38-17.9 329.03-17.11 328.63-16.22 328.22-15.33 327.83-14.43L327.83-14.43Q327.69-14.09 327.57-13.93 327.44-13.77 327.17-13.7 326.91-13.62 326.43-13.61 325.95-13.6 325.1-13.57L325.1-13.57 321.71-13.5 321.02-6.03 333.55-6.03 333.55-5.08Q333.5-5.03 333.13-4.43 332.77-3.83 332.28-3 331.79-2.17 331.25-1.33 330.71-0.49 330.35 0.02L330.35 0.02Q330.1 0.46 329.79 0.72 329.47 0.98 329.09 1.1 328.71 1.22 328.26 1.25 327.81 1.27 327.27 1.27L327.27 1.27Q325.08 1.27 322.69 1.17 320.31 1.07 317.95 0.93 315.58 0.78 313.32 0.6 311.06 0.42 309.13 0.22L309.13 0.22Q308.96 0.2 308.83 0.02 308.69-0.15 308.69-0.37L308.69-0.37Q308.6-0.37 308.83-0.78 309.06-1.2 309.47-1.86 309.89-2.51 310.39-3.36 310.89-4.2 311.35-5.05L311.35-5.05 311.75-10.55Q311.84-11.94 311.9-12.62 311.96-13.31 311.96-13.35L311.96-13.35Q310.5-13.38 309.78-13.5 309.06-13.62 309.06-14.04L309.06-14.04Q309.06-14.23 309.41-14.77 309.77-15.31 310.28-16 310.79-16.7 311.37-17.46 311.94-18.21 312.38-18.85L312.38-18.85 312.99-27.15 312.92-27.15Q312.38-27.12 311.94-27.11 311.5-27.1 311.13-27.1L311.13-27.1Q309.96-27.1 309.46-27.23 308.96-27.37 308.96-27.73L308.96-27.73Q308.96-27.91 309.25-28.44 309.55-28.98 309.99-29.68 310.43-30.37 310.92-31.14 311.4-31.91 311.79-32.57L311.79-32.57 313.26-35.06 323.46-35.06 335.5-35.94Q335.52-35.94 335.63-35.93 335.74-35.91 335.87-35.85 335.99-35.79 336.1-35.64 336.21-35.5 336.21-35.23L336.21-35.23 335.84-33.96Q335.67-33.42 335.43-32.82 335.18-32.23 334.89-31.59L334.89-31.59 333.82-28.76Q333.64-28.34 333.42-28.13 333.21-27.91 332.5-27.88L332.5-27.88Q330.64-27.83 328.36-27.72 326.08-27.61 323.12-27.51L323.12-27.51Q323.02-27.17 323.02-26.97 323.02-26.76 322.98-26.17L322.98-26.17 322.85-25.05Q322.8-24.27 322.71-23.36 322.61-22.46 322.46-21.14L322.46-21.14Q323.71-21.19 324.89-21.24 326.08-21.29 327.05-21.33 328.03-21.36 328.75-21.39 329.47-21.41 329.76-21.41L329.76-21.41Q329.96-21.41 330.2-21.26 330.45-21.12 330.45-20.7L330.45-20.7Q330.45-20.51 330.37-20.26ZM336.03-16.5L336.03-16.5Q336.03-19.19 336.68-21.67 337.33-24.15 338.52-26.29 339.72-28.44 341.42-30.2 343.11-31.96 345.21-33.22 347.31-34.47 349.77-35.16 352.22-35.84 354.93-35.84L354.93-35.84Q357.08-35.84 358.7-35.56 360.33-35.28 361.54-34.85 362.74-34.42 363.56-33.91 364.38-33.4 364.92-32.93L364.92-32.93Q364.89-32.93 364.89-32.76L364.89-32.76Q364.89-32.4 364.95-31.42 365.01-30.44 365.1-29.25 365.18-28.05 365.25-26.82 365.31-25.59 365.31-24.68L365.31-24.68Q365.31-24.54 365.21-24.35 365.11-24.17 364.72-24.17L364.72-24.17Q364.5-24.17 364.18-24.24L364.18-24.24Q363.67-24.39 362.89-24.91 362.11-25.44 361.07-26.01 360.03-26.59 358.75-27.04 357.47-27.49 355.96-27.49L355.96-27.49Q353.95-27.49 352.32-26.7 350.68-25.9 349.54-24.51 348.39-23.12 347.75-21.2 347.12-19.29 347.12-17.02L347.12-17.02Q347.12-15.01 347.56-13.2 348-11.38 348.89-10.01 349.78-8.64 351.11-7.82 352.44-7.01 354.2-7.01L354.2-7.01Q355.59-7.01 356.66-7.1 357.74-7.2 358.67-7.42 359.59-7.64 360.49-8.01 361.38-8.37 362.4-8.94L362.4-8.94Q362.45-8.96 362.65-8.96L362.65-8.96Q362.82-8.96 362.88-8.83 362.94-8.69 362.94-8.28L362.94-8.28 362.94-5.35Q362.94-4.54 362.93-3.77 362.91-3 362.9-2.39 362.89-1.78 362.88-1.4 362.87-1.03 362.84-1.03L362.84-1.03Q361.72-0.32 360.44 0.13 359.15 0.59 357.8 0.84 356.44 1.1 355.08 1.18 353.71 1.27 352.44 1.27L352.44 1.27Q349 1.27 346-0.04 342.99-1.34 340.78-3.69 338.57-6.03 337.3-9.3 336.03-12.57 336.03-16.5ZM373.29 0.88L373.29 0.78Q373.41-1 373.53-2.66 373.65-4.32 373.75-5.88L373.75-5.88 374.63-17.41Q374.78-18.73 374.87-19.81 374.97-20.9 375.03-21.94 375.09-22.97 375.16-24.04 375.22-25.1 375.29-26.39L375.29-26.39Q374.48-26.42 373.59-26.42 372.7-26.42 371.73-26.42L371.73-26.42 367.01-26.42Q366.74-26.42 366.68-26.62 366.62-26.83 366.62-27L366.62-27 366.62-27.17 369.31-34.23 369.28-34.33Q369.28-34.45 369.44-34.53 369.6-34.62 370.16-34.67L370.16-34.67Q373.53-34.86 376.69-35.05 379.86-35.23 382.94-35.38 386.03-35.52 389.12-35.67 392.21-35.82 395.48-35.94L395.48-35.94Q395.77-35.94 396.1-35.86 396.43-35.79 396.43-35.33L396.43-35.33Q396.43-35.28 396.41-35.23 396.38-35.18 396.38-35.13L396.38-35.13Q395.99-34.13 395.66-33.23 395.33-32.32 395.02-31.45 394.7-30.57 394.37-29.66 394.04-28.76 393.65-27.76L393.65-27.76Q393.62-27.73 393.55-27.53 393.48-27.32 393.33-27.06 393.19-26.81 392.94-26.59 392.7-26.37 392.33-26.34L392.33-26.34Q392.21-26.37 392.09-26.37 391.96-26.37 391.82-26.37L391.82-26.37 385.3-26.37Q385.18-25.12 385.07-23.73 384.96-22.34 384.81-21.02L384.81-21.02 383.03-1.95Q383-1.73 382.94-1.51 382.88-1.29 382.61-1.2L382.61-1.2 375.7 1.29Q375.44 1.39 375 1.54 374.56 1.68 374.14 1.68L374.14 1.68Q373.8 1.68 373.54 1.51 373.29 1.34 373.29 0.88L373.29 0.88Z" opacity="1" transform="matrix(1,0,0,1,0,0)" fill="#ffcf59" class="undefined-text-0" data-fill-palette-color="primary" id="text-0"></path></svg></g></svg></g><g transform="matrix(1,0,0,1,0,49.41821913540648)"><svg viewBox="0 0 395.5199999999999 24.707590330757338" height="24.707590330757338" width="395.5199999999999"><g transform="matrix(1,0,0,1,0,0)"><svg width="395.5199999999999" viewBox="3 -35 569.8900146484375 35.599998474121094" height="24.707590330757338" data-palette-color="#5094df"><path d="M44.2 0L33.25 0 33.25-12.4Q33.25-14.7 33.43-17.13 33.6-19.55 33.8-21.2 34-22.85 34.05-23.3L34.05-23.3 33.85-23.3 27.5 0 18.85 0 12.45-23.25 12.25-23.25Q12.3-22.8 12.53-21.18 12.75-19.55 12.95-17.13 13.15-14.7 13.15-12.4L13.15-12.4 13.15 0 3 0 3-34.4 18.6-34.4 23.8-14.55 24-14.55 29.15-34.4 44.2-34.4 44.2 0ZM94.59 0L82.89 0 81.44-4.85 69.39-4.85 67.94 0 56.64 0 69.19-34.4 82.04-34.4 94.59 0ZM75.34-24.8L71.69-12.55 79.14-12.55 75.54-24.8 75.34-24.8ZM118.72-19.7L130.97-34.4 144.67-34.4 132.32-20.25 144.92 0 131.87 0 124.72-12.6 118.72-7.7 118.72 0 107.67 0 107.67-34.4 118.72-34.4 118.72-19.7ZM158.26 0L158.26-34.4 188.01-34.4 188.01-26.15 169.31-26.15 169.31-21.4 185.31-21.4 185.31-13.5 169.31-13.5 169.31-8.25 188.36-8.25 188.36 0 158.26 0ZM240.44 0L229.39 0 229.39-34.4 240.44-34.4 240.44 0ZM288.32-25.6L277.07-25.6 277.07 0 266.02 0 266.02-25.6 254.72-25.6 254.72-34.4 288.32-34.4 288.32-25.6ZM327.9 0L327.9-34.4 357.65-34.4 357.65-26.15 338.95-26.15 338.95-21.4 354.95-21.4 354.95-13.5 338.95-13.5 338.95-8.25 358-8.25 358 0 327.9 0ZM407.69 0L395.99 0 394.54-4.85 382.49-4.85 381.04 0 369.74 0 382.29-34.4 395.14-34.4 407.69 0ZM388.44-24.8L384.79-12.55 392.24-12.55 388.64-24.8 388.44-24.8ZM435.22-35Q441.82-35 446.07-32.33 450.32-29.65 450.42-24.4L450.42-24.4 450.42-23.8 440.07-23.8 440.07-24Q440.07-25.5 438.97-26.5 437.87-27.5 435.62-27.5L435.62-27.5Q433.42-27.5 432.25-26.85 431.07-26.2 431.07-25.25L431.07-25.25Q431.07-23.9 432.67-23.25 434.27-22.6 437.82-21.9L437.82-21.9Q441.97-21.05 444.65-20.13 447.32-19.2 449.32-17.1 451.32-15 451.37-11.4L451.37-11.4Q451.37-5.3 447.25-2.35 443.12 0.6 436.22 0.6L436.22 0.6Q428.17 0.6 423.7-2.1 419.22-4.8 419.22-11.65L419.22-11.65 429.67-11.65Q429.67-9.05 431.02-8.18 432.37-7.3 435.22-7.3L435.22-7.3Q437.32-7.3 438.7-7.75 440.07-8.2 440.07-9.6L440.07-9.6Q440.07-10.85 438.55-11.48 437.02-12.1 433.57-12.8L433.57-12.8Q429.37-13.7 426.62-14.68 423.87-15.65 421.82-17.9 419.77-20.15 419.77-24L419.77-24Q419.77-29.65 424.15-32.33 428.52-35 435.22-35L435.22-35ZM477.36 0L466.31 0 466.31-34.4 477.36-34.4 477.36 0ZM494.2 0L494.2-34.4 523.95-34.4 523.95-26.15 505.25-26.15 505.25-21.4 521.25-21.4 521.25-13.5 505.25-13.5 505.25-8.25 524.3-8.25 524.3 0 494.2 0ZM571.89-23.85Q571.89-20.7 570.19-18.15 568.49-15.6 565.24-14.4L565.24-14.4 572.89 0 560.49 0 554.39-12.55 550.29-12.55 550.29 0 539.24 0 539.24-34.4 560.29-34.4Q563.99-34.4 566.61-32.98 569.24-31.55 570.56-29.13 571.89-26.7 571.89-23.85L571.89-23.85ZM560.64-23.4Q560.64-24.75 559.74-25.65 558.84-26.55 557.54-26.55L557.54-26.55 550.29-26.55 550.29-20.2 557.54-20.2Q558.84-20.2 559.74-21.13 560.64-22.05 560.64-23.4L560.64-23.4Z" opacity="1" transform="matrix(1,0,0,1,0,0)" fill="#5094df" class="undefined-text-1" data-fill-palette-color="secondary" id="text-1"></path></svg></g></svg></g></svg></g></svg></g><g transform="matrix(1,0,0,1,125.41508908552903,0)"><svg viewBox="0 0 144.68982182894186 102.44186868223841" height="102.44186868223841" width="144.68982182894186"><g><svg xmlns="http://www.w3.org/2000/svg" xmlns:xlink="http://www.w3.org/1999/xlink" version="1.1" x="0" y="0" viewBox="25.69999885559082 31.300003051757812 38.70000457763672 27.39999771118164" enable-background="new 0 0 90 90" xml:space="preserve" height="102.44186868223841" width="144.68982182894186" class="icon-icon-0" data-fill-palette-color="accent" id="icon-0"><path d="M46.4 56.3c-0.4 0.2-0.9 0.4-1.4 0.4s-1-0.1-1.4-0.4l0 0-10.3-4.8v4.4c0 1.6 1.3 2.8 2.8 2.8h17.7c1.6 0 2.8-1.3 2.8-2.8V51L46.4 56.3 46.4 56.3z" fill="#525fe1" data-fill-palette-color="accent"></path><path d="M62.7 39.4L62.7 39.4l-0.1-0.1c-0.1-0.1-0.3-0.1-0.4-0.2l-15.8-7.4 0 0c-0.4-0.2-0.9-0.4-1.4-0.4s-1 0.1-1.4 0.4l0 0-16.3 8.5 0 0c-1 0.6-1.6 1.6-1.6 2.9s0.6 2.3 1.6 2.9l0 0 0.1 0.1c0.1 0.1 0.3 0.1 0.4 0.2l15.8 7.4 0 0C44 53.9 44.5 54 45 54s1-0.1 1.4-0.4l0 0 13.1-6.8v11.8h2.1V45.7l1.2-0.6 0 0c1-0.6 1.6-1.6 1.6-2.9S63.7 39.9 62.7 39.4z" fill="#525fe1" data-fill-palette-color="accent"></path></svg></g></svg></g><g></g></svg></g><defs></defs></svg><rect width="395.5199999999999" height="186.00597765475152" fill="none" stroke="none" visibility="hidden"></rect></g></svg></g></svg>